ScienceGothic-ExpS.ufo
<glyph name="numbersign" format="2">
  <advance width="1850"/>
  <unicode hex="0023"/>
  <outline>
    <contour>
      <point x="87" y="318" type="line"/>
      <point x="1529" y="318" type="line"/>
      <point x="1600" y="542" type="line"/>
      <point x="158" y="542" type="line"/>
    </contour>
    <contour>
      <point x="257" y="859" type="line"/>
      <point x="1699" y="859" type="line"/>
      <point x="1770" y="1083" type="line"/>
      <point x="328" y="1083" type="line"/>
    </contour>
    <contour>
      <point x="251" y="0" type="line"/>
      <point x="459" y="0" type="line"/>
      <point x="901" y="1400" type="line"/>
      <point x="693" y="1400" type="line"/>
    </contour>
    <contour>
      <point x="955" y="0" type="line"/>
      <point x="1163" y="0" type="line"/>
      <point x="1605" y="1400" type="line"/>
      <point x="1397" y="1400" type="line"/>
    </contour>
  </outline>
</glyph>
<glyph name="quotesingle" format="2">
  <advance width="832"/>
  <unicode hex="0027"/>
  <outline>
    <contour>
      <point x="378" y="1236" type="line"/>
      <point x="388" y="835" type="line"/>
      <point x="500" y="835" type="line"/>
      <point x="650" y="1236" type="line"/>
      <point x="667" y="1335" type="line" smooth="yes"/>
      <point x="682.092" y="1421.78"/>
      <point x="661.196" y="1452"/>
      <point x="588" y="1452" type="qcurve" smooth="yes"/>
      <point x="514" y="1452" type="line" smooth="yes"/>
      <point x="440.804" y="1452"/>
      <point x="410.092" y="1421.78"/>
      <point x="395" y="1335" type="qcurve" smooth="yes"/>
    </contour>
  </outline>
</glyph>
<glyph name="parenright" format="2">
  <advance width="932"/>
  <unicode hex="0029"/>
  <outline>
    <contour>
      <point x="229" y="1448" type="line"/>
      <point x="304" y="1373.75"/>
      <point x="401.781" y="1187.06"/>
      <point x="449.969" y="969.938"/>
      <point x="449.875" y="726.25"/>
      <point x="427" y="595" type="qcurve" smooth="yes"/>
      <point x="404.125" y="463.75"/>
      <point x="319.344" y="220.688"/>
      <point x="195.406" y="4.3125"/>
      <point x="32.25" y="-181.75"/>
      <point x="-69" y="-256" type="qcurve"/>
      <point x="149" y="-256" type="line"/>
      <point x="258.875" y="-180.25"/>
      <point x="438.969" y="1.96875"/>
      <point x="576.781" y="214.781"/>
      <point x="671" y="458.125"/>
      <point x="695" y="595" type="qcurve" smooth="yes"/>
      <point x="743.294" y="870.429"/>
      <point x="615.276" y="1303.12"/>
      <point x="447" y="1448" type="qcurve"/>
    </contour>
  </outline>
</glyph>
<glyph name="plus" format="2">
  <advance width="1880"/>
  <unicode hex="002B"/>
  <outline>
    <contour>
      <point x="1682" y="691" type="line"/>
      <point x="1055" y="691" type="line"/>
      <point x="1138" y="1168" type="line"/>
      <point x="914" y="1168" type="line"/>
      <point x="831" y="691" type="line"/>
      <point x="204" y="691" type="line"/>
      <point x="167" y="483" type="line"/>
      <point x="794" y="483" type="line"/>
      <point x="710" y="0" type="line"/>
      <point x="934" y="0" type="line"/>
      <point x="1018" y="483" type="line"/>
      <point x="1645" y="483" type="line"/>
    </contour>
  </outline>
</glyph>
<glyph name="hyphen" format="2">
  <advance width="1598"/>
  <unicode hex="002D"/>
  <outline>
    <contour>
      <point x="223" y="712" type="line"/>
      <point x="184" y="488" type="line"/>
      <point x="1347" y="488" type="line"/>
      <point x="1386" y="712" type="line"/>
    </contour>
  </outline>
  <guideline angle="0" x="0" y="600"/>
</glyph>
<glyph name="four" format="2">
  <advance width="2607"/>
  <unicode hex="0034"/>
  <outline>
    <contour>
      <point x="-56" y="306" type="line"/>
      <point x="1602" y="306" type="line"/>
      <point x="1549" y="0" type="line"/>
      <point x="1813" y="0" type="line"/>
      <point x="1866" y="306" type="line"/>
      <point x="2338" y="306" type="line"/>
      <point x="2379" y="538" type="line"/>
      <point x="1907" y="538" type="line"/>
      <point x="2057" y="1400" type="line"/>
      <point x="1809" y="1400" type="line"/>
      <point x="-19" y="516" type="line"/>
    </contour>
    <contour>
      <point x="536" y="538" type="line"/>
      <point x="1744" y="1123" type="line"/>
      <point x="1643" y="538" type="line"/>
    </contour>
  </outline>
</glyph>
<glyph name="eight" format="2">
  <advance width="2691"/>
  <unicode hex="0038"/>
  <outline>
    <contour>
      <point x="484" y="346" type="qcurve" smooth="yes"/>
      <point x="508" y="480" type="line" smooth="yes"/>
      <point x="511.75" y="502.5"/>
      <point x="533.25" y="540"/>
      <point x="564.75" y="567"/>
      <point x="604.25" y="582"/>
      <point x="626" y="582" type="qcurve" smooth="yes"/>
      <point x="2028" y="582" type="line" smooth="yes"/>
      <point x="2050.5" y="582"/>
      <point x="2085.19" y="567"/>
      <point x="2107.31" y="540"/>
      <point x="2115.75" y="502.5"/>
      <point x="2112" y="480" type="qcurve" smooth="yes"/>
      <point x="2088" y="346" type="line" smooth="yes"/>
      <point x="2079.7" y="296.196"/>
      <point x="2003.8" y="230"/>
      <point x="1954" y="230" type="qcurve" smooth="yes"/>
      <point x="578" y="230" type="line" smooth="yes"/>
      <point x="528.196" y="230"/>
      <point x="475.699" y="296.196"/>
    </contour>
    <contour>
      <point x="2183" y="1062" type="qcurve" smooth="yes"/>
      <point x="2160" y="926" type="line" smooth="yes"/>
      <point x="2151.7" y="882.233"/>
      <point x="2085.28" y="826"/>
      <point x="2040" y="826" type="qcurve" smooth="yes"/>
      <point x="700" y="826" type="line" smooth="yes"/>
      <point x="654.724" y="826"/>
      <point x="607.699" y="882.233"/>
      <point x="616" y="926" type="qcurve"/>
      <point x="639" y="1062" type="line" smooth="yes"/>
      <point x="648.055" y="1110.29"/>
      <point x="719.706" y="1170"/>
      <point x="768" y="1170" type="qcurve" smooth="yes"/>
      <point x="2094" y="1170" type="line" smooth="yes"/>
      <point x="2140.79" y="1170"/>
      <point x="2192.06" y="1110.29"/>
    </contour>
    <contour>
      <point x="206" y="266" type="line" smooth="yes"/>
      <point x="192.125" y="185.75"/>
      <point x="225.281" y="78.1875"/>
      <point x="304.969" y="13.3125"/>
      <point x="424" y="-14"/>
      <point x="496" y="-14" type="qcurve" smooth="yes"/>
      <point x="1952" y="-14" type="line" smooth="yes"/>
      <point x="2097.5" y="-14"/>
      <point x="2310.25" y="105.5"/>
      <point x="2338" y="266" type="qcurve" smooth="yes"/>
      <point x="2372" y="458" type="line" smooth="yes"/>
      <point x="2396" y="594.5"/>
      <point x="2278.25" y="698.5"/>
      <point x="2156" y="712" type="qcurve"/>
      <point x="2278.25" y="728.601"/>
      <point x="2411.89" y="859.865"/>
      <point x="2430" y="964" type="qcurve" smooth="yes"/>
      <point x="2462" y="1146" type="line" smooth="yes"/>
      <point x="2483.88" y="1269.75"/>
      <point x="2350.98" y="1414"/>
      <point x="2191" y="1414" type="qcurve" smooth="yes"/>
      <point x="755" y="1414" type="line" smooth="yes"/>
      <point x="595.025" y="1414"/>
      <point x="411.883" y="1269.75"/>
      <point x="390" y="1146" type="qcurve" smooth="yes"/>
      <point x="358" y="964" type="line" smooth="yes"/>
      <point x="339.89" y="859.865"/>
      <point x="426.282" y="728.601"/>
      <point x="544" y="712" type="qcurve"/>
      <point x="416.473" y="698.417"/>
      <point x="263.393" y="593.828"/>
      <point x="240" y="458" type="qcurve" smooth="yes"/>
    </contour>
  </outline>
</glyph>
<glyph name="nine" format="2">
  <advance width="2541"/>
  <unicode hex="0039"/>
  <outline>
    <contour>
      <point x="1344" y="1414" type="qcurve" smooth="yes"/>
      <point x="1016.62" y="1414"/>
      <point x="638.438" y="1394.94"/>
      <point x="437.062" y="1316.56"/>
      <point x="362.625" y="1158.75"/>
      <point x="339" y="1020" type="qcurve" smooth="yes"/>
      <point x="312.75" y="864.75"/>
      <point x="353.031" y="680.312"/>
      <point x="539.219" y="583.188"/>
      <point x="897.875" y="554"/>
      <point x="1190" y="554" type="qcurve" smooth="yes"/>
      <point x="1381.62" y="554"/>
      <point x="1681" y="570.656"/>
      <point x="1901.5" y="597.094"/>
      <point x="2045.62" y="629.875"/>
      <point x="2082" y="646" type="qcurve"/>
      <point x="2120" y="866" type="line"/>
      <point x="2060.38" y="848"/>
      <point x="1889.94" y="821"/>
      <point x="1672.06" y="803"/>
      <point x="1408.62" y="794"/>
      <point x="1256" y="794" type="qcurve" smooth="yes"/>
      <point x="1026.12" y="794"/>
      <point x="754.312" y="803.375"/>
      <point x="616.688" y="841.625"/>
      <point x="586.375" y="918.5"/>
      <point x="598" y="986" type="qcurve" smooth="yes"/>
      <point x="609.25" y="1050.5"/>
      <point x="665.656" y="1127.25"/>
      <point x="825.594" y="1167.75"/>
      <point x="1123.88" y="1180"/>
      <point x="1377" y="1180" type="qcurve" smooth="yes"/>
      <point x="1610.62" y="1180"/>
      <point x="1881" y="1160.38"/>
      <point x="2013" y="1105.62"/>
      <point x="2035.88" y="1008"/>
      <point x="2022" y="930" type="qcurve" smooth="yes"/>
      <point x="1987.88" y="734.25"/>
      <point x="1823.44" y="464.688"/>
      <point x="1542.56" y="297.812"/>
      <point x="1135.12" y="224"/>
      <point x="858" y="224" type="qcurve" smooth="yes"/>
      <point x="799.125" y="224"/>
      <point x="652.062" y="227.938"/>
      <point x="515.938" y="233.562"/>
      <point x="410.875" y="239.75"/>
      <point x="394" y="242" type="qcurve"/>
      <point x="524" y="-2" type="line"/>
      <point x="563.994" y="-6.5276"/>
      <point x="787.657" y="-14"/>
      <point x="885" y="-14" type="qcurve" smooth="yes"/>
      <point x="1194.38" y="-14"/>
      <point x="1675.78" y="82.5625"/>
      <point x="2022.47" y="292.938"/>
      <point x="2235.75" y="625.75"/>
      <point x="2277" y="862" type="qcurve" smooth="yes"/>
      <point x="2308.12" y="1039.75"/>
      <point x="2262.28" y="1256.69"/>
      <point x="2055.47" y="1374.81"/>
      <point x="1661.25" y="1414"/>
    </contour>
  </outline>
</glyph>
<glyph name="colon" format="2">
  <advance width="875"/>
  <unicode hex="003A"/>
  <outline>
    <contour>
      <point x="180" y="111" type="line" smooth="yes"/>
      <point x="172.5" y="67.125"/>
      <point x="168.656" y="18.9688"/>
      <point x="187.594" y="-3.71875"/>
      <point x="235.125" y="-8"/>
      <point x="279" y="-8" type="qcurve" smooth="yes"/>
      <point x="355" y="-8" type="line" smooth="yes"/>
      <point x="398.875" y="-8"/>
      <point x="447.969" y="-3.71875"/>
      <point x="474.781" y="18.9688"/>
      <point x="487.5" y="67.125"/>
      <point x="495" y="111" type="qcurve" smooth="yes"/>
      <point x="509" y="190" type="line" smooth="yes"/>
      <point x="516.5" y="233.125"/>
      <point x="520.344" y="280.469"/>
      <point x="501.406" y="302.781"/>
      <point x="453.875" y="307"/>
      <point x="410" y="307" type="qcurve" smooth="yes"/>
      <point x="334" y="307" type="line" smooth="yes"/>
      <point x="290.125" y="307"/>
      <point x="241.031" y="302.781"/>
      <point x="214.219" y="280.469"/>
      <point x="201.5" y="233.125"/>
      <point x="194" y="190" type="qcurve" smooth="yes"/>
    </contour>
    <contour>
      <point x="303" y="814" type="line" smooth="yes"/>
      <point x="295.5" y="770.125"/>
      <point x="291.344" y="721.969"/>
      <point x="309.906" y="699.281"/>
      <point x="357.125" y="695"/>
      <point x="401" y="695" type="qcurve" smooth="yes"/>
      <point x="477" y="695" type="line" smooth="yes"/>
      <point x="520.875" y="695"/>
      <point x="570.281" y="699.281"/>
      <point x="597.469" y="721.969"/>
      <point x="610.5" y="770.125"/>
      <point x="618" y="814" type="qcurve" smooth="yes"/>
      <point x="632" y="893" type="line" smooth="yes"/>
      <point x="639.5" y="936.125"/>
      <point x="643.031" y="983.469"/>
      <point x="623.719" y="1005.78"/>
      <point x="575.875" y="1010"/>
      <point x="532" y="1010" type="qcurve" smooth="yes"/>
      <point x="456" y="1010" type="line" smooth="yes"/>
      <point x="412.125" y="1010"/>
      <point x="363.344" y="1005.78"/>
      <point x="336.906" y="983.469"/>
      <point x="324.5" y="936.125"/>
      <point x="317" y="893" type="qcurve" smooth="yes"/>
    </contour>
  </outline>
</glyph>
<glyph name="question" format="2">
  <advance width="1954"/>
  <unicode hex="003F"/>
  <outline>
    <contour>
      <point x="756" y="462" type="line"/>
      <point x="980" y="462" type="line"/>
      <point x="992" y="532" type="line" smooth="yes"/>
      <point x="998.037" y="566.712"/>
      <point x="1032.2" y="612.19"/>
      <point x="1082" y="622" type="qcurve" smooth="yes"/>
      <point x="1445" y="692" type="line" smooth="yes"/>
      <point x="1592.9" y="720.675"/>
      <point x="1732.89" y="834.111"/>
      <point x="1751" y="939" type="qcurve" smooth="yes"/>
      <point x="1791" y="1166" type="line" smooth="yes"/>
      <point x="1814.39" y="1300.32"/>
      <point x="1688.05" y="1414"/>
      <point x="1516" y="1414" type="qcurve" smooth="yes"/>
      <point x="602" y="1414" type="line" smooth="yes"/>
      <point x="431.46" y="1414"/>
      <point x="263.638" y="1298.81"/>
      <point x="241" y="1166" type="qcurve" smooth="yes"/>
      <point x="217" y="1032" type="line"/>
      <point x="435" y="986" type="line"/>
      <point x="471" y="1190" type="line"/>
      <point x="471" y="1190"/>
      <point x="471" y="1190"/>
      <point x="471" y="1190" type="qcurve"/>
      <point x="1571" y="1190" type="line"/>
      <point x="1571" y="1190"/>
      <point x="1571" y="1190"/>
      <point x="1571" y="1190" type="qcurve"/>
      <point x="1543" y="1032" type="line" smooth="yes"/>
      <point x="1529.42" y="955.785"/>
      <point x="1482.9" y="902.828"/>
      <point x="1418" y="890" type="qcurve" smooth="yes"/>
      <point x="1013" y="812" type="line" smooth="yes"/>
      <point x="904.338" y="790.871"/>
      <point x="795.092" y="687.779"/>
      <point x="780" y="601" type="qcurve" smooth="yes"/>
    </contour>
    <contour>
      <point x="647" y="111" type="line" smooth="yes"/>
      <point x="631.908" y="22.7118"/>
      <point x="657.712" y="-8"/>
      <point x="746" y="-8" type="qcurve" smooth="yes"/>
      <point x="822" y="-8" type="line" smooth="yes"/>
      <point x="909.75" y="-8"/>
      <point x="947" y="23.25"/>
      <point x="962" y="111" type="qcurve" smooth="yes"/>
      <point x="976" y="190" type="line" smooth="yes"/>
      <point x="991.092" y="276.779"/>
      <point x="965.288" y="307"/>
      <point x="877" y="307" type="qcurve" smooth="yes"/>
      <point x="801" y="307" type="line" smooth="yes"/>
      <point x="713.25" y="307"/>
      <point x="676" y="276.25"/>
      <point x="661" y="190" type="qcurve" smooth="yes"/>
    </contour>
  </outline>
</glyph>
<glyph name="bracketleft" format="2">
  <advance width="1153"/>
  <unicode hex="005B"/>
  <outline>
    <contour>
      <point x="148" y="-256" type="line"/>
      <point x="832" y="-256" type="line"/>
      <point x="871" y="-32" type="line"/>
      <point x="435" y="-32" type="line"/>
      <point x="655" y="1224" type="line"/>
      <point x="1091" y="1224" type="line"/>
      <point x="1130" y="1448" type="line"/>
      <point x="446" y="1448" type="line"/>
    </contour>
  </outline>
</glyph>
<glyph name="backslash" format="2">
  <advance width="1476"/>
  <unicode hex="005C"/>
  <outline>
    <contour>
      <point x="509" y="1430" type="line"/>
      <point x="272" y="1430" type="line"/>
      <point x="962" y="-100" type="line"/>
      <point x="1199" y="-100" type="line"/>
    </contour>
  </outline>
</glyph>
<glyph name="asciicircum" format="2">
  <advance width="1381"/>
  <unicode hex="005E"/>
  <outline>
    <contour>
      <point x="40" y="850" type="line"/>
      <point x="349" y="850" type="line"/>
      <point x="802" y="1257" type="line"/>
      <point x="1133" y="850" type="line"/>
      <point x="1400" y="850" type="line"/>
      <point x="906" y="1400" type="line"/>
      <point x="726" y="1400" type="line"/>
    </contour>
  </outline>
  <guideline angle="0" x="0" y="850"/>
</glyph>
<glyph name="h" format="2">
  <advance width="2103"/>
  <unicode hex="0068"/>
  <anchor x="557" y="1598" name="top"/>
  <anchor x="912" y="-150" name="bottom"/>
  <outline>
    <contour>
      <point x="153" y="0" type="line"/>
      <point x="401" y="0" type="line"/>
      <point x="536" y="776" type="line"/>
      <point x="1608" y="776" type="line"/>
      <point x="1608" y="776"/>
      <point x="1608" y="776"/>
      <point x="1608" y="776" type="qcurve"/>
      <point x="1473" y="0" type="line"/>
      <point x="1721" y="0" type="line"/>
      <point x="1852" y="750" type="line" smooth="yes"/>
      <point x="1875.25" y="883.5"/>
      <point x="1747.5" y="1000"/>
      <point x="1578" y="1000" type="qcurve" smooth="yes"/>
      <point x="858" y="1000" type="line" smooth="yes"/>
      <point x="740.282" y="1000"/>
      <point x="596.239" y="947.313"/>
      <point x="557" y="896" type="qcurve"/>
      <point x="654" y="1448" type="line"/>
      <point x="406" y="1448" type="line"/>
    </contour>
  </outline>
  <guideline angle="0" x="0" y="988"/>
  <guideline angle="0" x="0" y="870"/>
</glyph>
<glyph name="braceright" format="2">
  <advance width="1013"/>
  <unicode hex="007D"/>
  <outline>
    <contour>
      <point x="747" y="1174" type="line" smooth="yes"/>
      <point x="769.638" y="1302.28"/>
      <point x="632.828" y="1448"/>
      <point x="497" y="1448" type="qcurve" smooth="yes"/>
      <point x="146" y="1448" type="line"/>
      <point x="107" y="1224" type="line"/>
      <point x="386" y="1224" type="line" smooth="yes"/>
      <point x="451.65" y="1224"/>
      <point x="497.81" y="1170.1"/>
      <point x="488" y="1112" type="qcurve" smooth="yes"/>
      <point x="447" y="875" type="line" smooth="yes"/>
      <point x="427.38" y="763.319"/>
      <point x="505.939" y="622.166"/>
      <point x="598" y="595" type="qcurve"/>
      <point x="496.884" y="567.834"/>
      <point x="368.62" y="426.681"/>
      <point x="349" y="315" type="qcurve" smooth="yes"/>
      <point x="308" y="80" type="line" smooth="yes"/>
      <point x="297.436" y="21.8958"/>
      <point x="231.65" y="-32"/>
      <point x="166" y="-32" type="qcurve" smooth="yes"/>
      <point x="-113" y="-32" type="line"/>
      <point x="-152" y="-256" type="line"/>
      <point x="199" y="-256" type="line" smooth="yes"/>
      <point x="334.828" y="-256"/>
      <point x="522.853" y="-107.828"/>
      <point x="547" y="28" type="qcurve" smooth="yes"/>
      <point x="595" y="305" type="line" smooth="yes"/>
      <point x="609.337" y="386.497"/>
      <point x="721.301" y="483"/>
      <point x="836" y="483" type="qcurve"/>
      <point x="875" y="707" type="line"/>
      <point x="760.301" y="707"/>
      <point x="681.663" y="802.749"/>
      <point x="696" y="885" type="qcurve" smooth="yes"/>
    </contour>
  </outline>
</glyph>
<glyph name="asciitilde" format="2">
  <advance width="1880"/>
  <unicode hex="007E"/>
  <outline>
    <contour>
      <point x="156" y="420" type="qcurve"/>
      <point x="355" y="382" type="line"/>
      <point x="364.75" y="408.25"/>
      <point x="404.688" y="481.062"/>
      <point x="468.812" y="547.438"/>
      <point x="559" y="594"/>
      <point x="619" y="594" type="qcurve" smooth="yes"/>
      <point x="692.5" y="594"/>
      <point x="822.094" y="524.625"/>
      <point x="957.656" y="441.375"/>
      <point x="1110.88" y="372"/>
      <point x="1208" y="372" type="qcurve" smooth="yes"/>
      <point x="1304" y="372"/>
      <point x="1459.88" y="436.812"/>
      <point x="1580.62" y="543.688"/>
      <point x="1666.75" y="681.25"/>
      <point x="1693" y="754" type="qcurve"/>
      <point x="1494" y="792" type="line"/>
      <point x="1484.25" y="765.75"/>
      <point x="1441.19" y="692.938"/>
      <point x="1373.31" y="626.562"/>
      <point x="1280" y="580"/>
      <point x="1220" y="580" type="qcurve" smooth="yes"/>
      <point x="1146.5" y="580"/>
      <point x="1016.91" y="649.375"/>
      <point x="881.344" y="732.625"/>
      <point x="728.125" y="802"/>
      <point x="631" y="802" type="qcurve" smooth="yes"/>
      <point x="535" y="802"/>
      <point x="381.969" y="736.625"/>
      <point x="264.781" y="629.375"/>
      <point x="181.875" y="492"/>
    </contour>
  </outline>
</glyph>
<glyph name="sterling" format="2">
  <advance width="2726"/>
  <unicode hex="00A3"/>
  <outline>
    <contour>
      <point x="-94" y="0" type="line"/>
      <point x="2022" y="0" type="line" smooth="yes"/>
      <point x="2209.14" y="0"/>
      <point x="2388.83" y="130.552"/>
      <point x="2416" y="286" type="qcurve" smooth="yes"/>
      <point x="2452" y="492" type="line"/>
      <point x="2196" y="544" type="line"/>
      <point x="2162" y="344" type="line" smooth="yes"/>
      <point x="2152.94" y="291.178"/>
      <point x="2097.82" y="244"/>
      <point x="2045" y="244" type="qcurve" smooth="yes"/>
      <point x="614" y="244" type="line"/>
      <point x="615.509" y="251.546"/>
      <point x="618.491" y="266.454"/>
      <point x="620" y="274" type="qcurve"/>
      <point x="672" y="575" type="line"/>
      <point x="1508" y="575" type="line"/>
      <point x="1568" y="735" type="line"/>
      <point x="700" y="735" type="line"/>
      <point x="758" y="1070" type="line" smooth="yes"/>
      <point x="766.301" y="1122.82"/>
      <point x="821.178" y="1170"/>
      <point x="874" y="1170" type="qcurve" smooth="yes"/>
      <point x="2196" y="1170" type="line" smooth="yes"/>
      <point x="2248.82" y="1170"/>
      <point x="2288.3" y="1122.82"/>
      <point x="2280" y="1070" type="qcurve"/>
      <point x="2249" y="896" type="line"/>
      <point x="2522" y="944" type="line"/>
      <point x="2555" y="1140" type="line" smooth="yes"/>
      <point x="2579.75" y="1287"/>
      <point x="2443.5" y="1414"/>
      <point x="2259" y="1414" type="qcurve" smooth="yes"/>
      <point x="895" y="1414" type="line" smooth="yes"/>
      <point x="712" y="1414"/>
      <point x="530.5" y="1287"/>
      <point x="505" y="1140" type="qcurve" smooth="yes"/>
      <point x="435" y="735" type="line"/>
      <point x="217" y="735" type="line"/>
      <point x="189" y="575" type="line"/>
      <point x="408" y="575" type="line"/>
      <point x="368" y="344" type="line" smooth="yes"/>
      <point x="358.945" y="291.178"/>
      <point x="303.822" y="244"/>
      <point x="251" y="244" type="qcurve" smooth="yes"/>
      <point x="-51" y="244" type="line"/>
    </contour>
  </outline>
  <guideline angle="0" x="0" y="1000"/>
  <guideline angle="90" x="659" y="0"/>
</glyph>
<glyph name="currency" format="2">
  <advance width="2563"/>
  <unicode hex="00A4"/>
  <outline>
    <contour>
      <point x="139" y="-31" type="line"/>
      <point x="454" y="199" type="line"/>
      <point x="475.883" y="194.472"/>
      <point x="527.061" y="190"/>
      <point x="558" y="190" type="qcurve" smooth="yes"/>
      <point x="1834" y="190" type="line" smooth="yes"/>
      <point x="1864.94" y="190"/>
      <point x="1918.85" y="194.472"/>
      <point x="1943" y="199" type="qcurve"/>
      <point x="2177" y="-31" type="line"/>
      <point x="2301" y="92" type="line"/>
      <point x="2092" y="297" type="line"/>
      <point x="2104.83" y="318.883"/>
      <point x="2121.96" y="371.552"/>
      <point x="2128" y="404" type="qcurve" smooth="yes"/>
      <point x="2233" y="1006" type="line" smooth="yes"/>
      <point x="2237.53" y="1034.67"/>
      <point x="2238.28" y="1083.63"/>
      <point x="2233" y="1104" type="qcurve"/>
      <point x="2513" y="1308" type="line"/>
      <point x="2432" y="1431" type="line"/>
      <point x="2117" y="1201" type="line"/>
      <point x="2095.12" y="1205.53"/>
      <point x="2042.94" y="1210"/>
      <point x="2012" y="1210" type="qcurve" smooth="yes"/>
      <point x="736" y="1210" type="line" smooth="yes"/>
      <point x="705.061" y="1210"/>
      <point x="652.393" y="1205.53"/>
      <point x="629" y="1201" type="qcurve"/>
      <point x="394" y="1431" type="line"/>
      <point x="269" y="1308" type="line"/>
      <point x="478" y="1103" type="line"/>
      <point x="465.926" y="1082.63"/>
      <point x="449.528" y="1034.67"/>
      <point x="445" y="1006" type="qcurve" smooth="yes"/>
      <point x="340" y="404" type="line" smooth="yes"/>
      <point x="333.963" y="372.307"/>
      <point x="333.472" y="319.883"/>
      <point x="338" y="298" type="qcurve"/>
      <point x="57" y="92" type="line"/>
    </contour>
    <contour>
      <point x="589" y="414" type="line"/>
      <point x="589" y="414"/>
      <point x="589" y="414"/>
      <point x="589" y="414" type="qcurve"/>
      <point x="689" y="986" type="line"/>
      <point x="689" y="986"/>
      <point x="689" y="986"/>
      <point x="689" y="986" type="qcurve"/>
      <point x="1981" y="986" type="line"/>
      <point x="1981" y="986"/>
      <point x="1981" y="986"/>
      <point x="1981" y="986" type="qcurve"/>
      <point x="1881" y="414" type="line"/>
      <point x="1881" y="414"/>
      <point x="1881" y="414"/>
      <point x="1881" y="414" type="qcurve"/>
    </contour>
  </outline>
</glyph>
<glyph name="yen" format="2">
  <advance width="2537"/>
  <unicode hex="00A5"/>
  <outline>
    <contour>
      <point x="1023" y="0" type="line"/>
      <point x="1287" y="0" type="line"/>
      <point x="1346" y="338" type="line"/>
      <point x="1986" y="338" type="line"/>
      <point x="2014" y="498" type="line"/>
      <point x="1374" y="498" type="line"/>
      <point x="1393" y="608" type="line"/>
      <point x="2033" y="608" type="line"/>
      <point x="2061" y="768" type="line"/>
      <point x="1647" y="768" type="line"/>
      <point x="2663" y="1400" type="line"/>
      <point x="2249" y="1400" type="line"/>
      <point x="1309" y="806" type="line"/>
      <point x="575" y="1400" type="line"/>
      <point x="127" y="1400" type="line"/>
      <point x="931" y="768" type="line"/>
      <point x="510" y="768" type="line"/>
      <point x="482" y="608" type="line"/>
      <point x="1129" y="608" type="line"/>
      <point x="1129" y="608" type="line"/>
      <point x="1110" y="498" type="line"/>
      <point x="463" y="498" type="line"/>
      <point x="435" y="338" type="line"/>
      <point x="1082" y="338" type="line"/>
    </contour>
  </outline>
</glyph>
<glyph name="section" format="2">
  <advance width="2167"/>
  <unicode hex="00A7"/>
  <outline>
    <contour>
      <point x="424" y="-135" type="qcurve" smooth="yes"/>
      <point x="1463" y="-135" type="line" smooth="yes"/>
      <point x="1579.21" y="-135"/>
      <point x="1723.12" y="-57.7728"/>
      <point x="1745" y="69" type="qcurve" smooth="yes"/>
      <point x="1783" y="289" type="line"/>
      <point x="1786.02" y="302.583"/>
      <point x="1787.25" y="326.681"/>
      <point x="1788" y="338" type="qcurve"/>
      <point x="1807.5" y="351.125"/>
      <point x="1840.38" y="385.938"/>
      <point x="1866.62" y="430.562"/>
      <point x="1886" y="485.625"/>
      <point x="1892" y="519" type="qcurve" smooth="yes"/>
      <point x="1936" y="774" type="line" smooth="yes"/>
      <point x="1957.88" y="899.264"/>
      <point x="1838.17" y="994"/>
      <point x="1728" y="994" type="qcurve" smooth="yes"/>
      <point x="649" y="994" type="line"/>
      <point x="649" y="994"/>
      <point x="649" y="994"/>
      <point x="649" y="994" type="qcurve"/>
      <point x="685" y="1196" type="line"/>
      <point x="685" y="1196"/>
      <point x="685" y="1196"/>
      <point x="685" y="1196" type="qcurve"/>
      <point x="1708" y="1196" type="line"/>
      <point x="1708" y="1196"/>
      <point x="1708" y="1196"/>
      <point x="1708" y="1196" type="qcurve"/>
      <point x="1692" y="1106" type="line"/>
      <point x="1920" y="1150" type="line"/>
      <point x="1929" y="1204" type="line" smooth="yes"/>
      <point x="1950.13" y="1326.25"/>
      <point x="1827.17" y="1400"/>
      <point x="1717" y="1400" type="qcurve" smooth="yes"/>
      <point x="744" y="1400" type="line" smooth="yes"/>
      <point x="635.338" y="1400"/>
      <point x="487.129" y="1326.25"/>
      <point x="466" y="1204" type="qcurve" smooth="yes"/>
      <point x="430" y="996" type="line" smooth="yes"/>
      <point x="428.491" y="988.454"/>
      <point x="426" y="973.546"/>
      <point x="426" y="966" type="qcurve"/>
      <point x="396.375" y="958.125"/>
      <point x="346.5" y="930.219"/>
      <point x="307.5" y="886.531"/>
      <point x="280.125" y="825.25"/>
      <point x="273" y="784" type="qcurve" smooth="yes"/>
      <point x="221" y="487" type="line" smooth="yes"/>
      <point x="199.117" y="360.227"/>
      <point x="314.301" y="281"/>
      <point x="429" y="281" type="qcurve" smooth="yes"/>
      <point x="1562" y="281" type="line"/>
      <point x="1562" y="281"/>
      <point x="1562" y="281"/>
      <point x="1562" y="281" type="qcurve"/>
      <point x="1525" y="69" type="line"/>
      <point x="1525" y="69"/>
      <point x="1525" y="69"/>
      <point x="1525" y="69" type="qcurve"/>
      <point x="436" y="69" type="line"/>
      <point x="436" y="69"/>
      <point x="436" y="69"/>
      <point x="436" y="69" type="qcurve"/>
      <point x="454" y="173" type="line"/>
      <point x="226" y="127" type="line"/>
      <point x="216" y="69" type="line" smooth="yes"/>
      <point x="194.117" y="-57.7728"/>
      <point x="309.301" y="-135"/>
    </contour>
    <contour>
      <point x="441" y="485" type="line"/>
      <point x="441" y="485"/>
      <point x="441" y="485"/>
      <point x="441" y="485" type="qcurve"/>
      <point x="494" y="790" type="line"/>
      <point x="494" y="790"/>
      <point x="494" y="790"/>
      <point x="494" y="790" type="qcurve"/>
      <point x="1719" y="790" type="line"/>
      <point x="1719" y="790"/>
      <point x="1719" y="790"/>
      <point x="1719" y="790" type="qcurve"/>
      <point x="1666" y="485" type="line"/>
      <point x="1666" y="485"/>
      <point x="1666" y="485"/>
      <point x="1666" y="485" type="qcurve"/>
    </contour>
  </outline>
</glyph>
<glyph name="acute" format="2">
  <advance width="1074"/>
  <unicode hex="00B4"/>
  <outline>
    <contour>
      <point x="50" y="1085" type="line"/>
      <point x="359" y="1085" type="line"/>
      <point x="1024" y="1448" type="line"/>
      <point x="683" y="1448" type="line"/>
    </contour>
  </outline>
</glyph>
<glyph name="ordmasculine" format="2">
  <advance width="1529"/>
  <unicode hex="00BA"/>
  <outline>
    <contour>
      <point x="238" y="924" type="line" smooth="yes"/>
      <point x="224.417" y="844.012"/>
      <point x="293.43" y="776"/>
      <point x="387" y="776" type="qcurve" smooth="yes"/>
      <point x="1178" y="776" type="line" smooth="yes"/>
      <point x="1272.33" y="776"/>
      <point x="1363.42" y="844.012"/>
      <point x="1377" y="924" type="qcurve" smooth="yes"/>
      <point x="1444" y="1308" type="line" smooth="yes"/>
      <point x="1457.58" y="1381.95"/>
      <point x="1387.82" y="1448"/>
      <point x="1295" y="1448" type="qcurve" smooth="yes"/>
      <point x="504" y="1448" type="line" smooth="yes"/>
      <point x="411.184" y="1448"/>
      <point x="318.583" y="1381.95"/>
      <point x="305" y="1308" type="qcurve" smooth="yes"/>
    </contour>
    <contour>
      <point x="442" y="945" type="qcurve"/>
      <point x="500" y="1279" type="line"/>
      <point x="500" y="1279"/>
      <point x="500" y="1279"/>
      <point x="500" y="1279" type="qcurve"/>
      <point x="1239" y="1279" type="line"/>
      <point x="1239" y="1279"/>
      <point x="1239" y="1279"/>
      <point x="1239" y="1279" type="qcurve"/>
      <point x="1181" y="945" type="line"/>
      <point x="1181" y="945"/>
      <point x="1181" y="945"/>
      <point x="1181" y="945" type="qcurve"/>
      <point x="442" y="945" type="line"/>
      <point x="442" y="945"/>
      <point x="442" y="945"/>
    </contour>
  </outline>
</glyph>
<glyph name="Agrave" format="2">
  <advance width="2696"/>
  <unicode hex="00C0"/>
  <anchor x="1495" y="1550" name="top"/>
  <anchor x="1202" y="-150" name="bottom"/>
  <anchor x="2245" y="0" name="ogonek_in"/>
  <anchor x="1728" y="1485" name="topright"/>
  <outline>
    <contour>
      <point x="-120" y="0" type="line"/>
      <point x="207" y="0" type="line"/>
      <point x="566" y="336" type="line"/>
      <point x="2009" y="336" type="line"/>
      <point x="2251" y="0" type="line"/>
      <point x="2576" y="0" type="line"/>
      <point x="1565" y="1400" type="line"/>
      <point x="1359" y="1400" type="line"/>
    </contour>
    <contour>
      <point x="800" y="556" type="line"/>
      <point x="1427" y="1144" type="line"/>
      <point x="1851" y="556" type="line"/>
    </contour>
    <contour>
      <point x="1435" y="1485" type="line"/>
      <point x="1728" y="1485" type="line"/>
      <point x="1249" y="1800" type="line"/>
      <point x="894" y="1800" type="line"/>
    </contour>
  </outline>
</glyph>
<glyph name="Eacute" format="2">
  <advance width="2488"/>
  <unicode hex="00C9"/>
  <anchor x="1470" y="1550" name="top"/>
  <anchor x="1173" y="-150" name="bottom"/>
  <anchor x="2099" y="0" name="ogonek"/>
  <anchor x="1215" y="1485" name="topright"/>
  <outline>
    <contour>
      <point x="193" y="0" type="line"/>
      <point x="2211" y="0" type="line"/>
      <point x="2254" y="244" type="line"/>
      <point x="500" y="244" type="line"/>
      <point x="561" y="596" type="line"/>
      <point x="1599" y="596" type="line"/>
      <point x="1642" y="840" type="line"/>
      <point x="604" y="840" type="line"/>
      <point x="659" y="1156" type="line"/>
      <point x="2379" y="1156" type="line"/>
      <point x="2421" y="1400" type="line"/>
      <point x="437" y="1400" type="line"/>
    </contour>
    <contour>
      <point x="1161" y="1485" type="line"/>
      <point x="1508" y="1485" type="line"/>
      <point x="2160" y="1800" type="line"/>
      <point x="1751" y="1800" type="line"/>
    </contour>
  </outline>
  <guideline angle="90" x="-277" y="0"/>
</glyph>
<glyph name="Ecircumflex" format="2">
  <advance width="2488"/>
  <unicode hex="00CA"/>
  <anchor x="1529" y="1880" name="top"/>
  <anchor x="1173" y="-150" name="bottom"/>
  <anchor x="2099" y="0" name="ogonek"/>
  <anchor x="2092" y="1585" name="topright"/>
  <outline>
    <contour>
      <point x="193" y="0" type="line"/>
      <point x="2211" y="0" type="line"/>
      <point x="2254" y="244" type="line"/>
      <point x="500" y="244" type="line"/>
      <point x="561" y="596" type="line"/>
      <point x="1599" y="596" type="line"/>
      <point x="1642" y="840" type="line"/>
      <point x="604" y="840" type="line"/>
      <point x="659" y="1156" type="line"/>
      <point x="2379" y="1156" type="line"/>
      <point x="2421" y="1400" type="line"/>
      <point x="437" y="1400" type="line"/>
    </contour>
    <contour>
      <point x="848" y="1485" type="line"/>
      <point x="1197" y="1485" type="line"/>
      <point x="1511" y="1706" type="line"/>
      <point x="1767" y="1485" type="line"/>
      <point x="2074" y="1485" type="line"/>
      <point x="1661" y="1800" type="line"/>
      <point x="1371" y="1800" type="line"/>
    </contour>
  </outline>
  <guideline angle="90" x="-277" y="0"/>
</glyph>
<glyph name="Iacute" format="2">
  <advance width="884"/>
  <unicode hex="00CD"/>
  <anchor x="593" y="1550" name="top"/>
  <anchor x="296" y="-150" name="bottom"/>
  <anchor x="455" y="0" name="ogonek"/>
  <anchor x="338" y="1485" name="topright"/>
  <outline>
    <contour>
      <point x="193" y="0" type="line"/>
      <point x="457" y="0" type="line"/>
      <point x="701" y="1400" type="line"/>
      <point x="437" y="1400" type="line"/>
    </contour>
    <contour>
      <point x="284" y="1485" type="line"/>
      <point x="631" y="1485" type="line"/>
      <point x="1283" y="1800" type="line"/>
      <point x="874" y="1800" type="line"/>
    </contour>
  </outline>
</glyph>
<glyph name="Icircumflex" format="2">
  <advance width="884"/>
  <unicode hex="00CE"/>
  <anchor x="652" y="1880" name="top"/>
  <anchor x="296" y="-150" name="bottom"/>
  <anchor x="455" y="0" name="ogonek"/>
  <anchor x="1215" y="1585" name="topright"/>
  <outline>
    <contour>
      <point x="193" y="0" type="line"/>
      <point x="457" y="0" type="line"/>
      <point x="701" y="1400" type="line"/>
      <point x="437" y="1400" type="line"/>
    </contour>
    <contour>
      <point x="-29" y="1485" type="line"/>
      <point x="320" y="1485" type="line"/>
      <point x="634" y="1706" type="line"/>
      <point x="890" y="1485" type="line"/>
      <point x="1197" y="1485" type="line"/>
      <point x="784" y="1800" type="line"/>
      <point x="494" y="1800" type="line"/>
    </contour>
  </outline>
</glyph>
<glyph name="Idieresis" format="2">
  <advance width="884"/>
  <unicode hex="00CF"/>
  <anchor x="655" y="1900" name="top"/>
  <anchor x="296" y="-150" name="bottom"/>
  <anchor x="455" y="0" name="ogonek"/>
  <outline>
    <contour>
      <point x="193" y="0" type="line"/>
      <point x="457" y="0" type="line"/>
      <point x="701" y="1400" type="line"/>
      <point x="437" y="1400" type="line"/>
    </contour>
    <contour>
      <point x="301" y="1540" type="qcurve" smooth="yes"/>
      <point x="371" y="1540" type="line" smooth="yes"/>
      <point x="437.405" y="1540"/>
      <point x="465.681" y="1563.6"/>
      <point x="477" y="1630" type="qcurve" smooth="yes"/>
      <point x="490" y="1702" type="line" smooth="yes"/>
      <point x="501.319" y="1766.9"/>
      <point x="482.405" y="1790"/>
      <point x="416" y="1790" type="qcurve" smooth="yes"/>
      <point x="346" y="1790" type="line" smooth="yes"/>
      <point x="279.595" y="1790"/>
      <point x="251.319" y="1766.9"/>
      <point x="240" y="1702" type="qcurve" smooth="yes"/>
      <point x="227" y="1630" type="line" smooth="yes"/>
      <point x="215.681" y="1563.6"/>
      <point x="234.595" y="1540"/>
    </contour>
    <contour>
      <point x="811" y="1540" type="qcurve" smooth="yes"/>
      <point x="881" y="1540" type="line" smooth="yes"/>
      <point x="947.405" y="1540"/>
      <point x="975.681" y="1563.6"/>
      <point x="987" y="1630" type="qcurve" smooth="yes"/>
      <point x="1000" y="1702" type="line" smooth="yes"/>
      <point x="1011.32" y="1766.9"/>
      <point x="992.405" y="1790"/>
      <point x="926" y="1790" type="qcurve" smooth="yes"/>
      <point x="856" y="1790" type="line" smooth="yes"/>
      <point x="789.595" y="1790"/>
      <point x="761.319" y="1766.9"/>
      <point x="750" y="1702" type="qcurve" smooth="yes"/>
      <point x="737" y="1630" type="line" smooth="yes"/>
      <point x="725.681" y="1563.6"/>
      <point x="744.595" y="1540"/>
    </contour>
  </outline>
</glyph>
<glyph name="multiply" format="2">
  <advance width="1880"/>
  <unicode hex="00D7"/>
  <outline>
    <contour>
      <point x="255" y="58" type="line"/>
      <point x="916" y="462" type="line"/>
      <point x="1437" y="58" type="line"/>
      <point x="1568" y="215" type="line"/>
      <point x="1105" y="575" type="line"/>
      <point x="1688" y="934" type="line"/>
      <point x="1592" y="1114" type="line"/>
      <point x="937" y="710" type="line"/>
      <point x="412" y="1114" type="line"/>
      <point x="280" y="957" type="line"/>
      <point x="747" y="598" type="line"/>
      <point x="160" y="239" type="line"/>
    </contour>
  </outline>
  <guideline angle="31.4487" color="1,0,0,1" x="256" y="58"/>
  <guideline angle="322.156" color="1,0,0,1" x="295" y="946"/>
  <guideline angle="0" x="0" y="1114"/>
</glyph>
<glyph name="Yacute" format="2">
  <advance width="2537"/>
  <unicode hex="00DD"/>
  <anchor x="1484" y="1550" name="top"/>
  <anchor x="1129" y="-150" name="bottom"/>
  <anchor x="1229" y="1485" name="topright"/>
  <outline>
    <contour>
      <point x="1023" y="0" type="line"/>
      <point x="1287" y="0" type="line"/>
      <point x="1393" y="610" type="line"/>
      <point x="2663" y="1400" type="line"/>
      <point x="2256" y="1400" type="line"/>
      <point x="1287" y="789" type="line"/>
      <point x="534" y="1400" type="line"/>
      <point x="127" y="1400" type="line"/>
      <point x="1130" y="612" type="line"/>
    </contour>
    <contour>
      <point x="1175" y="1485" type="line"/>
      <point x="1522" y="1485" type="line"/>
      <point x="2174" y="1800" type="line"/>
      <point x="1765" y="1800" type="line"/>
    </contour>
  </outline>
  <guideline angle="260.1" color="1,0,0,1" x="1213" y="-0"/>
</glyph>
<glyph name="Thorn" format="2">
  <advance width="2812"/>
  <unicode hex="00DE"/>
  <outline>
    <contour>
      <point x="153" y="0" type="line"/>
      <point x="417" y="0" type="line"/>
      <point x="467" y="285" type="line"/>
      <point x="2141" y="285" type="line" smooth="yes"/>
      <point x="2313.5" y="285"/>
      <point x="2507.5" y="414.5"/>
      <point x="2530" y="545" type="qcurve" smooth="yes"/>
      <point x="2589" y="883" type="line" smooth="yes"/>
      <point x="2619" y="1054"/>
      <point x="2444.5" y="1157"/>
      <point x="2293" y="1157" type="qcurve" smooth="yes"/>
      <point x="619" y="1157" type="line"/>
      <point x="661" y="1400" type="line"/>
      <point x="397" y="1400" type="line"/>
    </contour>
    <contour>
      <point x="509" y="529" type="line"/>
      <point x="576" y="913" type="line"/>
      <point x="2224" y="913" type="line" smooth="yes"/>
      <point x="2276.82" y="913"/>
      <point x="2322.06" y="865.822"/>
      <point x="2313" y="813" type="qcurve" smooth="yes"/>
      <point x="2281" y="629" type="line" smooth="yes"/>
      <point x="2270.44" y="568.632"/>
      <point x="2209.82" y="529"/>
      <point x="2157" y="529" type="qcurve" smooth="yes"/>
    </contour>
  </outline>
  <guideline angle="90" color="0.4,0.4,0.4,1" name="halfwidth" x="1406" y="0"/>
</glyph>
<glyph name="adieresis" format="2">
  <advance width="2089"/>
  <unicode hex="00E4"/>
  <anchor x="1184" y="1490" name="top"/>
  <anchor x="891" y="-150" name="bottom"/>
  <anchor x="1674" y="0" name="ogonek"/>
  <outline>
    <contour>
      <point x="374" y="-10" type="qcurve" smooth="yes"/>
      <point x="1198" y="-10" type="line" smooth="yes"/>
      <point x="1288.55" y="-10"/>
      <point x="1445.74" y="57.9388"/>
      <point x="1488" y="150" type="qcurve"/>
      <point x="1462" y="0" type="line"/>
      <point x="1710" y="0" type="line"/>
      <point x="1852" y="814" type="line" smooth="yes"/>
      <point x="1873.13" y="937.754"/>
      <point x="1750.17" y="1010"/>
      <point x="1640" y="1010" type="qcurve" smooth="yes"/>
      <point x="566" y="1010" type="line" smooth="yes"/>
      <point x="455.828" y="1010"/>
      <point x="307.129" y="937.754"/>
      <point x="286" y="814" type="qcurve" smooth="yes"/>
      <point x="275" y="754" type="line"/>
      <point x="515" y="708" type="line"/>
      <point x="532" y="806" type="line"/>
      <point x="532" y="806"/>
      <point x="532" y="806"/>
      <point x="532" y="806" type="qcurve"/>
      <point x="1602" y="806" type="line"/>
      <point x="1602" y="806"/>
      <point x="1602" y="806"/>
      <point x="1602" y="806" type="qcurve"/>
      <point x="1566" y="598" type="line"/>
      <point x="520" y="598" type="line" smooth="yes"/>
      <point x="410.5" y="598"/>
      <point x="221.75" y="527"/>
      <point x="200" y="404" type="qcurve" smooth="yes"/>
      <point x="163" y="194" type="line" smooth="yes"/>
      <point x="141.117" y="67.2272"/>
      <point x="257.792" y="-10"/>
    </contour>
    <contour>
      <point x="411" y="194" type="qcurve"/>
      <point x="446" y="394" type="line"/>
      <point x="446" y="394"/>
      <point x="446" y="394"/>
      <point x="446" y="394" type="qcurve"/>
      <point x="1530" y="394" type="line"/>
      <point x="1495" y="194" type="line"/>
      <point x="411" y="194" type="line"/>
      <point x="411" y="194"/>
      <point x="411" y="194"/>
    </contour>
    <contour>
      <point x="864" y="1150" type="qcurve" smooth="yes"/>
      <point x="924" y="1150" type="line" smooth="yes"/>
      <point x="990.405" y="1150"/>
      <point x="1018.68" y="1173.6"/>
      <point x="1030" y="1240" type="qcurve" smooth="yes"/>
      <point x="1041" y="1302" type="line" smooth="yes"/>
      <point x="1052.32" y="1366.9"/>
      <point x="1033.4" y="1390"/>
      <point x="967" y="1390" type="qcurve" smooth="yes"/>
      <point x="907" y="1390" type="line" smooth="yes"/>
      <point x="840.595" y="1390"/>
      <point x="812.319" y="1366.9"/>
      <point x="801" y="1302" type="qcurve" smooth="yes"/>
      <point x="790" y="1240" type="line" smooth="yes"/>
      <point x="778.681" y="1173.6"/>
      <point x="797.595" y="1150"/>
    </contour>
    <contour>
      <point x="1324" y="1150" type="qcurve" smooth="yes"/>
      <point x="1384" y="1150" type="line" smooth="yes"/>
      <point x="1450.4" y="1150"/>
      <point x="1478.68" y="1173.6"/>
      <point x="1490" y="1240" type="qcurve" smooth="yes"/>
      <point x="1501" y="1302" type="line" smooth="yes"/>
      <point x="1512.32" y="1366.9"/>
      <point x="1493.4" y="1390"/>
      <point x="1427" y="1390" type="qcurve" smooth="yes"/>
      <point x="1367" y="1390" type="line" smooth="yes"/>
      <point x="1300.6" y="1390"/>
      <point x="1272.32" y="1366.9"/>
      <point x="1261" y="1302" type="qcurve" smooth="yes"/>
      <point x="1250" y="1240" type="line" smooth="yes"/>
      <point x="1238.68" y="1173.6"/>
      <point x="1257.6" y="1150"/>
    </contour>
  </outline>
  <guideline angle="260.1" color="1,0,0,1" x="1462" y="-0"/>
</glyph>
<glyph name="igrave" format="2">
  <advance width="786"/>
  <unicode hex="00EC"/>
  <anchor x="248" y="-150" name="bottom"/>
  <anchor x="475" y="1150" name="top"/>
  <anchor x="367" y="0" name="ogonek"/>
  <outline>
    <contour>
      <point x="152" y="0" type="line"/>
      <point x="396" y="0" type="line"/>
      <point x="571" y="1000" type="line"/>
      <point x="327" y="1000" type="line"/>
    </contour>
    <contour>
      <point x="464" y="1085" type="line"/>
      <point x="731" y="1085" type="line"/>
      <point x="226" y="1448" type="line"/>
      <point x="-73" y="1448" type="line"/>
    </contour>
  </outline>
</glyph>
<glyph name="oacute" format="2">
  <advance width="2204"/>
  <unicode hex="00F3"/>
  <anchor x="1183" y="1150" name="top"/>
  <anchor x="956" y="-150" name="bottom"/>
  <anchor x="1967" y="800" name="horn"/>
  <anchor x="1091" y="0" name="ogonek"/>
  <outline>
    <contour>
      <point x="176" y="204" type="line" smooth="yes"/>
      <point x="155.626" y="87.7916"/>
      <point x="256.154" y="-10"/>
      <point x="395" y="-10" type="qcurve" smooth="yes"/>
      <point x="1571" y="-10" type="line" smooth="yes"/>
      <point x="1711.36" y="-10"/>
      <point x="1843.63" y="87.7916"/>
      <point x="1864" y="204" type="qcurve" smooth="yes"/>
      <point x="1969" y="806" type="line" smooth="yes"/>
      <point x="1987.87" y="914.662"/>
      <point x="1886.34" y="1010"/>
      <point x="1749" y="1010" type="qcurve" smooth="yes"/>
      <point x="573" y="1010" type="line" smooth="yes"/>
      <point x="435.663" y="1010"/>
      <point x="299.865" y="914.662"/>
      <point x="281" y="806" type="qcurve" smooth="yes"/>
    </contour>
    <contour>
      <point x="426" y="214" type="qcurve"/>
      <point x="526" y="786" type="line"/>
      <point x="526" y="786"/>
      <point x="526" y="786"/>
      <point x="526" y="786" type="qcurve"/>
      <point x="1718" y="786" type="line"/>
      <point x="1718" y="786"/>
      <point x="1718" y="786"/>
      <point x="1718" y="786" type="qcurve"/>
      <point x="1618" y="214" type="line"/>
      <point x="1618" y="214"/>
      <point x="1618" y="214"/>
      <point x="1618" y="214" type="qcurve"/>
      <point x="426" y="214" type="line"/>
      <point x="426" y="214"/>
      <point x="426" y="214"/>
    </contour>
    <contour>
      <point x="872" y="1085" type="line"/>
      <point x="1181" y="1085" type="line"/>
      <point x="1846" y="1448" type="line"/>
      <point x="1505" y="1448" type="line"/>
    </contour>
  </outline>
</glyph>
<glyph name="ucircumflex" format="2">
  <advance width="2109"/>
  <unicode hex="00FB"/>
  <anchor x="1208" y="1548" name="top"/>
  <anchor x="909" y="-160" name="bottom"/>
  <anchor x="1044" y="0" name="ogonek"/>
  <anchor x="1903" y="1000" name="horn"/>
  <anchor x="1742" y="1267" name="topright"/>
  <outline>
    <contour>
      <point x="178" y="194" type="line" smooth="yes"/>
      <point x="156.117" y="67.2272"/>
      <point x="271.301" y="-10"/>
      <point x="386" y="-10" type="qcurve" smooth="yes"/>
      <point x="1478" y="-10" type="line" smooth="yes"/>
      <point x="1592.7" y="-10"/>
      <point x="1738.12" y="67.2272"/>
      <point x="1760" y="194" type="qcurve" smooth="yes"/>
      <point x="1901" y="1000" type="line"/>
      <point x="1653" y="1000" type="line"/>
      <point x="1515" y="214" type="line"/>
      <point x="1515" y="214"/>
      <point x="1515" y="214"/>
      <point x="1515" y="214" type="qcurve"/>
      <point x="429" y="214" type="line"/>
      <point x="429" y="214"/>
      <point x="429" y="214"/>
      <point x="429" y="214" type="qcurve"/>
      <point x="567" y="1000" type="line"/>
      <point x="319" y="1000" type="line"/>
    </contour>
    <contour>
      <point x="544" y="1085" type="line"/>
      <point x="852" y="1085" type="line"/>
      <point x="1184" y="1325" type="line"/>
      <point x="1442" y="1085" type="line"/>
      <point x="1710" y="1085" type="line"/>
      <point x="1281" y="1448" type="line"/>
      <point x="1101" y="1448" type="line"/>
    </contour>
  </outline>
</glyph>
<glyph name="udieresis" format="2">
  <advance width="2109"/>
  <unicode hex="00FC"/>
  <anchor x="1198" y="1490" name="top"/>
  <anchor x="909" y="-160" name="bottom"/>
  <anchor x="1044" y="0" name="ogonek"/>
  <anchor x="1903" y="1000" name="horn"/>
  <outline>
    <contour>
      <point x="178" y="194" type="line" smooth="yes"/>
      <point x="156.117" y="67.2272"/>
      <point x="271.301" y="-10"/>
      <point x="386" y="-10" type="qcurve" smooth="yes"/>
      <point x="1478" y="-10" type="line" smooth="yes"/>
      <point x="1592.7" y="-10"/>
      <point x="1738.12" y="67.2272"/>
      <point x="1760" y="194" type="qcurve" smooth="yes"/>
      <point x="1901" y="1000" type="line"/>
      <point x="1653" y="1000" type="line"/>
      <point x="1515" y="214" type="line"/>
      <point x="1515" y="214"/>
      <point x="1515" y="214"/>
      <point x="1515" y="214" type="qcurve"/>
      <point x="429" y="214" type="line"/>
      <point x="429" y="214"/>
      <point x="429" y="214"/>
      <point x="429" y="214" type="qcurve"/>
      <point x="567" y="1000" type="line"/>
      <point x="319" y="1000" type="line"/>
    </contour>
    <contour>
      <point x="878" y="1150" type="qcurve" smooth="yes"/>
      <point x="938" y="1150" type="line" smooth="yes"/>
      <point x="1004.4" y="1150"/>
      <point x="1032.68" y="1173.6"/>
      <point x="1044" y="1240" type="qcurve" smooth="yes"/>
      <point x="1055" y="1302" type="line" smooth="yes"/>
      <point x="1066.32" y="1366.9"/>
      <point x="1047.4" y="1390"/>
      <point x="981" y="1390" type="qcurve" smooth="yes"/>
      <point x="921" y="1390" type="line" smooth="yes"/>
      <point x="854.595" y="1390"/>
      <point x="826.319" y="1366.9"/>
      <point x="815" y="1302" type="qcurve" smooth="yes"/>
      <point x="804" y="1240" type="line" smooth="yes"/>
      <point x="792.681" y="1173.6"/>
      <point x="811.595" y="1150"/>
    </contour>
    <contour>
      <point x="1338" y="1150" type="qcurve" smooth="yes"/>
      <point x="1398" y="1150" type="line" smooth="yes"/>
      <point x="1464.4" y="1150"/>
      <point x="1492.68" y="1173.6"/>
      <point x="1504" y="1240" type="qcurve" smooth="yes"/>
      <point x="1515" y="1302" type="line" smooth="yes"/>
      <point x="1526.32" y="1366.9"/>
      <point x="1507.4" y="1390"/>
      <point x="1441" y="1390" type="qcurve" smooth="yes"/>
      <point x="1381" y="1390" type="line" smooth="yes"/>
      <point x="1314.6" y="1390"/>
      <point x="1286.32" y="1366.9"/>
      <point x="1275" y="1302" type="qcurve" smooth="yes"/>
      <point x="1264" y="1240" type="line" smooth="yes"/>
      <point x="1252.68" y="1173.6"/>
      <point x="1271.6" y="1150"/>
    </contour>
  </outline>
</glyph>
<glyph name="Amacron" format="2">
  <advance width="2696"/>
  <unicode hex="0100"/>
  <anchor x="1548" y="1850" name="top"/>
  <anchor x="1202" y="-150" name="bottom"/>
  <anchor x="2245" y="0" name="ogonek_in"/>
  <outline>
    <contour>
      <point x="-120" y="0" type="line"/>
      <point x="207" y="0" type="line"/>
      <point x="566" y="336" type="line"/>
      <point x="2009" y="336" type="line"/>
      <point x="2251" y="0" type="line"/>
      <point x="2576" y="0" type="line"/>
      <point x="1565" y="1400" type="line"/>
      <point x="1359" y="1400" type="line"/>
    </contour>
    <contour>
      <point x="800" y="556" type="line"/>
      <point x="1427" y="1144" type="line"/>
      <point x="1851" y="556" type="line"/>
    </contour>
    <contour>
      <point x="1019" y="1580" type="line"/>
      <point x="1982" y="1580" type="line"/>
      <point x="2012" y="1750" type="line"/>
      <point x="1049" y="1750" type="line"/>
    </contour>
  </outline>
</glyph>
<glyph name="Ccaron" format="2">
  <advance width="2722"/>
  <unicode hex="010C"/>
  <anchor x="1563" y="1880" name="top"/>
  <anchor x="1259" y="-150" name="bottom"/>
  <anchor x="914" y="1700" name="topright"/>
  <outline>
    <contour>
      <point x="376" y="1140" type="qcurve" smooth="yes"/>
      <point x="224" y="272" type="line" smooth="yes"/>
      <point x="196.834" y="116.552"/>
      <point x="328.859" y="-14"/>
      <point x="516" y="-14" type="qcurve" smooth="yes"/>
      <point x="2008" y="-14" type="line" smooth="yes"/>
      <point x="2195.14" y="-14"/>
      <point x="2374.83" y="116.552"/>
      <point x="2402" y="272" type="qcurve" smooth="yes"/>
      <point x="2438" y="478" type="line"/>
      <point x="2183" y="530" type="line"/>
      <point x="2131" y="230" type="line"/>
      <point x="2131" y="230"/>
      <point x="2131" y="230"/>
      <point x="2131" y="230" type="qcurve"/>
      <point x="481" y="230" type="line"/>
      <point x="481" y="230"/>
      <point x="481" y="230"/>
      <point x="481" y="230" type="qcurve"/>
      <point x="645" y="1170" type="line"/>
      <point x="645" y="1170"/>
      <point x="645" y="1170"/>
      <point x="645" y="1170" type="qcurve"/>
      <point x="2287" y="1170" type="line"/>
      <point x="2287" y="1170"/>
      <point x="2287" y="1170"/>
      <point x="2287" y="1170" type="qcurve"/>
      <point x="2239" y="896" type="line"/>
      <point x="2512" y="944" type="line"/>
      <point x="2546" y="1140" type="line" smooth="yes"/>
      <point x="2571.5" y="1287"/>
      <point x="2434.5" y="1414"/>
      <point x="2250" y="1414" type="qcurve" smooth="yes"/>
      <point x="766" y="1414" type="line" smooth="yes"/>
      <point x="583" y="1414"/>
      <point x="401.5" y="1287"/>
    </contour>
    <contour>
      <point x="2158" y="1800" type="line"/>
      <point x="1809" y="1800" type="line"/>
      <point x="1495" y="1579" type="line"/>
      <point x="1239" y="1800" type="line"/>
      <point x="932" y="1800" type="line"/>
      <point x="1345" y="1485" type="line"/>
      <point x="1635" y="1485" type="line"/>
    </contour>
  </outline>
</glyph>
<glyph name="Emacron" format="2">
  <advance width="2488"/>
  <unicode hex="0112"/>
  <anchor x="1523" y="1850" name="top"/>
  <anchor x="1173" y="-150" name="bottom"/>
  <anchor x="2099" y="0" name="ogonek"/>
  <outline>
    <contour>
      <point x="193" y="0" type="line"/>
      <point x="2211" y="0" type="line"/>
      <point x="2254" y="244" type="line"/>
      <point x="500" y="244" type="line"/>
      <point x="561" y="596" type="line"/>
      <point x="1599" y="596" type="line"/>
      <point x="1642" y="840" type="line"/>
      <point x="604" y="840" type="line"/>
      <point x="659" y="1156" type="line"/>
      <point x="2379" y="1156" type="line"/>
      <point x="2421" y="1400" type="line"/>
      <point x="437" y="1400" type="line"/>
    </contour>
    <contour>
      <point x="994" y="1580" type="line"/>
      <point x="1957" y="1580" type="line"/>
      <point x="1987" y="1750" type="line"/>
      <point x="1024" y="1750" type="line"/>
    </contour>
  </outline>
  <guideline angle="90" x="-277" y="0"/>
</glyph>
<glyph name="Ebreve" format="2">
  <advance width="2488"/>
  <unicode hex="0114"/>
  <anchor x="1532" y="1900" name="top"/>
  <anchor x="1173" y="-150" name="bottom"/>
  <anchor x="2099" y="0" name="ogonek"/>
  <outline>
    <contour>
      <point x="193" y="0" type="line"/>
      <point x="2211" y="0" type="line"/>
      <point x="2254" y="244" type="line"/>
      <point x="500" y="244" type="line"/>
      <point x="561" y="596" type="line"/>
      <point x="1599" y="596" type="line"/>
      <point x="1642" y="840" type="line"/>
      <point x="604" y="840" type="line"/>
      <point x="659" y="1156" type="line"/>
      <point x="2379" y="1156" type="line"/>
      <point x="2421" y="1400" type="line"/>
      <point x="437" y="1400" type="line"/>
    </contour>
    <contour>
      <point x="1483" y="1510" type="qcurve" smooth="yes"/>
      <point x="1590.25" y="1510"/>
      <point x="1742.09" y="1534.25"/>
      <point x="1844.66" y="1598.75"/>
      <point x="1904.62" y="1711.5"/>
      <point x="1920" y="1800" type="qcurve"/>
      <point x="1751" y="1800" type="line"/>
      <point x="1744.62" y="1762.88"/>
      <point x="1708.38" y="1715.78"/>
      <point x="1644.62" y="1688.97"/>
      <point x="1551.38" y="1679"/>
      <point x="1488" y="1679" type="qcurve" smooth="yes"/>
      <point x="1424.62" y="1679"/>
      <point x="1338.06" y="1688.97"/>
      <point x="1287.44" y="1715.78"/>
      <point x="1270.62" y="1762.88"/>
      <point x="1277" y="1800" type="qcurve"/>
      <point x="1108" y="1800" type="line"/>
      <point x="1092.62" y="1711.5"/>
      <point x="1125.53" y="1598.75"/>
      <point x="1220.22" y="1534.25"/>
      <point x="1375.75" y="1510"/>
    </contour>
  </outline>
  <guideline angle="90" x="-277" y="0"/>
</glyph>
<glyph name="Edotaccent" format="2">
  <advance width="2491"/>
  <unicode hex="0116"/>
  <anchor x="1531" y="1879" name="top"/>
  <anchor x="1176" y="-150" name="bottom"/>
  <anchor x="2102" y="0" name="ogonek"/>
  <outline>
    <contour>
      <point x="193" y="0" type="line"/>
      <point x="2211" y="0" type="line"/>
      <point x="2254" y="244" type="line"/>
      <point x="500" y="244" type="line"/>
      <point x="561" y="596" type="line"/>
      <point x="1599" y="596" type="line"/>
      <point x="1642" y="840" type="line"/>
      <point x="604" y="840" type="line"/>
      <point x="659" y="1156" type="line"/>
      <point x="2379" y="1156" type="line"/>
      <point x="2421" y="1400" type="line"/>
      <point x="437" y="1400" type="line"/>
    </contour>
    <contour>
      <point x="1440" y="1542" type="qcurve" smooth="yes"/>
      <point x="1504" y="1542" type="line" smooth="yes"/>
      <point x="1574.18" y="1542"/>
      <point x="1603.17" y="1567.07"/>
      <point x="1616" y="1638" type="qcurve" smooth="yes"/>
      <point x="1628" y="1704" type="line" smooth="yes"/>
      <point x="1640.07" y="1774.18"/>
      <point x="1619.18" y="1799"/>
      <point x="1549" y="1799" type="qcurve" smooth="yes"/>
      <point x="1485" y="1799" type="line" smooth="yes"/>
      <point x="1414.82" y="1799"/>
      <point x="1386.07" y="1774.18"/>
      <point x="1374" y="1704" type="qcurve" smooth="yes"/>
      <point x="1362" y="1638" type="line" smooth="yes"/>
      <point x="1349.17" y="1567.07"/>
      <point x="1369.82" y="1542"/>
    </contour>
  </outline>
  <guideline angle="90" x="-277" y="0"/>
</glyph>
<glyph name="edotaccent" format="2">
  <advance width="2164"/>
  <unicode hex="0117"/>
  <anchor x="1219" y="1470" name="top"/>
  <anchor x="935" y="-150" name="bottom"/>
  <anchor x="1465" y="-10" name="ogonek"/>
  <outline>
    <contour>
      <point x="184" y="250" type="line" smooth="yes"/>
      <point x="159.853" y="109.644"/>
      <point x="284.951" y="-10"/>
      <point x="457" y="-10" type="qcurve" smooth="yes"/>
      <point x="1469" y="-10" type="line" smooth="yes"/>
      <point x="1641.05" y="-10"/>
      <point x="1807.85" y="109.644"/>
      <point x="1832" y="250" type="qcurve"/>
      <point x="1836" y="270" type="line"/>
      <point x="1595" y="314" type="line"/>
      <point x="1574" y="194" type="line"/>
      <point x="1574" y="194"/>
      <point x="1574" y="194"/>
      <point x="1574" y="194" type="qcurve"/>
      <point x="422" y="194" type="line"/>
      <point x="422" y="194"/>
      <point x="422" y="194"/>
      <point x="422" y="194" type="qcurve"/>
      <point x="459" y="402" type="line"/>
      <point x="1859" y="402" type="line"/>
      <point x="1921" y="760" type="line" smooth="yes"/>
      <point x="1945.15" y="895.828"/>
      <point x="1819.05" y="1010"/>
      <point x="1647" y="1010" type="qcurve" smooth="yes"/>
      <point x="635" y="1010" type="line" smooth="yes"/>
      <point x="464.46" y="1010"/>
      <point x="296.393" y="894.319"/>
      <point x="273" y="760" type="qcurve" smooth="yes"/>
    </contour>
    <contour>
      <point x="494" y="606" type="line"/>
      <point x="529" y="806" type="line"/>
      <point x="529" y="806"/>
      <point x="529" y="806"/>
      <point x="529" y="806" type="qcurve"/>
      <point x="1681" y="806" type="line"/>
      <point x="1681" y="806"/>
      <point x="1681" y="806"/>
      <point x="1681" y="806" type="qcurve"/>
      <point x="1646" y="606" type="line"/>
    </contour>
    <contour>
      <point x="1130" y="1152" type="qcurve" smooth="yes"/>
      <point x="1190" y="1152" type="line" smooth="yes"/>
      <point x="1256.4" y="1152"/>
      <point x="1284.68" y="1175.1"/>
      <point x="1296" y="1240" type="qcurve" smooth="yes"/>
      <point x="1307" y="1302" type="line" smooth="yes"/>
      <point x="1318.32" y="1366.9"/>
      <point x="1299.4" y="1390"/>
      <point x="1233" y="1390" type="qcurve" smooth="yes"/>
      <point x="1173" y="1390" type="line" smooth="yes"/>
      <point x="1106.6" y="1390"/>
      <point x="1078.32" y="1366.9"/>
      <point x="1067" y="1302" type="qcurve" smooth="yes"/>
      <point x="1056" y="1240" type="line" smooth="yes"/>
      <point x="1044.68" y="1175.1"/>
      <point x="1063.6" y="1152"/>
    </contour>
  </outline>
  <guideline angle="0" color="1,0,0,1" x="0" y="-1010"/>
</glyph>
<glyph name="Eogonek" format="2">
  <advance width="2488"/>
  <unicode hex="0118"/>
  <anchor x="1470" y="1550" name="top"/>
  <anchor x="1173" y="-150" name="bottom"/>
  <anchor x="2099" y="0" name="ogonek"/>
  <outline>
    <contour>
      <point x="193" y="0" type="line"/>
      <point x="2211" y="0" type="line"/>
      <point x="2254" y="244" type="line"/>
      <point x="500" y="244" type="line"/>
      <point x="561" y="596" type="line"/>
      <point x="1599" y="596" type="line"/>
      <point x="1642" y="840" type="line"/>
      <point x="604" y="840" type="line"/>
      <point x="659" y="1156" type="line"/>
      <point x="2379" y="1156" type="line"/>
      <point x="2421" y="1400" type="line"/>
      <point x="437" y="1400" type="line"/>
    </contour>
    <contour>
      <point x="1908.53" y="-439" type="qcurve" smooth="yes"/>
      <point x="1959.85" y="-439"/>
      <point x="2047.95" y="-419.374"/>
      <point x="2097" y="-399" type="qcurve"/>
      <point x="2171" y="-209" type="line"/>
      <point x="2136.29" y="-221.828"/>
      <point x="2046.32" y="-238"/>
      <point x="2007.33" y="-238" type="qcurve" smooth="yes"/>
      <point x="1936.15" y="-238"/>
      <point x="1870.54" y="-183.509"/>
      <point x="1878.37" y="-138.95" type="qcurve" smooth="yes"/>
      <point x="1887.9" y="-84.6566"/>
      <point x="2009.2" y="0"/>
      <point x="2099" y="0" type="qcurve"/>
      <point x="1834" y="0" type="line"/>
      <point x="1755.52" y="-34.7116"/>
      <point x="1655.13" y="-145.878"/>
      <point x="1643.22" y="-213.154" type="qcurve" smooth="yes"/>
      <point x="1624.94" y="-316.418"/>
      <point x="1780.26" y="-439"/>
    </contour>
  </outline>
  <guideline angle="90" x="-277" y="0"/>
</glyph>
<glyph name="Gdotaccent" format="2">
  <advance width="2859"/>
  <unicode hex="0120"/>
  <anchor x="1644" y="1884" name="top"/>
  <anchor x="1285" y="-164" name="bottom"/>
  <outline>
    <contour>
      <point x="376" y="1140" type="qcurve" smooth="yes"/>
      <point x="224" y="272" type="line" smooth="yes"/>
      <point x="196.834" y="116.552"/>
      <point x="328.859" y="-14"/>
      <point x="516" y="-14" type="qcurve" smooth="yes"/>
      <point x="2108" y="-14" type="line" smooth="yes"/>
      <point x="2295.14" y="-14"/>
      <point x="2474.83" y="116.552"/>
      <point x="2502" y="272" type="qcurve" smooth="yes"/>
      <point x="2595" y="806" type="line"/>
      <point x="1455" y="806" type="line"/>
      <point x="1413" y="562" type="line"/>
      <point x="2289" y="562" type="line"/>
      <point x="2231" y="230" type="line"/>
      <point x="2231" y="230"/>
      <point x="2231" y="230"/>
      <point x="2231" y="230" type="qcurve"/>
      <point x="481" y="230" type="line"/>
      <point x="481" y="230"/>
      <point x="481" y="230"/>
      <point x="481" y="230" type="qcurve"/>
      <point x="645" y="1170" type="line"/>
      <point x="645" y="1170"/>
      <point x="645" y="1170"/>
      <point x="645" y="1170" type="qcurve"/>
      <point x="2387" y="1170" type="line"/>
      <point x="2387" y="1170"/>
      <point x="2387" y="1170"/>
      <point x="2387" y="1170" type="qcurve"/>
      <point x="2354" y="980" type="line"/>
      <point x="2628" y="1036" type="line"/>
      <point x="2646" y="1140" type="line" smooth="yes"/>
      <point x="2671.5" y="1287"/>
      <point x="2534.5" y="1414"/>
      <point x="2350" y="1414" type="qcurve" smooth="yes"/>
      <point x="766" y="1414" type="line" smooth="yes"/>
      <point x="583" y="1414"/>
      <point x="401.5" y="1287"/>
    </contour>
    <contour>
      <point x="1555" y="1566" type="qcurve" smooth="yes"/>
      <point x="1615" y="1566" type="line" smooth="yes"/>
      <point x="1681.4" y="1566"/>
      <point x="1709.68" y="1589.1"/>
      <point x="1721" y="1654" type="qcurve" smooth="yes"/>
      <point x="1732" y="1716" type="line" smooth="yes"/>
      <point x="1743.32" y="1780.9"/>
      <point x="1724.4" y="1804"/>
      <point x="1658" y="1804" type="qcurve" smooth="yes"/>
      <point x="1598" y="1804" type="line" smooth="yes"/>
      <point x="1531.6" y="1804"/>
      <point x="1503.32" y="1780.9"/>
      <point x="1492" y="1716" type="qcurve" smooth="yes"/>
      <point x="1481" y="1654" type="line" smooth="yes"/>
      <point x="1469.68" y="1589.1"/>
      <point x="1488.6" y="1566"/>
    </contour>
  </outline>
  <guideline angle="0" x="0" y="562"/>
  <guideline angle="0" x="0" y="1036"/>
  <guideline angle="0" x="0" y="980"/>
  <guideline angle="0" x="0" y="806"/>
  <guideline angle="0" x="0" y="700"/>
  <guideline angle="0" x="0" y="906"/>
  <guideline angle="0" x="0" y="494"/>
</glyph>
<glyph name="uni0123" format="2">
  <advance width="2211"/>
  <unicode hex="0123"/>
  <anchor x="1193" y="1174" name="top"/>
  <anchor x="1105.5" y="-578" name="bottom"/>
  <outline>
    <contour>
      <point x="428" y="224" type="qcurve"/>
      <point x="524" y="776" type="line"/>
      <point x="524" y="776"/>
      <point x="524" y="776"/>
      <point x="524" y="776" type="qcurve"/>
      <point x="1716" y="776" type="line"/>
      <point x="1620" y="224" type="line"/>
      <point x="428" y="224" type="line"/>
      <point x="428" y="224"/>
      <point x="428" y="224"/>
    </contour>
    <contour>
      <point x="178" y="-428" type="line"/>
      <point x="1440" y="-428" type="line" smooth="yes"/>
      <point x="1524.75" y="-428"/>
      <point x="1645.44" y="-420.062"/>
      <point x="1729.06" y="-372.438"/>
      <point x="1781.5" y="-269.25"/>
      <point x="1798" y="-174" type="qcurve" smooth="yes"/>
      <point x="2003" y="1000" type="line"/>
      <point x="1755" y="1000" type="line"/>
      <point x="1736" y="890" type="line"/>
      <point x="1724.68" y="945.84"/>
      <point x="1614.61" y="1000"/>
      <point x="1515" y="1000" type="qcurve" smooth="yes"/>
      <point x="571" y="1000" type="line" smooth="yes"/>
      <point x="433.663" y="1000"/>
      <point x="298.62" y="904.662"/>
      <point x="279" y="796" type="qcurve" smooth="yes"/>
      <point x="178" y="214" type="line" smooth="yes"/>
      <point x="157.626" y="97.7916"/>
      <point x="258.154" y="0"/>
      <point x="397" y="0" type="qcurve" smooth="yes"/>
      <point x="1341" y="0" type="line" smooth="yes"/>
      <point x="1440.61" y="0"/>
      <point x="1569.06" y="54.1596"/>
      <point x="1600" y="110" type="qcurve"/>
      <point x="1545" y="-204" type="line"/>
      <point x="1545" y="-204"/>
      <point x="1545" y="-204"/>
      <point x="1545" y="-204" type="qcurve"/>
      <point x="171" y="-204" type="line"/>
    </contour>
    <contour>
      <point x="1153" y="1584" type="line"/>
      <point x="962" y="1332" type="line"/>
      <point x="955.209" y="1322.19"/>
      <point x="944.282" y="1282.18"/>
      <point x="939" y="1252" type="qcurve" smooth="yes"/>
      <point x="929" y="1198" type="line" smooth="yes"/>
      <point x="917.681" y="1130.09"/>
      <point x="935.841" y="1106"/>
      <point x="1003" y="1106" type="qcurve" smooth="yes"/>
      <point x="1062" y="1106" type="line" smooth="yes"/>
      <point x="1128.4" y="1106"/>
      <point x="1156.68" y="1130.09"/>
      <point x="1168" y="1198" type="qcurve"/>
      <point x="1178" y="1252" type="line" smooth="yes"/>
      <point x="1190.07" y="1322.18"/>
      <point x="1171.4" y="1346"/>
      <point x="1105" y="1346" type="qcurve" smooth="yes"/>
      <point x="1083" y="1346" type="line"/>
      <point x="1219" y="1559" type="line"/>
    </contour>
  </outline>
  <guideline angle="0" x="0" y="988"/>
  <guideline angle="0" x="0" y="42"/>
</glyph>
<glyph name="Hcircumflex" format="2">
  <advance width="2928"/>
  <unicode hex="0124"/>
  <anchor x="1674" y="1880" name="top"/>
  <anchor x="1318" y="-150" name="bottom"/>
  <anchor x="2237" y="1585" name="topright"/>
  <outline>
    <contour>
      <point x="190" y="0" type="line"/>
      <point x="454" y="0" type="line"/>
      <point x="560" y="608" type="line"/>
      <point x="2340" y="608" type="line"/>
      <point x="2234" y="0" type="line"/>
      <point x="2498" y="0" type="line"/>
      <point x="2742" y="1400" type="line"/>
      <point x="2478" y="1400" type="line"/>
      <point x="2383" y="852" type="line"/>
      <point x="603" y="852" type="line"/>
      <point x="698" y="1400" type="line"/>
      <point x="434" y="1400" type="line"/>
    </contour>
    <contour>
      <point x="993" y="1485" type="line"/>
      <point x="1342" y="1485" type="line"/>
      <point x="1656" y="1706" type="line"/>
      <point x="1912" y="1485" type="line"/>
      <point x="2219" y="1485" type="line"/>
      <point x="1806" y="1800" type="line"/>
      <point x="1516" y="1800" type="line"/>
    </contour>
  </outline>
  <guideline angle="260.1" color="1,0,0,1" x="1344" y="-0"/>
</glyph>
<glyph name="Iogonek" format="2">
  <advance width="884"/>
  <unicode hex="012E"/>
  <anchor x="593" y="1550" name="top"/>
  <anchor x="296" y="-150" name="bottom"/>
  <anchor x="455" y="0" name="ogonek"/>
  <outline>
    <contour>
      <point x="193" y="0" type="line"/>
      <point x="457" y="0" type="line"/>
      <point x="701" y="1400" type="line"/>
      <point x="437" y="1400" type="line"/>
    </contour>
    <contour>
      <point x="264.527" y="-439" type="qcurve" smooth="yes"/>
      <point x="315.85" y="-439"/>
      <point x="403.951" y="-419.374"/>
      <point x="453" y="-399" type="qcurve"/>
      <point x="527" y="-209" type="line"/>
      <point x="492.288" y="-221.828"/>
      <point x="402.321" y="-238"/>
      <point x="363.332" y="-238" type="qcurve" smooth="yes"/>
      <point x="292.149" y="-238"/>
      <point x="226.544" y="-183.509"/>
      <point x="234.368" y="-138.95" type="qcurve" smooth="yes"/>
      <point x="243.9" y="-84.6566"/>
      <point x="365.203" y="0"/>
      <point x="455" y="0" type="qcurve"/>
      <point x="190" y="0" type="line"/>
      <point x="111.522" y="-34.7116"/>
      <point x="11.1277" y="-145.878"/>
      <point x="-0.779495" y="-213.154" type="qcurve" smooth="yes"/>
      <point x="-19.0563" y="-316.418"/>
      <point x="136.256" y="-439"/>
    </contour>
  </outline>
</glyph>
<glyph name="uni0136" format="2">
  <advance width="2637"/>
  <unicode hex="0136"/>
  <anchor x="1474" y="1550" name="top"/>
  <anchor x="1327" y="-150" name="bottom"/>
  <outline>
    <contour>
      <point x="2516" y="1400" type="line"/>
      <point x="2047" y="1400" type="line"/>
      <point x="443" y="717" type="line"/>
      <point x="589" y="717" type="line"/>
      <point x="701" y="1400" type="line"/>
      <point x="437" y="1400" type="line"/>
      <point x="193" y="0" type="line"/>
      <point x="457" y="0" type="line"/>
      <point x="576" y="685" type="line"/>
      <point x="506" y="685" type="line"/>
      <point x="1990" y="0" type="line"/>
      <point x="2520" y="0" type="line"/>
      <point x="907" y="744" type="line"/>
      <point x="907" y="717" type="line"/>
    </contour>
    <contour>
      <point x="1210" y="-605" type="line"/>
      <point x="1401" y="-353" type="line"/>
      <point x="1407.79" y="-343.19"/>
      <point x="1418.72" y="-303.184"/>
      <point x="1424" y="-273" type="qcurve" smooth="yes"/>
      <point x="1434" y="-219" type="line" smooth="yes"/>
      <point x="1445.32" y="-151.086"/>
      <point x="1427.16" y="-127"/>
      <point x="1360" y="-127" type="qcurve" smooth="yes"/>
      <point x="1301" y="-127" type="line" smooth="yes"/>
      <point x="1234.6" y="-127"/>
      <point x="1206.32" y="-151.086"/>
      <point x="1195" y="-219" type="qcurve"/>
      <point x="1185" y="-273" type="line" smooth="yes"/>
      <point x="1172.93" y="-343.178"/>
      <point x="1191.6" y="-367"/>
      <point x="1258" y="-367" type="qcurve" smooth="yes"/>
      <point x="1280" y="-367" type="line"/>
      <point x="1144" y="-580" type="line"/>
    </contour>
  </outline>
</glyph>
<glyph name="kgreenlandic" format="2">
  <advance width="2301"/>
  <unicode hex="0138"/>
  <anchor x="1366" y="1150" name="top"/>
  <outline>
    <contour>
      <point x="152" y="0" type="line"/>
      <point x="400" y="0" type="line"/>
      <point x="483" y="476" type="line"/>
      <point x="1592" y="0" type="line"/>
      <point x="2154" y="0" type="line"/>
      <point x="918" y="527" type="line"/>
      <point x="2091" y="1000" type="line"/>
      <point x="1628" y="1000" type="line"/>
      <point x="494" y="538" type="line"/>
      <point x="575" y="1000" type="line"/>
      <point x="327" y="1000" type="line"/>
    </contour>
  </outline>
</glyph>
<glyph name="uni013B" format="2">
  <advance width="2230"/>
  <unicode hex="013B"/>
  <anchor x="593" y="1550" name="top"/>
  <anchor x="1069" y="-150" name="bottom"/>
  <anchor x="212" y="700" name="left"/>
  <anchor x="1798" y="1400" name="right"/>
  <anchor x="1559" y="700" name="eldot"/>
  <outline>
    <contour>
      <point x="193" y="0" type="line"/>
      <point x="2103" y="0" type="line"/>
      <point x="2146" y="244" type="line"/>
      <point x="500" y="244" type="line"/>
      <point x="701" y="1400" type="line"/>
      <point x="437" y="1400" type="line"/>
    </contour>
    <contour>
      <point x="952" y="-605" type="line"/>
      <point x="1143" y="-353" type="line"/>
      <point x="1149.79" y="-343.19"/>
      <point x="1160.72" y="-303.184"/>
      <point x="1166" y="-273" type="qcurve" smooth="yes"/>
      <point x="1176" y="-219" type="line" smooth="yes"/>
      <point x="1187.32" y="-151.086"/>
      <point x="1169.16" y="-127"/>
      <point x="1102" y="-127" type="qcurve" smooth="yes"/>
      <point x="1043" y="-127" type="line" smooth="yes"/>
      <point x="976.595" y="-127"/>
      <point x="948.319" y="-151.086"/>
      <point x="937" y="-219" type="qcurve"/>
      <point x="927" y="-273" type="line" smooth="yes"/>
      <point x="914.926" y="-343.178"/>
      <point x="933.595" y="-367"/>
      <point x="1000" y="-367" type="qcurve" smooth="yes"/>
      <point x="1022" y="-367" type="line"/>
      <point x="886" y="-580" type="line"/>
    </contour>
  </outline>
</glyph>
<glyph name="uni013C" format="2">
  <advance width="788"/>
  <unicode hex="013C"/>
  <anchor x="554" y="1598" name="top"/>
  <anchor x="249" y="-150" name="bottom"/>
  <anchor x="652" y="1448" name="right"/>
  <anchor x="754" y="700" name="eldot"/>
  <outline>
    <contour>
      <point x="151" y="0" type="line"/>
      <point x="399" y="0" type="line"/>
      <point x="652" y="1448" type="line"/>
      <point x="404" y="1448" type="line"/>
    </contour>
    <contour>
      <point x="132" y="-605" type="line"/>
      <point x="323" y="-353" type="line"/>
      <point x="329.791" y="-343.19"/>
      <point x="340.718" y="-303.184"/>
      <point x="346" y="-273" type="qcurve" smooth="yes"/>
      <point x="356" y="-219" type="line" smooth="yes"/>
      <point x="367.319" y="-151.086"/>
      <point x="349.159" y="-127"/>
      <point x="282" y="-127" type="qcurve" smooth="yes"/>
      <point x="223" y="-127" type="line" smooth="yes"/>
      <point x="156.595" y="-127"/>
      <point x="128.319" y="-151.086"/>
      <point x="117" y="-219" type="qcurve"/>
      <point x="107" y="-273" type="line" smooth="yes"/>
      <point x="94.9264" y="-343.178"/>
      <point x="113.595" y="-367"/>
      <point x="180" y="-367" type="qcurve" smooth="yes"/>
      <point x="202" y="-367" type="line"/>
      <point x="66" y="-580" type="line"/>
    </contour>
  </outline>
</glyph>
<glyph name="Lcaron" format="2">
  <advance width="2230"/>
  <unicode hex="013D"/>
  <anchor x="593" y="1550" name="top"/>
  <anchor x="1069" y="-150" name="bottom"/>
  <anchor x="212" y="700" name="left"/>
  <anchor x="1798" y="1400" name="right"/>
  <anchor x="1559" y="700" name="eldot"/>
  <outline>
    <contour>
      <point x="193" y="0" type="line"/>
      <point x="2103" y="0" type="line"/>
      <point x="2146" y="244" type="line"/>
      <point x="500" y="244" type="line"/>
      <point x="701" y="1400" type="line"/>
      <point x="437" y="1400" type="line"/>
    </contour>
    <contour>
      <point x="1926" y="1062" type="line"/>
      <point x="2118" y="1103" type="line"/>
      <point x="2229" y="1400" type="line"/>
      <point x="2040" y="1400" type="line"/>
    </contour>
  </outline>
</glyph>
<glyph name="Lslash" format="2">
  <advance width="2240"/>
  <unicode hex="0141"/>
  <outline>
    <contour>
      <point x="200" y="0" type="line"/>
      <point x="2110" y="0" type="line"/>
      <point x="2153" y="244" type="line"/>
      <point x="507" y="244" type="line"/>
      <point x="560" y="548" type="line"/>
      <point x="1439" y="849" type="line"/>
      <point x="1469" y="1018" type="line"/>
      <point x="590" y="717" type="line"/>
      <point x="708" y="1400" type="line"/>
      <point x="444" y="1400" type="line"/>
      <point x="309" y="621" type="line"/>
      <point x="66" y="538" type="line"/>
      <point x="36" y="369" type="line"/>
      <point x="279" y="452" type="line"/>
    </contour>
  </outline>
</glyph>
<glyph name="lslash" format="2">
  <advance width="795"/>
  <unicode hex="0142"/>
  <outline>
    <contour>
      <point x="154" y="0" type="line"/>
      <point x="402" y="0" type="line"/>
      <point x="516" y="648" type="line"/>
      <point x="799" y="745" type="line"/>
      <point x="828" y="913" type="line"/>
      <point x="545" y="816" type="line"/>
      <point x="655" y="1448" type="line"/>
      <point x="407" y="1448" type="line"/>
      <point x="281" y="726" type="line"/>
      <point x="-2" y="629" type="line"/>
      <point x="-31" y="461" type="line"/>
      <point x="252" y="558" type="line"/>
    </contour>
  </outline>
  <guideline angle="0" x="0" y="724"/>
</glyph>
<glyph name="omacron" format="2">
  <advance width="2204"/>
  <unicode hex="014D"/>
  <anchor x="1232" y="1430" name="top"/>
  <anchor x="956" y="-150" name="bottom"/>
  <anchor x="1967" y="800" name="horn"/>
  <anchor x="1091" y="0" name="ogonek"/>
  <outline>
    <contour>
      <point x="176" y="204" type="line" smooth="yes"/>
      <point x="155.626" y="87.7916"/>
      <point x="256.154" y="-10"/>
      <point x="395" y="-10" type="qcurve" smooth="yes"/>
      <point x="1571" y="-10" type="line" smooth="yes"/>
      <point x="1711.36" y="-10"/>
      <point x="1843.63" y="87.7916"/>
      <point x="1864" y="204" type="qcurve" smooth="yes"/>
      <point x="1969" y="806" type="line" smooth="yes"/>
      <point x="1987.87" y="914.662"/>
      <point x="1886.34" y="1010"/>
      <point x="1749" y="1010" type="qcurve" smooth="yes"/>
      <point x="573" y="1010" type="line" smooth="yes"/>
      <point x="435.663" y="1010"/>
      <point x="299.865" y="914.662"/>
      <point x="281" y="806" type="qcurve" smooth="yes"/>
    </contour>
    <contour>
      <point x="426" y="214" type="qcurve"/>
      <point x="526" y="786" type="line"/>
      <point x="526" y="786"/>
      <point x="526" y="786"/>
      <point x="526" y="786" type="qcurve"/>
      <point x="1718" y="786" type="line"/>
      <point x="1718" y="786"/>
      <point x="1718" y="786"/>
      <point x="1718" y="786" type="qcurve"/>
      <point x="1618" y="214" type="line"/>
      <point x="1618" y="214"/>
      <point x="1618" y="214"/>
      <point x="1618" y="214" type="qcurve"/>
      <point x="426" y="214" type="line"/>
      <point x="426" y="214"/>
      <point x="426" y="214"/>
    </contour>
    <contour>
      <point x="745" y="1170" type="line"/>
      <point x="1628" y="1170" type="line"/>
      <point x="1656" y="1330" type="line"/>
      <point x="773" y="1330" type="line"/>
    </contour>
  </outline>
  <guideline angle="0" x="0" y="1336"/>
</glyph>
<glyph name="Obreve" format="2">
  <advance width="2964"/>
  <unicode hex="014E"/>
  <anchor x="1725" y="1914" name="top"/>
  <anchor x="1364" y="-164" name="bottom"/>
  <anchor x="2749" y="1140" name="horn"/>
  <anchor x="1498" y="0" name="ogonek"/>
  <outline>
    <contour>
      <point x="376" y="1140" type="qcurve" smooth="yes"/>
      <point x="224" y="272" type="line" smooth="yes"/>
      <point x="193.061" y="95.4236"/>
      <point x="354.516" y="-14"/>
      <point x="516" y="-14" type="qcurve" smooth="yes"/>
      <point x="2206" y="-14" type="line" smooth="yes"/>
      <point x="2367.48" y="-14"/>
      <point x="2569.06" y="93.9144"/>
      <point x="2600" y="272" type="qcurve" smooth="yes"/>
      <point x="2752" y="1140" type="line" smooth="yes"/>
      <point x="2782" y="1311"/>
      <point x="2607.5" y="1414"/>
      <point x="2456" y="1414" type="qcurve" smooth="yes"/>
      <point x="766" y="1414" type="line" smooth="yes"/>
      <point x="614.5" y="1414"/>
      <point x="406" y="1311"/>
    </contour>
    <contour>
      <point x="645" y="1170" type="line"/>
      <point x="645" y="1170"/>
      <point x="645" y="1170"/>
      <point x="645" y="1170" type="qcurve"/>
      <point x="2493" y="1170" type="line"/>
      <point x="2493" y="1170"/>
      <point x="2493" y="1170"/>
      <point x="2493" y="1170" type="qcurve"/>
      <point x="2329" y="230" type="line"/>
      <point x="2329" y="230"/>
      <point x="2329" y="230"/>
      <point x="2329" y="230" type="qcurve"/>
      <point x="481" y="230" type="line"/>
      <point x="481" y="230"/>
      <point x="481" y="230"/>
      <point x="481" y="230" type="qcurve"/>
    </contour>
    <contour>
      <point x="1676" y="1524" type="qcurve" smooth="yes"/>
      <point x="1783.25" y="1524"/>
      <point x="1935.09" y="1548.25"/>
      <point x="2037.66" y="1612.75"/>
      <point x="2097.62" y="1725.5"/>
      <point x="2113" y="1814" type="qcurve"/>
      <point x="1944" y="1814" type="line"/>
      <point x="1937.62" y="1776.88"/>
      <point x="1901.38" y="1729.78"/>
      <point x="1837.62" y="1702.97"/>
      <point x="1744.38" y="1693"/>
      <point x="1681" y="1693" type="qcurve" smooth="yes"/>
      <point x="1617.62" y="1693"/>
      <point x="1531.06" y="1702.97"/>
      <point x="1480.44" y="1729.78"/>
      <point x="1463.62" y="1776.88"/>
      <point x="1470" y="1814" type="qcurve"/>
      <point x="1301" y="1814" type="line"/>
      <point x="1285.62" y="1725.5"/>
      <point x="1318.53" y="1612.75"/>
      <point x="1413.22" y="1548.25"/>
      <point x="1568.75" y="1524"/>
    </contour>
  </outline>
</glyph>
<glyph name="obreve" format="2">
  <advance width="2204"/>
  <unicode hex="014F"/>
  <anchor x="1248" y="1517" name="top"/>
  <anchor x="956" y="-150" name="bottom"/>
  <anchor x="1967" y="800" name="horn"/>
  <anchor x="1091" y="0" name="ogonek"/>
  <outline>
    <contour>
      <point x="176" y="204" type="line" smooth="yes"/>
      <point x="155.626" y="87.7916"/>
      <point x="256.154" y="-10"/>
      <point x="395" y="-10" type="qcurve" smooth="yes"/>
      <point x="1571" y="-10" type="line" smooth="yes"/>
      <point x="1711.36" y="-10"/>
      <point x="1843.63" y="87.7916"/>
      <point x="1864" y="204" type="qcurve" smooth="yes"/>
      <point x="1969" y="806" type="line" smooth="yes"/>
      <point x="1987.87" y="914.662"/>
      <point x="1886.34" y="1010"/>
      <point x="1749" y="1010" type="qcurve" smooth="yes"/>
      <point x="573" y="1010" type="line" smooth="yes"/>
      <point x="435.663" y="1010"/>
      <point x="299.865" y="914.662"/>
      <point x="281" y="806" type="qcurve" smooth="yes"/>
    </contour>
    <contour>
      <point x="426" y="214" type="qcurve"/>
      <point x="526" y="786" type="line"/>
      <point x="526" y="786"/>
      <point x="526" y="786"/>
      <point x="526" y="786" type="qcurve"/>
      <point x="1718" y="786" type="line"/>
      <point x="1718" y="786"/>
      <point x="1718" y="786"/>
      <point x="1718" y="786" type="qcurve"/>
      <point x="1618" y="214" type="line"/>
      <point x="1618" y="214"/>
      <point x="1618" y="214"/>
      <point x="1618" y="214" type="qcurve"/>
      <point x="426" y="214" type="line"/>
      <point x="426" y="214"/>
      <point x="426" y="214"/>
    </contour>
    <contour>
      <point x="1195" y="1110" type="qcurve" smooth="yes"/>
      <point x="1295.12" y="1110"/>
      <point x="1437.47" y="1135.62"/>
      <point x="1534.78" y="1203.88"/>
      <point x="1593.5" y="1323.25"/>
      <point x="1610" y="1417" type="qcurve"/>
      <point x="1452" y="1417" type="line"/>
      <point x="1443.75" y="1370.5"/>
      <point x="1407.38" y="1311.38"/>
      <point x="1346.62" y="1277.62"/>
      <point x="1259.25" y="1265"/>
      <point x="1200" y="1265" type="qcurve" smooth="yes"/>
      <point x="1139.62" y="1265"/>
      <point x="1058.97" y="1277.62"/>
      <point x="1013.78" y="1311.38"/>
      <point x="1001.75" y="1370.5"/>
      <point x="1010" y="1417" type="qcurve"/>
      <point x="852" y="1417" type="line"/>
      <point x="835.5" y="1323.25"/>
      <point x="863.188" y="1203.88"/>
      <point x="949.812" y="1135.62"/>
      <point x="1094.5" y="1110"/>
    </contour>
  </outline>
</glyph>
<glyph name="uni0156" format="2">
  <advance width="2840"/>
  <unicode hex="0156"/>
  <anchor x="1420" y="-150" name="bottom"/>
  <anchor x="1420" y="1550" name="top"/>
  <outline>
    <contour>
      <point x="193" y="0" type="line"/>
      <point x="457" y="0" type="line"/>
      <point x="549" y="528" type="line"/>
      <point x="1273" y="528" type="line"/>
      <point x="2120" y="0" type="line"/>
      <point x="2599" y="0" type="line"/>
      <point x="1732" y="528" type="line"/>
      <point x="2213" y="528" type="line" smooth="yes"/>
      <point x="2385.5" y="528"/>
      <point x="2579.75" y="657.5"/>
      <point x="2603" y="788" type="qcurve" smooth="yes"/>
      <point x="2662" y="1126" type="line" smooth="yes"/>
      <point x="2691.25" y="1297"/>
      <point x="2516.5" y="1400"/>
      <point x="2365" y="1400" type="qcurve" smooth="yes"/>
      <point x="437" y="1400" type="line"/>
    </contour>
    <contour>
      <point x="592" y="772" type="line"/>
      <point x="659" y="1156" type="line"/>
      <point x="2297" y="1156" type="line" smooth="yes"/>
      <point x="2349.82" y="1156"/>
      <point x="2394.81" y="1108.82"/>
      <point x="2385" y="1056" type="qcurve" smooth="yes"/>
      <point x="2353" y="872" type="line" smooth="yes"/>
      <point x="2342.44" y="811.632"/>
      <point x="2282.82" y="772"/>
      <point x="2230" y="772" type="qcurve" smooth="yes"/>
    </contour>
    <contour>
      <point x="1303" y="-605" type="line"/>
      <point x="1494" y="-353" type="line"/>
      <point x="1500.79" y="-343.19"/>
      <point x="1511.72" y="-303.184"/>
      <point x="1517" y="-273" type="qcurve" smooth="yes"/>
      <point x="1527" y="-219" type="line" smooth="yes"/>
      <point x="1538.32" y="-151.086"/>
      <point x="1520.16" y="-127"/>
      <point x="1453" y="-127" type="qcurve" smooth="yes"/>
      <point x="1394" y="-127" type="line" smooth="yes"/>
      <point x="1327.6" y="-127"/>
      <point x="1299.32" y="-151.086"/>
      <point x="1288" y="-219" type="qcurve"/>
      <point x="1278" y="-273" type="line" smooth="yes"/>
      <point x="1265.93" y="-343.178"/>
      <point x="1284.6" y="-367"/>
      <point x="1351" y="-367" type="qcurve" smooth="yes"/>
      <point x="1373" y="-367" type="line"/>
      <point x="1237" y="-580" type="line"/>
    </contour>
  </outline>
  <guideline angle="90" color="0.4,0.4,0.4,1" name="halfwidth" x="1420" y="0"/>
</glyph>
<glyph name="uni0163" format="2">
  <advance width="1339"/>
  <unicode hex="0163"/>
  <anchor x="788" y="1394" name="top"/>
  <anchor x="517" y="-160" name="bottom"/>
  <anchor x="793" y="1400" name="right"/>
  <outline>
    <contour>
      <point x="555" y="-10" type="qcurve" smooth="yes"/>
      <point x="1049" y="-10" type="line"/>
      <point x="1127" y="194" type="line"/>
      <point x="583" y="194" type="line"/>
      <point x="583" y="194"/>
      <point x="583" y="194"/>
      <point x="583" y="194" type="qcurve"/>
      <point x="688" y="796" type="line"/>
      <point x="1240" y="796" type="line"/>
      <point x="1276" y="1000" type="line"/>
      <point x="724" y="1000" type="line"/>
      <point x="766" y="1244" type="line"/>
      <point x="518" y="1244" type="line"/>
      <point x="476" y="1000" type="line"/>
      <point x="164" y="1000" type="line"/>
      <point x="128" y="796" type="line"/>
      <point x="440" y="796" type="line"/>
      <point x="337" y="204" type="line" smooth="yes"/>
      <point x="316.626" y="87.7916"/>
      <point x="416.154" y="-10"/>
    </contour>
    <contour>
      <point x="446" y="-448" type="qcurve" smooth="yes"/>
      <point x="506.75" y="-448"/>
      <point x="603.781" y="-429.719"/>
      <point x="674.469" y="-392.031"/>
      <point x="717.875" y="-334.375"/>
      <point x="725" y="-295" type="qcurve" smooth="yes"/>
      <point x="732.5" y="-252.25"/>
      <point x="711.969" y="-185.594"/>
      <point x="656.281" y="-139.656"/>
      <point x="565.625" y="-115.375"/>
      <point x="503" y="-115" type="qcurve"/>
      <point x="586" y="-10" type="line"/>
      <point x="500" y="-10" type="line"/>
      <point x="331" y="-233" type="line"/>
      <point x="359.675" y="-223.945"/>
      <point x="417.515" y="-213"/>
      <point x="456" y="-213" type="qcurve" smooth="yes"/>
      <point x="502.031" y="-213"/>
      <point x="560.037" y="-244.043"/>
      <point x="554" y="-278" type="qcurve" smooth="yes"/>
      <point x="547.963" y="-311.957"/>
      <point x="478.276" y="-350"/>
      <point x="433" y="-350" type="qcurve" smooth="yes"/>
      <point x="388.479" y="-350"/>
      <point x="326.074" y="-337.301"/>
      <point x="314" y="-329" type="qcurve"/>
      <point x="256" y="-398" type="line"/>
      <point x="285.429" y="-422.147"/>
      <point x="378.086" y="-448"/>
    </contour>
  </outline>
</glyph>
<glyph name="Tcaron" format="2">
  <advance width="2374"/>
  <unicode hex="0164"/>
  <anchor x="1398" y="1880" name="top"/>
  <anchor x="1043" y="-150" name="bottom"/>
  <anchor x="749" y="1700" name="topright"/>
  <outline>
    <contour>
      <point x="937" y="0" type="line"/>
      <point x="1201" y="0" type="line"/>
      <point x="1403" y="1156" type="line"/>
      <point x="2447" y="1156" type="line"/>
      <point x="2489" y="1400" type="line"/>
      <point x="137" y="1400" type="line"/>
      <point x="95" y="1156" type="line"/>
      <point x="1139" y="1156" type="line"/>
    </contour>
    <contour>
      <point x="1993" y="1800" type="line"/>
      <point x="1644" y="1800" type="line"/>
      <point x="1330" y="1579" type="line"/>
      <point x="1074" y="1800" type="line"/>
      <point x="767" y="1800" type="line"/>
      <point x="1180" y="1485" type="line"/>
      <point x="1470" y="1485" type="line"/>
    </contour>
  </outline>
</glyph>
<glyph name="tbar" format="2">
  <advance width="1341"/>
  <unicode hex="0167"/>
  <anchor x="789" y="1394" name="top"/>
  <anchor x="518" y="-160" name="bottom"/>
  <outline>
    <contour>
      <point x="556" y="-10" type="qcurve" smooth="yes"/>
      <point x="1050" y="-10" type="line"/>
      <point x="1128" y="194" type="line"/>
      <point x="584" y="194" type="line"/>
      <point x="584" y="194"/>
      <point x="584" y="194"/>
      <point x="584" y="194" type="qcurve"/>
      <point x="637" y="500" type="line"/>
      <point x="1063" y="500" type="line"/>
      <point x="1091" y="660" type="line"/>
      <point x="665" y="660" type="line"/>
      <point x="689" y="796" type="line"/>
      <point x="1241" y="796" type="line"/>
      <point x="1277" y="1000" type="line"/>
      <point x="725" y="1000" type="line"/>
      <point x="767" y="1244" type="line"/>
      <point x="519" y="1244" type="line"/>
      <point x="477" y="1000" type="line"/>
      <point x="165" y="1000" type="line"/>
      <point x="129" y="796" type="line"/>
      <point x="441" y="796" type="line"/>
      <point x="417" y="660" type="line"/>
      <point x="229" y="660" type="line"/>
      <point x="201" y="500" type="line"/>
      <point x="390" y="500" type="line"/>
      <point x="338" y="204" type="line" smooth="yes"/>
      <point x="317.626" y="87.7916"/>
      <point x="417.154" y="-10"/>
    </contour>
  </outline>
</glyph>
<glyph name="uring" format="2">
  <advance width="2109"/>
  <unicode hex="016F"/>
  <anchor x="1214" y="1584" name="top"/>
  <anchor x="909" y="-160" name="bottom"/>
  <anchor x="1044" y="0" name="ogonek"/>
  <anchor x="1903" y="1000" name="horn"/>
  <outline>
    <contour>
      <point x="178" y="194" type="line" smooth="yes"/>
      <point x="156.117" y="67.2272"/>
      <point x="271.301" y="-10"/>
      <point x="386" y="-10" type="qcurve" smooth="yes"/>
      <point x="1478" y="-10" type="line" smooth="yes"/>
      <point x="1592.7" y="-10"/>
      <point x="1738.12" y="67.2272"/>
      <point x="1760" y="194" type="qcurve" smooth="yes"/>
      <point x="1901" y="1000" type="line"/>
      <point x="1653" y="1000" type="line"/>
      <point x="1515" y="214" type="line"/>
      <point x="1515" y="214"/>
      <point x="1515" y="214"/>
      <point x="1515" y="214" type="qcurve"/>
      <point x="429" y="214" type="line"/>
      <point x="429" y="214"/>
      <point x="429" y="214"/>
      <point x="429" y="214" type="qcurve"/>
      <point x="567" y="1000" type="line"/>
      <point x="319" y="1000" type="line"/>
    </contour>
    <contour>
      <point x="1125" y="1079" type="qcurve" smooth="yes"/>
      <point x="1202.25" y="1079"/>
      <point x="1298.69" y="1093.03"/>
      <point x="1356.81" y="1133.72"/>
      <point x="1386.5" y="1207.38"/>
      <point x="1397" y="1267" type="qcurve" smooth="yes"/>
      <point x="1407.5" y="1326.62"/>
      <point x="1403.69" y="1399.97"/>
      <point x="1359.81" y="1440.28"/>
      <point x="1268.25" y="1454"/>
      <point x="1191" y="1454" type="qcurve" smooth="yes"/>
      <point x="1113.75" y="1454"/>
      <point x="1017.62" y="1440.28"/>
      <point x="959.875" y="1399.97"/>
      <point x="930.5" y="1326.62"/>
      <point x="920" y="1267" type="qcurve" smooth="yes"/>
      <point x="909.5" y="1207.38"/>
      <point x="913" y="1133.72"/>
      <point x="956.5" y="1093.03"/>
      <point x="1047.75" y="1079"/>
    </contour>
    <contour>
      <point x="1145" y="1191" type="qcurve" smooth="yes"/>
      <point x="1065.77" y="1191"/>
      <point x="1039.45" y="1223.99"/>
      <point x="1047" y="1267" type="qcurve" smooth="yes"/>
      <point x="1054.55" y="1309.26"/>
      <point x="1091.77" y="1342"/>
      <point x="1171" y="1342" type="qcurve" smooth="yes"/>
      <point x="1250.23" y="1342"/>
      <point x="1277.55" y="1309.26"/>
      <point x="1270" y="1267" type="qcurve" smooth="yes"/>
      <point x="1262.45" y="1223.99"/>
      <point x="1224.23" y="1191"/>
    </contour>
  </outline>
</glyph>
<glyph name="Uogonek" format="2">
  <advance width="2764"/>
  <unicode hex="0172"/>
  <anchor x="1532" y="1550" name="top"/>
  <anchor x="1235" y="-150" name="bottom"/>
  <anchor x="1394" y="0" name="ogonek"/>
  <anchor x="2585" y="1400" name="horn"/>
  <outline>
    <contour>
      <point x="429" y="1400" type="line"/>
      <point x="232" y="272" type="line" smooth="yes"/>
      <point x="216.625" y="183.5"/>
      <point x="244.406" y="72"/>
      <point x="321.844" y="9"/>
      <point x="444.5" y="-14"/>
      <point x="524" y="-14" type="qcurve" smooth="yes"/>
      <point x="1998" y="-14" type="line" smooth="yes"/>
      <point x="2158.5" y="-14"/>
      <point x="2361.25" y="95"/>
      <point x="2392" y="272" type="qcurve" smooth="yes"/>
      <point x="2589" y="1400" type="line"/>
      <point x="2325" y="1400" type="line"/>
      <point x="2122" y="240" type="line"/>
      <point x="2122" y="240"/>
      <point x="2122" y="240"/>
      <point x="2122" y="240" type="qcurve"/>
      <point x="490" y="240" type="line"/>
      <point x="490" y="240"/>
      <point x="490" y="240"/>
      <point x="490" y="240" type="qcurve"/>
      <point x="693" y="1400" type="line"/>
    </contour>
    <contour>
      <point x="1203.53" y="-439" type="qcurve" smooth="yes"/>
      <point x="1254.85" y="-439"/>
      <point x="1342.95" y="-419.374"/>
      <point x="1392" y="-399" type="qcurve"/>
      <point x="1466" y="-209" type="line"/>
      <point x="1431.29" y="-221.828"/>
      <point x="1341.32" y="-238"/>
      <point x="1302.33" y="-238" type="qcurve" smooth="yes"/>
      <point x="1231.15" y="-238"/>
      <point x="1165.54" y="-183.509"/>
      <point x="1173.37" y="-138.95" type="qcurve" smooth="yes"/>
      <point x="1182.9" y="-84.6566"/>
      <point x="1304.2" y="0"/>
      <point x="1394" y="0" type="qcurve"/>
      <point x="1129" y="0" type="line"/>
      <point x="1050.52" y="-34.7116"/>
      <point x="950.128" y="-145.878"/>
      <point x="938.221" y="-213.154" type="qcurve" smooth="yes"/>
      <point x="919.944" y="-316.418"/>
      <point x="1075.26" y="-439"/>
    </contour>
  </outline>
</glyph>
<glyph name="wcircumflex" format="2">
  <advance width="2716"/>
  <unicode hex="0175"/>
  <anchor x="1537" y="1548" name="top"/>
  <anchor x="1213" y="-150" name="bottom"/>
  <anchor x="2071" y="1267" name="topright"/>
  <outline>
    <contour>
      <point x="554" y="0" type="line"/>
      <point x="778" y="0" type="line"/>
      <point x="1391" y="766" type="line"/>
      <point x="1736" y="0" type="line"/>
      <point x="1936" y="0" type="line"/>
      <point x="2747" y="1000" type="line"/>
      <point x="2476" y="1000" type="line"/>
      <point x="1882" y="257" type="line"/>
      <point x="1548" y="1000" type="line"/>
      <point x="1307" y="1000" type="line"/>
      <point x="711" y="252" type="line"/>
      <point x="376" y="1000" type="line"/>
      <point x="84" y="1000" type="line"/>
    </contour>
    <contour>
      <point x="873" y="1085" type="line"/>
      <point x="1181" y="1085" type="line"/>
      <point x="1513" y="1325" type="line"/>
      <point x="1771" y="1085" type="line"/>
      <point x="2039" y="1085" type="line"/>
      <point x="1610" y="1448" type="line"/>
      <point x="1430" y="1448" type="line"/>
    </contour>
  </outline>
</glyph>
<glyph name="Ycircumflex" format="2">
  <advance width="2537"/>
  <unicode hex="0176"/>
  <anchor x="1543" y="1880" name="top"/>
  <anchor x="1129" y="-150" name="bottom"/>
  <anchor x="2106" y="1585" name="topright"/>
  <outline>
    <contour>
      <point x="1023" y="0" type="line"/>
      <point x="1287" y="0" type="line"/>
      <point x="1393" y="610" type="line"/>
      <point x="2663" y="1400" type="line"/>
      <point x="2256" y="1400" type="line"/>
      <point x="1287" y="789" type="line"/>
      <point x="534" y="1400" type="line"/>
      <point x="127" y="1400" type="line"/>
      <point x="1130" y="612" type="line"/>
    </contour>
    <contour>
      <point x="862" y="1485" type="line"/>
      <point x="1211" y="1485" type="line"/>
      <point x="1525" y="1706" type="line"/>
      <point x="1781" y="1485" type="line"/>
      <point x="2088" y="1485" type="line"/>
      <point x="1675" y="1800" type="line"/>
      <point x="1385" y="1800" type="line"/>
    </contour>
  </outline>
  <guideline angle="260.1" color="1,0,0,1" x="1213" y="-0"/>
</glyph>
<glyph name="Ydieresis" format="2">
  <advance width="2537"/>
  <unicode hex="0178"/>
  <anchor x="1546" y="1900" name="top"/>
  <anchor x="1129" y="-150" name="bottom"/>
  <outline>
    <contour>
      <point x="1023" y="0" type="line"/>
      <point x="1287" y="0" type="line"/>
      <point x="1393" y="610" type="line"/>
      <point x="2663" y="1400" type="line"/>
      <point x="2256" y="1400" type="line"/>
      <point x="1287" y="789" type="line"/>
      <point x="534" y="1400" type="line"/>
      <point x="127" y="1400" type="line"/>
      <point x="1130" y="612" type="line"/>
    </contour>
    <contour>
      <point x="1192" y="1540" type="qcurve" smooth="yes"/>
      <point x="1262" y="1540" type="line" smooth="yes"/>
      <point x="1328.4" y="1540"/>
      <point x="1356.68" y="1563.6"/>
      <point x="1368" y="1630" type="qcurve" smooth="yes"/>
      <point x="1381" y="1702" type="line" smooth="yes"/>
      <point x="1392.32" y="1766.9"/>
      <point x="1373.4" y="1790"/>
      <point x="1307" y="1790" type="qcurve" smooth="yes"/>
      <point x="1237" y="1790" type="line" smooth="yes"/>
      <point x="1170.6" y="1790"/>
      <point x="1142.32" y="1766.9"/>
      <point x="1131" y="1702" type="qcurve" smooth="yes"/>
      <point x="1118" y="1630" type="line" smooth="yes"/>
      <point x="1106.68" y="1563.6"/>
      <point x="1125.6" y="1540"/>
    </contour>
    <contour>
      <point x="1702" y="1540" type="qcurve" smooth="yes"/>
      <point x="1772" y="1540" type="line" smooth="yes"/>
      <point x="1838.4" y="1540"/>
      <point x="1866.68" y="1563.6"/>
      <point x="1878" y="1630" type="qcurve" smooth="yes"/>
      <point x="1891" y="1702" type="line" smooth="yes"/>
      <point x="1902.32" y="1766.9"/>
      <point x="1883.4" y="1790"/>
      <point x="1817" y="1790" type="qcurve" smooth="yes"/>
      <point x="1747" y="1790" type="line" smooth="yes"/>
      <point x="1680.6" y="1790"/>
      <point x="1652.32" y="1766.9"/>
      <point x="1641" y="1702" type="qcurve" smooth="yes"/>
      <point x="1628" y="1630" type="line" smooth="yes"/>
      <point x="1616.68" y="1563.6"/>
      <point x="1635.6" y="1540"/>
    </contour>
  </outline>
  <guideline angle="260.1" color="1,0,0,1" x="1213" y="-0"/>
</glyph>
<glyph name="uni019D" format="2">
  <advance width="2951"/>
  <unicode hex="019D"/>
  <anchor x="1626" y="1550" name="top"/>
  <anchor x="1329" y="-150" name="bottom"/>
  <outline>
    <contour>
      <point x="-688" y="-428" type="line"/>
      <point x="45" y="-428" type="line" smooth="yes"/>
      <point x="189.883" y="-428"/>
      <point x="379.607" y="-309.073"/>
      <point x="403" y="-174" type="qcurve" smooth="yes"/>
      <point x="623" y="1090" type="line"/>
      <point x="2317" y="0" type="line"/>
      <point x="2521" y="0" type="line"/>
      <point x="2765" y="1400" type="line"/>
      <point x="2521" y="1400" type="line"/>
      <point x="2331" y="310" type="line"/>
      <point x="637" y="1400" type="line"/>
      <point x="433" y="1400" type="line"/>
      <point x="154" y="-204" type="line"/>
      <point x="154" y="-204"/>
      <point x="154" y="-204"/>
      <point x="154" y="-204" type="qcurve"/>
      <point x="-695" y="-204" type="line"/>
    </contour>
  </outline>
</glyph>
<glyph name="Ohorn" format="2">
  <advance width="3136"/>
  <unicode hex="01A0"/>
  <anchor x="1666" y="1564" name="top"/>
  <anchor x="1367" y="-164" name="bottom"/>
  <anchor x="2752" y="1140" name="horn"/>
  <anchor x="1501" y="0" name="ogonek"/>
  <outline>
    <contour>
      <point x="376" y="1140" type="qcurve" smooth="yes"/>
      <point x="224" y="272" type="line" smooth="yes"/>
      <point x="193.061" y="95.4236"/>
      <point x="354.516" y="-14"/>
      <point x="516" y="-14" type="qcurve" smooth="yes"/>
      <point x="2206" y="-14" type="line" smooth="yes"/>
      <point x="2367.48" y="-14"/>
      <point x="2569.06" y="93.9144"/>
      <point x="2600" y="272" type="qcurve" smooth="yes"/>
      <point x="2752" y="1140" type="line" smooth="yes"/>
      <point x="2782" y="1311"/>
      <point x="2607.5" y="1414"/>
      <point x="2456" y="1414" type="qcurve" smooth="yes"/>
      <point x="766" y="1414" type="line" smooth="yes"/>
      <point x="614.5" y="1414"/>
      <point x="406" y="1311"/>
    </contour>
    <contour>
      <point x="645" y="1170" type="line"/>
      <point x="645" y="1170"/>
      <point x="645" y="1170"/>
      <point x="645" y="1170" type="qcurve"/>
      <point x="2493" y="1170" type="line"/>
      <point x="2493" y="1170"/>
      <point x="2493" y="1170"/>
      <point x="2493" y="1170" type="qcurve"/>
      <point x="2329" y="230" type="line"/>
      <point x="2329" y="230"/>
      <point x="2329" y="230"/>
      <point x="2329" y="230" type="qcurve"/>
      <point x="481" y="230" type="line"/>
      <point x="481" y="230"/>
      <point x="481" y="230"/>
      <point x="481" y="230" type="qcurve"/>
    </contour>
    <contour>
      <point x="2724" y="983" type="line"/>
      <point x="2852.25" y="983"/>
      <point x="3035.91" y="1019.22"/>
      <point x="3159.84" y="1097.03"/>
      <point x="3230.62" y="1219.12"/>
      <point x="3246" y="1305" type="qcurve" smooth="yes"/>
      <point x="3253.55" y="1349.52"/>
      <point x="3257.06" y="1457.88"/>
      <point x="3248" y="1519" type="qcurve"/>
      <point x="3031" y="1482" type="line"/>
      <point x="3043.83" y="1435.21"/>
      <point x="3047.04" y="1354.96"/>
      <point x="3041" y="1321" type="qcurve" smooth="yes"/>
      <point x="3023.64" y="1224.41"/>
      <point x="2885.56" y="1140"/>
      <point x="2752" y="1140" type="qcurve"/>
    </contour>
  </outline>
</glyph>
<glyph name="uni01C5" format="2">
  <advance width="4710"/>
  <unicode hex="01C5"/>
  <anchor x="3967" y="1548" name="top"/>
  <anchor x="3670" y="-150" name="bottom"/>
  <anchor x="3331" y="1266" name="topright"/>
  <outline>
    <contour>
      <point x="499" y="244" type="line"/>
      <point x="658" y="1156" type="line"/>
      <point x="1918" y="1156" type="line" smooth="yes"/>
      <point x="2060.88" y="1156"/>
      <point x="2274.47" y="1110.06"/>
      <point x="2407.78" y="1005.44"/>
      <point x="2456.75" y="835.75"/>
      <point x="2435" y="712" type="qcurve" smooth="yes"/>
      <point x="2411.38" y="577"/>
      <point x="2303.91" y="397"/>
      <point x="2135.34" y="289"/>
      <point x="1905.25" y="244"/>
      <point x="1759" y="244" type="qcurve" smooth="yes"/>
    </contour>
    <contour>
      <point x="193" y="0" type="line"/>
      <point x="1725" y="0" type="line" smooth="yes"/>
      <point x="1910.62" y="0"/>
      <point x="2239.84" y="73.625"/>
      <point x="2499.91" y="239.375"/>
      <point x="2677.25" y="506.5"/>
      <point x="2711" y="700" type="qcurve" smooth="yes"/>
      <point x="2742.12" y="879.25"/>
      <point x="2665.69" y="1142.81"/>
      <point x="2470.31" y="1315.69"/>
      <point x="2165.88" y="1400"/>
      <point x="1969" y="1400" type="qcurve" smooth="yes"/>
      <point x="437" y="1400" type="line"/>
    </contour>
    <contour>
      <point x="2948" y="0" type="line"/>
      <point x="4451" y="0" type="line"/>
      <point x="4486" y="199" type="line"/>
      <point x="3484" y="199" type="line"/>
      <point x="3480" y="176" type="line"/>
      <point x="4604" y="912" type="line"/>
      <point x="4620" y="1000" type="line"/>
      <point x="3183" y="1000" type="line"/>
      <point x="3148" y="801" type="line"/>
      <point x="4072" y="801" type="line"/>
      <point x="4067" y="810" type="line"/>
      <point x="2964" y="88" type="line"/>
    </contour>
    <contour>
      <point x="4529" y="1448" type="line"/>
      <point x="4221" y="1448" type="line"/>
      <point x="3889" y="1208" type="line"/>
      <point x="3631" y="1448" type="line"/>
      <point x="3363" y="1448" type="line"/>
      <point x="3792" y="1085" type="line"/>
      <point x="3972" y="1085" type="line"/>
    </contour>
  </outline>
  <guideline angle="0" x="0" y="1549"/>
  <guideline angle="0" x="0" y="1325"/>
  <guideline angle="0" x="0" y="73"/>
</glyph>
<glyph name="uni01CC" format="2">
  <advance width="2887"/>
  <unicode hex="01CC"/>
  <anchor x="2577" y="1150" name="top"/>
  <anchor x="908" y="-150" name="bottom"/>
  <outline>
    <contour>
      <point x="150" y="0" type="line"/>
      <point x="398" y="0" type="line"/>
      <point x="535" y="786" type="line"/>
      <point x="1607" y="786" type="line"/>
      <point x="1607" y="786"/>
      <point x="1607" y="786"/>
      <point x="1607" y="786" type="qcurve"/>
      <point x="1470" y="0" type="line"/>
      <point x="1718" y="0" type="line"/>
      <point x="1851" y="760" type="line" smooth="yes"/>
      <point x="1874.25" y="893.5"/>
      <point x="1745.5" y="1010"/>
      <point x="1576" y="1010" type="qcurve" smooth="yes"/>
      <point x="856" y="1010" type="line" smooth="yes"/>
      <point x="738.282" y="1010"/>
      <point x="595.239" y="957.313"/>
      <point x="556" y="906" type="qcurve"/>
      <point x="573" y="1000" type="line"/>
      <point x="325" y="1000" type="line"/>
    </contour>
    <contour>
      <point x="1370" y="-204" type="line"/>
      <point x="1377" y="-428" type="line"/>
      <point x="2108" y="-428" type="line" smooth="yes"/>
      <point x="2192.75" y="-428"/>
      <point x="2313.47" y="-420.062"/>
      <point x="2397.28" y="-372.438"/>
      <point x="2450.12" y="-269.25"/>
      <point x="2467" y="-174" type="qcurve" smooth="yes"/>
      <point x="2672" y="1000" type="line"/>
      <point x="2424" y="1000" type="line"/>
      <point x="2213" y="-204" type="line"/>
      <point x="2213" y="-204"/>
      <point x="2213" y="-204"/>
      <point x="2213" y="-204" type="qcurve"/>
    </contour>
    <contour>
      <point x="2456" y="1230" type="line" smooth="yes"/>
      <point x="2443.93" y="1163.6"/>
      <point x="2463.6" y="1140"/>
      <point x="2530" y="1140" type="qcurve" smooth="yes"/>
      <point x="2614" y="1140" type="line" smooth="yes"/>
      <point x="2680.4" y="1140"/>
      <point x="2707.93" y="1163.6"/>
      <point x="2720" y="1230" type="qcurve" smooth="yes"/>
      <point x="2734" y="1312" type="line" smooth="yes"/>
      <point x="2745.32" y="1376.9"/>
      <point x="2725.4" y="1400"/>
      <point x="2659" y="1400" type="qcurve" smooth="yes"/>
      <point x="2575" y="1400" type="line" smooth="yes"/>
      <point x="2508.6" y="1400"/>
      <point x="2481.32" y="1376.9"/>
      <point x="2470" y="1312" type="qcurve" smooth="yes"/>
    </contour>
  </outline>
  <guideline angle="0" x="0" y="988"/>
  <guideline angle="0" x="0" y="870"/>
</glyph>
<glyph name="uni01EB" format="2">
  <advance width="2204"/>
  <unicode hex="01EB"/>
  <anchor x="1183" y="1150" name="top"/>
  <anchor x="956" y="-150" name="bottom"/>
  <anchor x="1967" y="800" name="horn"/>
  <anchor x="1091" y="0" name="ogonek"/>
  <outline>
    <contour>
      <point x="176" y="204" type="line" smooth="yes"/>
      <point x="155.626" y="87.7916"/>
      <point x="256.154" y="-10"/>
      <point x="395" y="-10" type="qcurve" smooth="yes"/>
      <point x="1571" y="-10" type="line" smooth="yes"/>
      <point x="1711.36" y="-10"/>
      <point x="1843.63" y="87.7916"/>
      <point x="1864" y="204" type="qcurve" smooth="yes"/>
      <point x="1969" y="806" type="line" smooth="yes"/>
      <point x="1987.87" y="914.662"/>
      <point x="1886.34" y="1010"/>
      <point x="1749" y="1010" type="qcurve" smooth="yes"/>
      <point x="573" y="1010" type="line" smooth="yes"/>
      <point x="435.663" y="1010"/>
      <point x="299.865" y="914.662"/>
      <point x="281" y="806" type="qcurve" smooth="yes"/>
    </contour>
    <contour>
      <point x="426" y="214" type="qcurve"/>
      <point x="526" y="786" type="line"/>
      <point x="526" y="786"/>
      <point x="526" y="786"/>
      <point x="526" y="786" type="qcurve"/>
      <point x="1718" y="786" type="line"/>
      <point x="1718" y="786"/>
      <point x="1718" y="786"/>
      <point x="1718" y="786" type="qcurve"/>
      <point x="1618" y="214" type="line"/>
      <point x="1618" y="214"/>
      <point x="1618" y="214"/>
      <point x="1618" y="214" type="qcurve"/>
      <point x="426" y="214" type="line"/>
      <point x="426" y="214"/>
      <point x="426" y="214"/>
    </contour>
    <contour>
      <point x="926.184" y="-428" type="qcurve" smooth="yes"/>
      <point x="969.607" y="-428"/>
      <point x="1035.71" y="-411.62"/>
      <point x="1084" y="-392" type="qcurve"/>
      <point x="1148" y="-213" type="line"/>
      <point x="1122.34" y="-225.074"/>
      <point x="1060" y="-238"/>
      <point x="1032.32" y="-238" type="qcurve" smooth="yes"/>
      <point x="977.748" y="-238"/>
      <point x="927.66" y="-187.927"/>
      <point x="935.839" y="-141.578" type="qcurve" smooth="yes"/>
      <point x="945.77" y="-85.3015"/>
      <point x="1038.18" y="-2.2638"/>
      <point x="1091" y="0" type="qcurve"/>
      <point x="876" y="0" type="line"/>
      <point x="808.086" y="-37.73"/>
      <point x="722.162" y="-150.748"/>
      <point x="710.361" y="-217.623" type="qcurve" smooth="yes"/>
      <point x="692.733" y="-317.515"/>
      <point x="813.405" y="-428"/>
    </contour>
  </outline>
</glyph>
<glyph name="Oslashacute" format="2">
  <advance width="3162"/>
  <unicode hex="01FE"/>
  <anchor x="1738" y="1580" name="top"/>
  <anchor x="1483" y="1515" name="topright"/>
  <outline>
    <contour>
      <point x="475" y="1140" type="qcurve" smooth="yes"/>
      <point x="323" y="272" type="line" smooth="yes"/>
      <point x="292.061" y="95.4236"/>
      <point x="453.516" y="-14"/>
      <point x="615" y="-14" type="qcurve" smooth="yes"/>
      <point x="2305" y="-14" type="line" smooth="yes"/>
      <point x="2466.48" y="-14"/>
      <point x="2668.06" y="93.9144"/>
      <point x="2699" y="272" type="qcurve" smooth="yes"/>
      <point x="2851" y="1140" type="line" smooth="yes"/>
      <point x="2881" y="1311"/>
      <point x="2706.5" y="1414"/>
      <point x="2555" y="1414" type="qcurve" smooth="yes"/>
      <point x="865" y="1414" type="line" smooth="yes"/>
      <point x="713.5" y="1414"/>
      <point x="505" y="1311"/>
    </contour>
    <contour>
      <point x="744" y="1170" type="line"/>
      <point x="744" y="1170"/>
      <point x="744" y="1170"/>
      <point x="744" y="1170" type="qcurve"/>
      <point x="2592" y="1170" type="line"/>
      <point x="2592" y="1170"/>
      <point x="2592" y="1170"/>
      <point x="2592" y="1170" type="qcurve"/>
      <point x="2428" y="230" type="line"/>
      <point x="2428" y="230"/>
      <point x="2428" y="230"/>
      <point x="2428" y="230" type="qcurve"/>
      <point x="580" y="230" type="line"/>
      <point x="580" y="230"/>
      <point x="580" y="230"/>
      <point x="580" y="230" type="qcurve"/>
    </contour>
    <contour>
      <point x="260" y="-30" type="line"/>
      <point x="489" y="79" type="line"/>
      <point x="492" y="81" type="line"/>
      <point x="2758" y="1158" type="line"/>
      <point x="2758" y="1158" type="line"/>
      <point x="2973" y="1261" type="line"/>
      <point x="2913" y="1430" type="line"/>
      <point x="2706" y="1331" type="line"/>
      <point x="2704" y="1329" type="line"/>
      <point x="441" y="255" type="line"/>
      <point x="441" y="255" type="line"/>
      <point x="199" y="139" type="line"/>
    </contour>
    <contour>
      <point x="1429" y="1515" type="line"/>
      <point x="1776" y="1515" type="line"/>
      <point x="2428" y="1830" type="line"/>
      <point x="2019" y="1830" type="line"/>
    </contour>
  </outline>
  <guideline angle="0" x="0" y="-30"/>
  <guideline angle="0" x="0" y="1430"/>
</glyph>
<glyph name="uni0204" format="2">
  <advance width="2488"/>
  <unicode hex="0204"/>
  <anchor x="1470" y="1550" name="top"/>
  <anchor x="1173" y="-150" name="bottom"/>
  <anchor x="2099" y="0" name="ogonek"/>
  <anchor x="1308.28" y="1485" name="topright"/>
  <outline>
    <contour>
      <point x="193" y="0" type="line"/>
      <point x="2211" y="0" type="line"/>
      <point x="2254" y="244" type="line"/>
      <point x="500" y="244" type="line"/>
      <point x="561" y="596" type="line"/>
      <point x="1599" y="596" type="line"/>
      <point x="1642" y="840" type="line"/>
      <point x="604" y="840" type="line"/>
      <point x="659" y="1156" type="line"/>
      <point x="2379" y="1156" type="line"/>
      <point x="2421" y="1400" type="line"/>
      <point x="437" y="1400" type="line"/>
    </contour>
    <contour>
      <point x="1998.18" y="1485" type="line"/>
      <point x="1607.78" y="1800" type="line"/>
      <point x="1260.13" y="1800" type="line"/>
      <point x="1703.23" y="1485" type="line"/>
    </contour>
    <contour>
      <point x="1354.18" y="1485" type="line"/>
      <point x="963.78" y="1800" type="line"/>
      <point x="616.13" y="1800" type="line"/>
      <point x="1059.23" y="1485" type="line"/>
    </contour>
  </outline>
  <guideline angle="90" x="-277" y="0"/>
</glyph>
<glyph name="uni0206" format="2">
  <advance width="2491"/>
  <unicode hex="0206"/>
  <anchor x="1473" y="1550" name="top"/>
  <anchor x="1176" y="-150" name="bottom"/>
  <anchor x="2102" y="0" name="ogonek"/>
  <outline>
    <contour>
      <point x="193" y="0" type="line"/>
      <point x="2211" y="0" type="line"/>
      <point x="2254" y="244" type="line"/>
      <point x="500" y="244" type="line"/>
      <point x="561" y="596" type="line"/>
      <point x="1599" y="596" type="line"/>
      <point x="1642" y="840" type="line"/>
      <point x="604" y="840" type="line"/>
      <point x="659" y="1156" type="line"/>
      <point x="2379" y="1156" type="line"/>
      <point x="2421" y="1400" type="line"/>
      <point x="437" y="1400" type="line"/>
    </contour>
    <contour>
      <point x="1537.5" y="1800" type="qcurve" smooth="yes"/>
      <point x="1430.25" y="1800"/>
      <point x="1266.17" y="1775.75"/>
      <point x="1148.73" y="1711.25"/>
      <point x="1076.06" y="1598.5"/>
      <point x="1060.22" y="1510" type="qcurve"/>
      <point x="1229.22" y="1510" type="line"/>
      <point x="1235.94" y="1547.12"/>
      <point x="1269.36" y="1594.22"/>
      <point x="1329.44" y="1621.03"/>
      <point x="1419.52" y="1631"/>
      <point x="1482.9" y="1631" type="qcurve" smooth="yes"/>
      <point x="1546.27" y="1631"/>
      <point x="1636.01" y="1621.03"/>
      <point x="1690.3" y="1594.22"/>
      <point x="1709.94" y="1547.12"/>
      <point x="1703.22" y="1510" type="qcurve"/>
      <point x="1872.22" y="1510" type="line"/>
      <point x="1888.06" y="1598.5"/>
      <point x="1867.86" y="1711.25"/>
      <point x="1788.04" y="1775.75"/>
      <point x="1644.75" y="1800"/>
    </contour>
  </outline>
  <guideline angle="90" x="-277" y="0"/>
</glyph>
<glyph name="uni0208" format="2">
  <advance width="884"/>
  <unicode hex="0208"/>
  <anchor x="593" y="1550" name="top"/>
  <anchor x="296" y="-150" name="bottom"/>
  <anchor x="455" y="0" name="ogonek"/>
  <anchor x="431.279" y="1485" name="topright"/>
  <outline>
    <contour>
      <point x="193" y="0" type="line"/>
      <point x="457" y="0" type="line"/>
      <point x="701" y="1400" type="line"/>
      <point x="437" y="1400" type="line"/>
    </contour>
    <contour>
      <point x="1121.18" y="1485" type="line"/>
      <point x="730.78" y="1800" type="line"/>
      <point x="383.13" y="1800" type="line"/>
      <point x="826.229" y="1485" type="line"/>
    </contour>
    <contour>
      <point x="477.18" y="1485" type="line"/>
      <point x="86.78" y="1800" type="line"/>
      <point x="-260.87" y="1800" type="line"/>
      <point x="182.229" y="1485" type="line"/>
    </contour>
  </outline>
</glyph>
<glyph name="uni0209" format="2">
  <advance width="783"/>
  <unicode hex="0209"/>
  <anchor x="245" y="-150" name="bottom"/>
  <anchor x="472" y="1150" name="top"/>
  <anchor x="364" y="0" name="ogonek"/>
  <outline>
    <contour>
      <point x="152" y="0" type="line"/>
      <point x="396" y="0" type="line"/>
      <point x="571" y="1000" type="line"/>
      <point x="327" y="1000" type="line"/>
    </contour>
    <contour>
      <point x="959.636" y="1085" type="line"/>
      <point x="540.032" y="1448" type="line"/>
      <point x="250.182" y="1448" type="line"/>
      <point x="696.985" y="1085" type="line"/>
    </contour>
    <contour>
      <point x="359.636" y="1085" type="line"/>
      <point x="-59.9676" y="1448" type="line"/>
      <point x="-349.818" y="1448" type="line"/>
      <point x="96.9855" y="1085" type="line"/>
    </contour>
  </outline>
</glyph>
<glyph name="uni020B" format="2">
  <advance width="783"/>
  <unicode hex="020B"/>
  <anchor x="245" y="-150" name="bottom"/>
  <anchor x="472" y="1150" name="top"/>
  <anchor x="364" y="0" name="ogonek"/>
  <outline>
    <contour>
      <point x="152" y="0" type="line"/>
      <point x="396" y="0" type="line"/>
      <point x="571" y="1000" type="line"/>
      <point x="327" y="1000" type="line"/>
    </contour>
    <contour>
      <point x="537.503" y="1417" type="qcurve" smooth="yes"/>
      <point x="437.003" y="1417"/>
      <point x="283.278" y="1391.38"/>
      <point x="172.581" y="1323.12"/>
      <point x="102.79" y="1203.75"/>
      <point x="86.2241" y="1110" type="qcurve"/>
      <point x="244.224" y="1110" type="line"/>
      <point x="252.375" y="1156.5"/>
      <point x="285.259" y="1215.62"/>
      <point x="342.35" y="1249.38"/>
      <point x="427.46" y="1262"/>
      <point x="487.835" y="1262" type="qcurve" smooth="yes"/>
      <point x="547.085" y="1262"/>
      <point x="630.007" y="1249.38"/>
      <point x="678.853" y="1215.62"/>
      <point x="694.375" y="1156.5"/>
      <point x="686.224" y="1110" type="qcurve"/>
      <point x="844.224" y="1110" type="line"/>
      <point x="860.79" y="1203.75"/>
      <point x="844.175" y="1323.12"/>
      <point x="770.934" y="1391.38"/>
      <point x="637.628" y="1417"/>
    </contour>
  </outline>
</glyph>
<glyph name="uni020C" format="2">
  <advance width="2967"/>
  <unicode hex="020C"/>
  <anchor x="1666" y="1564" name="top"/>
  <anchor x="1367" y="-164" name="bottom"/>
  <anchor x="2752" y="1140" name="horn"/>
  <anchor x="1501" y="0" name="ogonek"/>
  <anchor x="1504.28" y="1499" name="topright"/>
  <outline>
    <contour>
      <point x="376" y="1140" type="qcurve" smooth="yes"/>
      <point x="224" y="272" type="line" smooth="yes"/>
      <point x="193.061" y="95.4236"/>
      <point x="354.516" y="-14"/>
      <point x="516" y="-14" type="qcurve" smooth="yes"/>
      <point x="2206" y="-14" type="line" smooth="yes"/>
      <point x="2367.48" y="-14"/>
      <point x="2569.06" y="93.9144"/>
      <point x="2600" y="272" type="qcurve" smooth="yes"/>
      <point x="2752" y="1140" type="line" smooth="yes"/>
      <point x="2782" y="1311"/>
      <point x="2607.5" y="1414"/>
      <point x="2456" y="1414" type="qcurve" smooth="yes"/>
      <point x="766" y="1414" type="line" smooth="yes"/>
      <point x="614.5" y="1414"/>
      <point x="406" y="1311"/>
    </contour>
    <contour>
      <point x="645" y="1170" type="line"/>
      <point x="645" y="1170"/>
      <point x="645" y="1170"/>
      <point x="645" y="1170" type="qcurve"/>
      <point x="2493" y="1170" type="line"/>
      <point x="2493" y="1170"/>
      <point x="2493" y="1170"/>
      <point x="2493" y="1170" type="qcurve"/>
      <point x="2329" y="230" type="line"/>
      <point x="2329" y="230"/>
      <point x="2329" y="230"/>
      <point x="2329" y="230" type="qcurve"/>
      <point x="481" y="230" type="line"/>
      <point x="481" y="230"/>
      <point x="481" y="230"/>
      <point x="481" y="230" type="qcurve"/>
    </contour>
    <contour>
      <point x="2194.18" y="1499" type="line"/>
      <point x="1803.78" y="1814" type="line"/>
      <point x="1456.13" y="1814" type="line"/>
      <point x="1899.23" y="1499" type="line"/>
    </contour>
    <contour>
      <point x="1550.18" y="1499" type="line"/>
      <point x="1159.78" y="1814" type="line"/>
      <point x="812.13" y="1814" type="line"/>
      <point x="1255.23" y="1499" type="line"/>
    </contour>
  </outline>
</glyph>
<glyph name="uni020D" format="2">
  <advance width="2204"/>
  <unicode hex="020D"/>
  <anchor x="1183" y="1150" name="top"/>
  <anchor x="956" y="-150" name="bottom"/>
  <anchor x="1967" y="800" name="horn"/>
  <anchor x="1091" y="0" name="ogonek"/>
  <outline>
    <contour>
      <point x="176" y="204" type="line" smooth="yes"/>
      <point x="155.626" y="87.7916"/>
      <point x="256.154" y="-10"/>
      <point x="395" y="-10" type="qcurve" smooth="yes"/>
      <point x="1571" y="-10" type="line" smooth="yes"/>
      <point x="1711.36" y="-10"/>
      <point x="1843.63" y="87.7916"/>
      <point x="1864" y="204" type="qcurve" smooth="yes"/>
      <point x="1969" y="806" type="line" smooth="yes"/>
      <point x="1987.87" y="914.662"/>
      <point x="1886.34" y="1010"/>
      <point x="1749" y="1010" type="qcurve" smooth="yes"/>
      <point x="573" y="1010" type="line" smooth="yes"/>
      <point x="435.663" y="1010"/>
      <point x="299.865" y="914.662"/>
      <point x="281" y="806" type="qcurve" smooth="yes"/>
    </contour>
    <contour>
      <point x="426" y="214" type="qcurve"/>
      <point x="526" y="786" type="line"/>
      <point x="526" y="786"/>
      <point x="526" y="786"/>
      <point x="526" y="786" type="qcurve"/>
      <point x="1718" y="786" type="line"/>
      <point x="1718" y="786"/>
      <point x="1718" y="786"/>
      <point x="1718" y="786" type="qcurve"/>
      <point x="1618" y="214" type="line"/>
      <point x="1618" y="214"/>
      <point x="1618" y="214"/>
      <point x="1618" y="214" type="qcurve"/>
      <point x="426" y="214" type="line"/>
      <point x="426" y="214"/>
      <point x="426" y="214"/>
    </contour>
    <contour>
      <point x="1670.64" y="1085" type="line"/>
      <point x="1251.03" y="1448" type="line"/>
      <point x="961.182" y="1448" type="line"/>
      <point x="1407.99" y="1085" type="line"/>
    </contour>
    <contour>
      <point x="1070.64" y="1085" type="line"/>
      <point x="651.032" y="1448" type="line"/>
      <point x="361.182" y="1448" type="line"/>
      <point x="807.985" y="1085" type="line"/>
    </contour>
  </outline>
</glyph>
<glyph name="uni020E" format="2">
  <advance width="2967"/>
  <unicode hex="020E"/>
  <anchor x="1666" y="1564" name="top"/>
  <anchor x="1367" y="-164" name="bottom"/>
  <anchor x="2752" y="1140" name="horn"/>
  <anchor x="1501" y="0" name="ogonek"/>
  <outline>
    <contour>
      <point x="376" y="1140" type="qcurve" smooth="yes"/>
      <point x="224" y="272" type="line" smooth="yes"/>
      <point x="193.061" y="95.4236"/>
      <point x="354.516" y="-14"/>
      <point x="516" y="-14" type="qcurve" smooth="yes"/>
      <point x="2206" y="-14" type="line" smooth="yes"/>
      <point x="2367.48" y="-14"/>
      <point x="2569.06" y="93.9144"/>
      <point x="2600" y="272" type="qcurve" smooth="yes"/>
      <point x="2752" y="1140" type="line" smooth="yes"/>
      <point x="2782" y="1311"/>
      <point x="2607.5" y="1414"/>
      <point x="2456" y="1414" type="qcurve" smooth="yes"/>
      <point x="766" y="1414" type="line" smooth="yes"/>
      <point x="614.5" y="1414"/>
      <point x="406" y="1311"/>
    </contour>
    <contour>
      <point x="645" y="1170" type="line"/>
      <point x="645" y="1170"/>
      <point x="645" y="1170"/>
      <point x="645" y="1170" type="qcurve"/>
      <point x="2493" y="1170" type="line"/>
      <point x="2493" y="1170"/>
      <point x="2493" y="1170"/>
      <point x="2493" y="1170" type="qcurve"/>
      <point x="2329" y="230" type="line"/>
      <point x="2329" y="230"/>
      <point x="2329" y="230"/>
      <point x="2329" y="230" type="qcurve"/>
      <point x="481" y="230" type="line"/>
      <point x="481" y="230"/>
      <point x="481" y="230"/>
      <point x="481" y="230" type="qcurve"/>
    </contour>
    <contour>
      <point x="1730.5" y="1814" type="qcurve" smooth="yes"/>
      <point x="1623.25" y="1814"/>
      <point x="1459.17" y="1789.75"/>
      <point x="1341.73" y="1725.25"/>
      <point x="1269.06" y="1612.5"/>
      <point x="1253.22" y="1524" type="qcurve"/>
      <point x="1422.22" y="1524" type="line"/>
      <point x="1428.94" y="1561.12"/>
      <point x="1462.36" y="1608.22"/>
      <point x="1522.44" y="1635.03"/>
      <point x="1612.52" y="1645"/>
      <point x="1675.9" y="1645" type="qcurve" smooth="yes"/>
      <point x="1739.27" y="1645"/>
      <point x="1829.01" y="1635.03"/>
      <point x="1883.3" y="1608.22"/>
      <point x="1902.94" y="1561.12"/>
      <point x="1896.22" y="1524" type="qcurve"/>
      <point x="2065.22" y="1524" type="line"/>
      <point x="2081.06" y="1612.5"/>
      <point x="2060.86" y="1725.25"/>
      <point x="1981.04" y="1789.75"/>
      <point x="1837.75" y="1814"/>
    </contour>
  </outline>
</glyph>
<glyph name="uni020F" format="2">
  <advance width="2207"/>
  <unicode hex="020F"/>
  <anchor x="1186" y="1150" name="top"/>
  <anchor x="959" y="-150" name="bottom"/>
  <anchor x="1970" y="800" name="horn"/>
  <anchor x="1094" y="0" name="ogonek"/>
  <outline>
    <contour>
      <point x="176" y="204" type="line" smooth="yes"/>
      <point x="155.626" y="87.7916"/>
      <point x="256.154" y="-10"/>
      <point x="395" y="-10" type="qcurve" smooth="yes"/>
      <point x="1571" y="-10" type="line" smooth="yes"/>
      <point x="1711.36" y="-10"/>
      <point x="1843.63" y="87.7916"/>
      <point x="1864" y="204" type="qcurve" smooth="yes"/>
      <point x="1969" y="806" type="line" smooth="yes"/>
      <point x="1987.87" y="914.662"/>
      <point x="1886.34" y="1010"/>
      <point x="1749" y="1010" type="qcurve" smooth="yes"/>
      <point x="573" y="1010" type="line" smooth="yes"/>
      <point x="435.663" y="1010"/>
      <point x="299.865" y="914.662"/>
      <point x="281" y="806" type="qcurve" smooth="yes"/>
    </contour>
    <contour>
      <point x="426" y="214" type="qcurve"/>
      <point x="526" y="786" type="line"/>
      <point x="526" y="786"/>
      <point x="526" y="786"/>
      <point x="526" y="786" type="qcurve"/>
      <point x="1718" y="786" type="line"/>
      <point x="1718" y="786"/>
      <point x="1718" y="786"/>
      <point x="1718" y="786" type="qcurve"/>
      <point x="1618" y="214" type="line"/>
      <point x="1618" y="214"/>
      <point x="1618" y="214"/>
      <point x="1618" y="214" type="qcurve"/>
      <point x="426" y="214" type="line"/>
      <point x="426" y="214"/>
      <point x="426" y="214"/>
    </contour>
    <contour>
      <point x="1251.5" y="1417" type="qcurve" smooth="yes"/>
      <point x="1151" y="1417"/>
      <point x="997.278" y="1391.38"/>
      <point x="886.581" y="1323.12"/>
      <point x="816.79" y="1203.75"/>
      <point x="800.224" y="1110" type="qcurve"/>
      <point x="958.224" y="1110" type="line"/>
      <point x="966.375" y="1156.5"/>
      <point x="999.259" y="1215.62"/>
      <point x="1056.35" y="1249.38"/>
      <point x="1141.46" y="1262"/>
      <point x="1201.83" y="1262" type="qcurve" smooth="yes"/>
      <point x="1261.08" y="1262"/>
      <point x="1344.01" y="1249.38"/>
      <point x="1392.85" y="1215.62"/>
      <point x="1408.37" y="1156.5"/>
      <point x="1400.22" y="1110" type="qcurve"/>
      <point x="1558.22" y="1110" type="line"/>
      <point x="1574.79" y="1203.75"/>
      <point x="1558.17" y="1323.12"/>
      <point x="1484.93" y="1391.38"/>
      <point x="1351.63" y="1417"/>
    </contour>
  </outline>
</glyph>
<glyph name="uni0210" format="2">
  <advance width="2840"/>
  <unicode hex="0210"/>
  <anchor x="1420" y="-150" name="bottom"/>
  <anchor x="1420" y="1550" name="top"/>
  <anchor x="1258.28" y="1485" name="topright"/>
  <outline>
    <contour>
      <point x="193" y="0" type="line"/>
      <point x="457" y="0" type="line"/>
      <point x="549" y="528" type="line"/>
      <point x="1273" y="528" type="line"/>
      <point x="2120" y="0" type="line"/>
      <point x="2599" y="0" type="line"/>
      <point x="1732" y="528" type="line"/>
      <point x="2213" y="528" type="line" smooth="yes"/>
      <point x="2385.5" y="528"/>
      <point x="2579.75" y="657.5"/>
      <point x="2603" y="788" type="qcurve" smooth="yes"/>
      <point x="2662" y="1126" type="line" smooth="yes"/>
      <point x="2691.25" y="1297"/>
      <point x="2516.5" y="1400"/>
      <point x="2365" y="1400" type="qcurve" smooth="yes"/>
      <point x="437" y="1400" type="line"/>
    </contour>
    <contour>
      <point x="592" y="772" type="line"/>
      <point x="659" y="1156" type="line"/>
      <point x="2297" y="1156" type="line" smooth="yes"/>
      <point x="2349.82" y="1156"/>
      <point x="2394.81" y="1108.82"/>
      <point x="2385" y="1056" type="qcurve" smooth="yes"/>
      <point x="2353" y="872" type="line" smooth="yes"/>
      <point x="2342.44" y="811.632"/>
      <point x="2282.82" y="772"/>
      <point x="2230" y="772" type="qcurve" smooth="yes"/>
    </contour>
    <contour>
      <point x="1948.18" y="1485" type="line"/>
      <point x="1557.78" y="1800" type="line"/>
      <point x="1210.13" y="1800" type="line"/>
      <point x="1653.23" y="1485" type="line"/>
    </contour>
    <contour>
      <point x="1304.18" y="1485" type="line"/>
      <point x="913.78" y="1800" type="line"/>
      <point x="566.13" y="1800" type="line"/>
      <point x="1009.23" y="1485" type="line"/>
    </contour>
  </outline>
  <guideline angle="90" color="0.4,0.4,0.4,1" name="halfwidth" x="1420" y="0"/>
</glyph>
<glyph name="uni0213" format="2">
  <advance width="1802"/>
  <unicode hex="0213"/>
  <anchor x="1063" y="1150" name="top"/>
  <anchor x="251" y="-150" name="bottom"/>
  <anchor x="140" y="500" name="left"/>
  <outline>
    <contour>
      <point x="152" y="0" type="line"/>
      <point x="400" y="0" type="line"/>
      <point x="535" y="776" type="line"/>
      <point x="1457" y="776" type="line"/>
      <point x="1457" y="776"/>
      <point x="1457" y="776"/>
      <point x="1457" y="776" type="qcurve"/>
      <point x="1433" y="634" type="line"/>
      <point x="1689" y="681" type="line"/>
      <point x="1701" y="750" type="line" smooth="yes"/>
      <point x="1712.62" y="816.75"/>
      <point x="1693.47" y="911.562"/>
      <point x="1627.28" y="971.938"/>
      <point x="1511.75" y="1000"/>
      <point x="1427" y="1000" type="qcurve" smooth="yes"/>
      <point x="857" y="1000" type="line" smooth="yes"/>
      <point x="739.282" y="1000"/>
      <point x="595.239" y="947.313"/>
      <point x="556" y="896" type="qcurve"/>
      <point x="575" y="1000" type="line"/>
      <point x="327" y="1000" type="line"/>
    </contour>
    <contour>
      <point x="1128.5" y="1417" type="qcurve" smooth="yes"/>
      <point x="1028" y="1417"/>
      <point x="874.278" y="1391.38"/>
      <point x="763.581" y="1323.12"/>
      <point x="693.79" y="1203.75"/>
      <point x="677.224" y="1110" type="qcurve"/>
      <point x="835.224" y="1110" type="line"/>
      <point x="843.375" y="1156.5"/>
      <point x="876.259" y="1215.62"/>
      <point x="933.35" y="1249.38"/>
      <point x="1018.46" y="1262"/>
      <point x="1078.83" y="1262" type="qcurve" smooth="yes"/>
      <point x="1138.08" y="1262"/>
      <point x="1221.01" y="1249.38"/>
      <point x="1269.85" y="1215.62"/>
      <point x="1285.37" y="1156.5"/>
      <point x="1277.22" y="1110" type="qcurve"/>
      <point x="1435.22" y="1110" type="line"/>
      <point x="1451.79" y="1203.75"/>
      <point x="1435.17" y="1323.12"/>
      <point x="1361.93" y="1391.38"/>
      <point x="1228.63" y="1417"/>
    </contour>
  </outline>
  <guideline angle="0" x="0" y="988"/>
  <guideline angle="0" x="0" y="870"/>
</glyph>
<glyph name="uni0215" format="2">
  <advance width="2109"/>
  <unicode hex="0215"/>
  <anchor x="1138" y="1150" name="top"/>
  <anchor x="909" y="-160" name="bottom"/>
  <anchor x="1044" y="0" name="ogonek"/>
  <anchor x="1903" y="1000" name="horn"/>
  <outline>
    <contour>
      <point x="178" y="194" type="line" smooth="yes"/>
      <point x="156.117" y="67.2272"/>
      <point x="271.301" y="-10"/>
      <point x="386" y="-10" type="qcurve" smooth="yes"/>
      <point x="1478" y="-10" type="line" smooth="yes"/>
      <point x="1592.7" y="-10"/>
      <point x="1738.12" y="67.2272"/>
      <point x="1760" y="194" type="qcurve" smooth="yes"/>
      <point x="1901" y="1000" type="line"/>
      <point x="1653" y="1000" type="line"/>
      <point x="1515" y="214" type="line"/>
      <point x="1515" y="214"/>
      <point x="1515" y="214"/>
      <point x="1515" y="214" type="qcurve"/>
      <point x="429" y="214" type="line"/>
      <point x="429" y="214"/>
      <point x="429" y="214"/>
      <point x="429" y="214" type="qcurve"/>
      <point x="567" y="1000" type="line"/>
      <point x="319" y="1000" type="line"/>
    </contour>
    <contour>
      <point x="1625.64" y="1085" type="line"/>
      <point x="1206.03" y="1448" type="line"/>
      <point x="916.182" y="1448" type="line"/>
      <point x="1362.99" y="1085" type="line"/>
    </contour>
    <contour>
      <point x="1025.64" y="1085" type="line"/>
      <point x="606.032" y="1448" type="line"/>
      <point x="316.182" y="1448" type="line"/>
      <point x="762.985" y="1085" type="line"/>
    </contour>
  </outline>
</glyph>
<glyph name="uni0216" format="2">
  <advance width="2764"/>
  <unicode hex="0216"/>
  <anchor x="1532" y="1550" name="top"/>
  <anchor x="1235" y="-150" name="bottom"/>
  <anchor x="1394" y="0" name="ogonek"/>
  <anchor x="2585" y="1400" name="horn"/>
  <outline>
    <contour>
      <point x="429" y="1400" type="line"/>
      <point x="232" y="272" type="line" smooth="yes"/>
      <point x="216.625" y="183.5"/>
      <point x="244.406" y="72"/>
      <point x="321.844" y="9"/>
      <point x="444.5" y="-14"/>
      <point x="524" y="-14" type="qcurve" smooth="yes"/>
      <point x="1998" y="-14" type="line" smooth="yes"/>
      <point x="2158.5" y="-14"/>
      <point x="2361.25" y="95"/>
      <point x="2392" y="272" type="qcurve" smooth="yes"/>
      <point x="2589" y="1400" type="line"/>
      <point x="2325" y="1400" type="line"/>
      <point x="2122" y="240" type="line"/>
      <point x="2122" y="240"/>
      <point x="2122" y="240"/>
      <point x="2122" y="240" type="qcurve"/>
      <point x="490" y="240" type="line"/>
      <point x="490" y="240"/>
      <point x="490" y="240"/>
      <point x="490" y="240" type="qcurve"/>
      <point x="693" y="1400" type="line"/>
    </contour>
    <contour>
      <point x="1596.5" y="1800" type="qcurve" smooth="yes"/>
      <point x="1489.25" y="1800"/>
      <point x="1325.17" y="1775.75"/>
      <point x="1207.73" y="1711.25"/>
      <point x="1135.06" y="1598.5"/>
      <point x="1119.22" y="1510" type="qcurve"/>
      <point x="1288.22" y="1510" type="line"/>
      <point x="1294.94" y="1547.12"/>
      <point x="1328.36" y="1594.22"/>
      <point x="1388.44" y="1621.03"/>
      <point x="1478.52" y="1631"/>
      <point x="1541.9" y="1631" type="qcurve" smooth="yes"/>
      <point x="1605.27" y="1631"/>
      <point x="1695.01" y="1621.03"/>
      <point x="1749.3" y="1594.22"/>
      <point x="1768.94" y="1547.12"/>
      <point x="1762.22" y="1510" type="qcurve"/>
      <point x="1931.22" y="1510" type="line"/>
      <point x="1947.06" y="1598.5"/>
      <point x="1926.86" y="1711.25"/>
      <point x="1847.04" y="1775.75"/>
      <point x="1703.75" y="1800"/>
    </contour>
  </outline>
</glyph>
<glyph name="uni021B" format="2">
  <advance width="1339"/>
  <unicode hex="021B"/>
  <anchor x="788" y="1394" name="top"/>
  <anchor x="517" y="-160" name="bottom"/>
  <anchor x="793" y="1400" name="right"/>
  <outline>
    <contour>
      <point x="555" y="-10" type="qcurve" smooth="yes"/>
      <point x="1049" y="-10" type="line"/>
      <point x="1127" y="194" type="line"/>
      <point x="583" y="194" type="line"/>
      <point x="583" y="194"/>
      <point x="583" y="194"/>
      <point x="583" y="194" type="qcurve"/>
      <point x="688" y="796" type="line"/>
      <point x="1240" y="796" type="line"/>
      <point x="1276" y="1000" type="line"/>
      <point x="724" y="1000" type="line"/>
      <point x="766" y="1244" type="line"/>
      <point x="518" y="1244" type="line"/>
      <point x="476" y="1000" type="line"/>
      <point x="164" y="1000" type="line"/>
      <point x="128" y="796" type="line"/>
      <point x="440" y="796" type="line"/>
      <point x="337" y="204" type="line" smooth="yes"/>
      <point x="316.626" y="87.7916"/>
      <point x="416.154" y="-10"/>
    </contour>
    <contour>
      <point x="400" y="-615" type="line"/>
      <point x="591" y="-363" type="line"/>
      <point x="597.791" y="-353.19"/>
      <point x="608.718" y="-313.184"/>
      <point x="614" y="-283" type="qcurve" smooth="yes"/>
      <point x="624" y="-229" type="line" smooth="yes"/>
      <point x="635.319" y="-161.086"/>
      <point x="617.159" y="-137"/>
      <point x="550" y="-137" type="qcurve" smooth="yes"/>
      <point x="491" y="-137" type="line" smooth="yes"/>
      <point x="424.595" y="-137"/>
      <point x="396.319" y="-161.086"/>
      <point x="385" y="-229" type="qcurve"/>
      <point x="375" y="-283" type="line" smooth="yes"/>
      <point x="362.926" y="-353.178"/>
      <point x="381.595" y="-377"/>
      <point x="448" y="-377" type="qcurve" smooth="yes"/>
      <point x="470" y="-377" type="line"/>
      <point x="334" y="-590" type="line"/>
    </contour>
  </outline>
</glyph>
<glyph name="uni022A" format="2">
  <advance width="2967"/>
  <unicode hex="022A"/>
  <anchor x="1781" y="2214" name="top"/>
  <anchor x="1367" y="-164" name="bottom"/>
  <anchor x="2752" y="1140" name="horn"/>
  <anchor x="1501" y="0" name="ogonek"/>
  <outline>
    <contour>
      <point x="376" y="1140" type="qcurve" smooth="yes"/>
      <point x="224" y="272" type="line" smooth="yes"/>
      <point x="193.061" y="95.4236"/>
      <point x="354.516" y="-14"/>
      <point x="516" y="-14" type="qcurve" smooth="yes"/>
      <point x="2206" y="-14" type="line" smooth="yes"/>
      <point x="2367.48" y="-14"/>
      <point x="2569.06" y="93.9144"/>
      <point x="2600" y="272" type="qcurve" smooth="yes"/>
      <point x="2752" y="1140" type="line" smooth="yes"/>
      <point x="2782" y="1311"/>
      <point x="2607.5" y="1414"/>
      <point x="2456" y="1414" type="qcurve" smooth="yes"/>
      <point x="766" y="1414" type="line" smooth="yes"/>
      <point x="614.5" y="1414"/>
      <point x="406" y="1311"/>
    </contour>
    <contour>
      <point x="645" y="1170" type="line"/>
      <point x="645" y="1170"/>
      <point x="645" y="1170"/>
      <point x="645" y="1170" type="qcurve"/>
      <point x="2493" y="1170" type="line"/>
      <point x="2493" y="1170"/>
      <point x="2493" y="1170"/>
      <point x="2493" y="1170" type="qcurve"/>
      <point x="2329" y="230" type="line"/>
      <point x="2329" y="230"/>
      <point x="2329" y="230"/>
      <point x="2329" y="230" type="qcurve"/>
      <point x="481" y="230" type="line"/>
      <point x="481" y="230"/>
      <point x="481" y="230"/>
      <point x="481" y="230" type="qcurve"/>
    </contour>
    <contour>
      <point x="1374" y="1554" type="qcurve" smooth="yes"/>
      <point x="1444" y="1554" type="line" smooth="yes"/>
      <point x="1510.4" y="1554"/>
      <point x="1538.68" y="1577.6"/>
      <point x="1550" y="1644" type="qcurve" smooth="yes"/>
      <point x="1563" y="1716" type="line" smooth="yes"/>
      <point x="1574.32" y="1780.9"/>
      <point x="1555.4" y="1804"/>
      <point x="1489" y="1804" type="qcurve" smooth="yes"/>
      <point x="1419" y="1804" type="line" smooth="yes"/>
      <point x="1352.6" y="1804"/>
      <point x="1324.32" y="1780.9"/>
      <point x="1313" y="1716" type="qcurve" smooth="yes"/>
      <point x="1300" y="1644" type="line" smooth="yes"/>
      <point x="1288.68" y="1577.6"/>
      <point x="1307.6" y="1554"/>
    </contour>
    <contour>
      <point x="1884" y="1554" type="qcurve" smooth="yes"/>
      <point x="1954" y="1554" type="line" smooth="yes"/>
      <point x="2020.4" y="1554"/>
      <point x="2048.68" y="1577.6"/>
      <point x="2060" y="1644" type="qcurve" smooth="yes"/>
      <point x="2073" y="1716" type="line" smooth="yes"/>
      <point x="2084.32" y="1780.9"/>
      <point x="2065.4" y="1804"/>
      <point x="1999" y="1804" type="qcurve" smooth="yes"/>
      <point x="1929" y="1804" type="line" smooth="yes"/>
      <point x="1862.6" y="1804"/>
      <point x="1834.32" y="1780.9"/>
      <point x="1823" y="1716" type="qcurve" smooth="yes"/>
      <point x="1810" y="1644" type="line" smooth="yes"/>
      <point x="1798.68" y="1577.6"/>
      <point x="1817.6" y="1554"/>
    </contour>
    <contour>
      <point x="1252" y="1944" type="line"/>
      <point x="2215" y="1944" type="line"/>
      <point x="2245" y="2114" type="line"/>
      <point x="1282" y="2114" type="line"/>
    </contour>
  </outline>
</glyph>
<glyph name="uni022D" format="2">
  <advance width="2204"/>
  <unicode hex="022D"/>
  <anchor x="1295" y="1785" name="top"/>
  <anchor x="956" y="-150" name="bottom"/>
  <anchor x="1967" y="800" name="horn"/>
  <anchor x="1091" y="0" name="ogonek"/>
  <outline>
    <contour>
      <point x="176" y="204" type="line" smooth="yes"/>
      <point x="155.626" y="87.7916"/>
      <point x="256.154" y="-10"/>
      <point x="395" y="-10" type="qcurve" smooth="yes"/>
      <point x="1571" y="-10" type="line" smooth="yes"/>
      <point x="1711.36" y="-10"/>
      <point x="1843.63" y="87.7916"/>
      <point x="1864" y="204" type="qcurve" smooth="yes"/>
      <point x="1969" y="806" type="line" smooth="yes"/>
      <point x="1987.87" y="914.662"/>
      <point x="1886.34" y="1010"/>
      <point x="1749" y="1010" type="qcurve" smooth="yes"/>
      <point x="573" y="1010" type="line" smooth="yes"/>
      <point x="435.663" y="1010"/>
      <point x="299.865" y="914.662"/>
      <point x="281" y="806" type="qcurve" smooth="yes"/>
    </contour>
    <contour>
      <point x="426" y="214" type="qcurve"/>
      <point x="526" y="786" type="line"/>
      <point x="526" y="786"/>
      <point x="526" y="786"/>
      <point x="526" y="786" type="qcurve"/>
      <point x="1718" y="786" type="line"/>
      <point x="1718" y="786"/>
      <point x="1718" y="786"/>
      <point x="1718" y="786" type="qcurve"/>
      <point x="1618" y="214" type="line"/>
      <point x="1618" y="214"/>
      <point x="1618" y="214"/>
      <point x="1618" y="214" type="qcurve"/>
      <point x="426" y="214" type="line"/>
      <point x="426" y="214"/>
      <point x="426" y="214"/>
    </contour>
    <contour>
      <point x="720" y="1158" type="qcurve"/>
      <point x="875" y="1130" type="line"/>
      <point x="894.62" y="1182.82"/>
      <point x="963.215" y="1230"/>
      <point x="1010" y="1230" type="qcurve" smooth="yes"/>
      <point x="1040.75" y="1230"/>
      <point x="1130.09" y="1198.75"/>
      <point x="1232.66" y="1161.25"/>
      <point x="1341.12" y="1130"/>
      <point x="1391" y="1130" type="qcurve" smooth="yes"/>
      <point x="1466.75" y="1130"/>
      <point x="1651" y="1234"/>
      <point x="1687" y="1372" type="qcurve"/>
      <point x="1532" y="1400" type="line"/>
      <point x="1512.38" y="1347.18"/>
      <point x="1443.79" y="1300"/>
      <point x="1397" y="1300" type="qcurve" smooth="yes"/>
      <point x="1366.25" y="1300"/>
      <point x="1276.91" y="1331.25"/>
      <point x="1174.34" y="1368.75"/>
      <point x="1065.88" y="1400"/>
      <point x="1016" y="1400" type="qcurve" smooth="yes"/>
      <point x="940.25" y="1400"/>
      <point x="755.25" y="1294.5"/>
    </contour>
    <contour>
      <point x="808" y="1525" type="line"/>
      <point x="1691" y="1525" type="line"/>
      <point x="1719" y="1685" type="line"/>
      <point x="836" y="1685" type="line"/>
    </contour>
  </outline>
  <guideline angle="0" x="0" y="1691"/>
</glyph>
<glyph name="uni0230" format="2">
  <advance width="2967"/>
  <unicode hex="0230"/>
  <anchor x="1777" y="2193" name="top"/>
  <anchor x="1367" y="-164" name="bottom"/>
  <anchor x="2752" y="1140" name="horn"/>
  <anchor x="1501" y="0" name="ogonek"/>
  <outline>
    <contour>
      <point x="376" y="1140" type="qcurve" smooth="yes"/>
      <point x="224" y="272" type="line" smooth="yes"/>
      <point x="193.061" y="95.4236"/>
      <point x="354.516" y="-14"/>
      <point x="516" y="-14" type="qcurve" smooth="yes"/>
      <point x="2206" y="-14" type="line" smooth="yes"/>
      <point x="2367.48" y="-14"/>
      <point x="2569.06" y="93.9144"/>
      <point x="2600" y="272" type="qcurve" smooth="yes"/>
      <point x="2752" y="1140" type="line" smooth="yes"/>
      <point x="2782" y="1311"/>
      <point x="2607.5" y="1414"/>
      <point x="2456" y="1414" type="qcurve" smooth="yes"/>
      <point x="766" y="1414" type="line" smooth="yes"/>
      <point x="614.5" y="1414"/>
      <point x="406" y="1311"/>
    </contour>
    <contour>
      <point x="645" y="1170" type="line"/>
      <point x="645" y="1170"/>
      <point x="645" y="1170"/>
      <point x="645" y="1170" type="qcurve"/>
      <point x="2493" y="1170" type="line"/>
      <point x="2493" y="1170"/>
      <point x="2493" y="1170"/>
      <point x="2493" y="1170" type="qcurve"/>
      <point x="2329" y="230" type="line"/>
      <point x="2329" y="230"/>
      <point x="2329" y="230"/>
      <point x="2329" y="230" type="qcurve"/>
      <point x="481" y="230" type="line"/>
      <point x="481" y="230"/>
      <point x="481" y="230"/>
      <point x="481" y="230" type="qcurve"/>
    </contour>
    <contour>
      <point x="1633" y="1556" type="qcurve" smooth="yes"/>
      <point x="1697" y="1556" type="line" smooth="yes"/>
      <point x="1767.18" y="1556"/>
      <point x="1796.17" y="1581.07"/>
      <point x="1809" y="1652" type="qcurve" smooth="yes"/>
      <point x="1821" y="1718" type="line" smooth="yes"/>
      <point x="1833.07" y="1788.18"/>
      <point x="1812.18" y="1813"/>
      <point x="1742" y="1813" type="qcurve" smooth="yes"/>
      <point x="1678" y="1813" type="line" smooth="yes"/>
      <point x="1607.82" y="1813"/>
      <point x="1579.07" y="1788.18"/>
      <point x="1567" y="1718" type="qcurve" smooth="yes"/>
      <point x="1555" y="1652" type="line" smooth="yes"/>
      <point x="1542.17" y="1581.07"/>
      <point x="1562.82" y="1556"/>
    </contour>
    <contour>
      <point x="1248" y="1923" type="line"/>
      <point x="2211" y="1923" type="line"/>
      <point x="2241" y="2093" type="line"/>
      <point x="1278" y="2093" type="line"/>
    </contour>
  </outline>
</glyph>
<glyph name="uni0254" format="2">
  <advance width="2109"/>
  <unicode hex="0254"/>
  <anchor x="1109" y="1150" name="top"/>
  <anchor x="878" y="-150" name="bottom"/>
  <outline>
    <contour>
      <point x="335" y="-10" type="qcurve" smooth="yes"/>
      <point x="1473" y="-10" type="line" smooth="yes"/>
      <point x="1596.75" y="-10"/>
      <point x="1745.63" y="86.2824"/>
      <point x="1766" y="204" type="qcurve" smooth="yes"/>
      <point x="1871" y="806" type="line" smooth="yes"/>
      <point x="1889.11" y="907.116"/>
      <point x="1764.94" y="1010"/>
      <point x="1651" y="1010" type="qcurve" smooth="yes"/>
      <point x="517" y="1010" type="line" smooth="yes"/>
      <point x="394.755" y="1010"/>
      <point x="245.374" y="921.454"/>
      <point x="225" y="806" type="qcurve" smooth="yes"/>
      <point x="205" y="690" type="line"/>
      <point x="445" y="644" type="line"/>
      <point x="470" y="786" type="line"/>
      <point x="470" y="786"/>
      <point x="470" y="786"/>
      <point x="470" y="786" type="qcurve"/>
      <point x="1620" y="786" type="line"/>
      <point x="1620" y="786"/>
      <point x="1620" y="786"/>
      <point x="1620" y="786" type="qcurve"/>
      <point x="1520" y="214" type="line"/>
      <point x="1520" y="214"/>
      <point x="1520" y="214"/>
      <point x="1520" y="214" type="qcurve"/>
      <point x="366" y="214" type="line"/>
      <point x="366" y="214"/>
      <point x="366" y="214"/>
      <point x="366" y="214" type="qcurve"/>
      <point x="393" y="366" type="line"/>
      <point x="136" y="316" type="line"/>
      <point x="116" y="204" type="line" smooth="yes"/>
      <point x="97.8896" y="99.8652"/>
      <point x="219.546" y="-10"/>
    </contour>
  </outline>
</glyph>
<glyph name="uni02BC" format="2">
  <advance width="872"/>
  <unicode hex="02BC"/>
  <outline>
    <contour>
      <point x="424" y="876" type="line"/>
      <point x="660" y="1180" type="line" smooth="yes"/>
      <point x="678.865" y="1203.39"/>
      <point x="692.436" y="1241.91"/>
      <point x="703" y="1297" type="qcurve"/>
      <point x="715" y="1368" type="line" smooth="yes"/>
      <point x="730.092" y="1454.78"/>
      <point x="705.288" y="1485"/>
      <point x="617" y="1485" type="qcurve" smooth="yes"/>
      <point x="540" y="1485" type="line" smooth="yes"/>
      <point x="452.25" y="1485"/>
      <point x="415" y="1454.25"/>
      <point x="400" y="1368" type="qcurve" smooth="yes"/>
      <point x="388" y="1297" type="line" smooth="yes"/>
      <point x="372.908" y="1208.71"/>
      <point x="397.712" y="1178"/>
      <point x="486" y="1178" type="qcurve" smooth="yes"/>
      <point x="514" y="1178" type="line"/>
      <point x="337" y="908" type="line"/>
    </contour>
  </outline>
</glyph>
<glyph name="hungarumlaut" format="2">
  <advance width="1637"/>
  <unicode hex="02DD"/>
  <outline>
    <contour>
      <point x="100" y="1085" type="line"/>
      <point x="363" y="1085" type="line"/>
      <point x="937" y="1448" type="line"/>
      <point x="648" y="1448" type="line"/>
    </contour>
    <contour>
      <point x="700" y="1085" type="line"/>
      <point x="963" y="1085" type="line"/>
      <point x="1537" y="1448" type="line"/>
      <point x="1248" y="1448" type="line"/>
    </contour>
  </outline>
</glyph>
<glyph name="acutecomb" format="2">
  <unicode hex="0301"/>
  <anchor x="75" y="1150" name="_top"/>
  <anchor x="-146" y="1085" name="_topright"/>
  <outline>
    <contour>
      <point x="-236" y="1085" type="line"/>
      <point x="73" y="1085" type="line"/>
      <point x="738" y="1448" type="line"/>
      <point x="397" y="1448" type="line"/>
    </contour>
  </outline>
</glyph>
<glyph name="tildecomb" format="2">
  <unicode hex="0303"/>
  <anchor x="79" y="1150" name="_top"/>
  <anchor x="142" y="1505" name="top"/>
  <outline>
    <contour>
      <point x="-384" y="1158" type="qcurve"/>
      <point x="-229" y="1130" type="line"/>
      <point x="-209.38" y="1182.82"/>
      <point x="-140.785" y="1230"/>
      <point x="-94" y="1230" type="qcurve" smooth="yes"/>
      <point x="-63.25" y="1230"/>
      <point x="26.0938" y="1198.75"/>
      <point x="128.656" y="1161.25"/>
      <point x="237.125" y="1130"/>
      <point x="287" y="1130" type="qcurve" smooth="yes"/>
      <point x="362.75" y="1130"/>
      <point x="547" y="1234"/>
      <point x="583" y="1372" type="qcurve"/>
      <point x="428" y="1400" type="line"/>
      <point x="408.38" y="1347.18"/>
      <point x="339.785" y="1300"/>
      <point x="293" y="1300" type="qcurve" smooth="yes"/>
      <point x="262.25" y="1300"/>
      <point x="172.906" y="1331.25"/>
      <point x="70.3438" y="1368.75"/>
      <point x="-38.125" y="1400"/>
      <point x="-88" y="1400" type="qcurve" smooth="yes"/>
      <point x="-163.75" y="1400"/>
      <point x="-348.75" y="1294.5"/>
    </contour>
  </outline>
</glyph>
<glyph name="uni0307" format="2">
  <unicode hex="0307"/>
  <anchor x="82" y="1150" name="_top"/>
  <anchor x="153" y="1550" name="_bottom"/>
  <anchor x="139" y="1470" name="top"/>
  <outline>
    <contour>
      <point x="50" y="1152" type="qcurve" smooth="yes"/>
      <point x="110" y="1152" type="line" smooth="yes"/>
      <point x="176.405" y="1152"/>
      <point x="204.681" y="1175.1"/>
      <point x="216" y="1240" type="qcurve" smooth="yes"/>
      <point x="227" y="1302" type="line" smooth="yes"/>
      <point x="238.319" y="1366.9"/>
      <point x="219.405" y="1390"/>
      <point x="153" y="1390" type="qcurve" smooth="yes"/>
      <point x="93" y="1390" type="line" smooth="yes"/>
      <point x="26.5952" y="1390"/>
      <point x="-1.681" y="1366.9"/>
      <point x="-13" y="1302" type="qcurve" smooth="yes"/>
      <point x="-24" y="1240" type="line" smooth="yes"/>
      <point x="-35.319" y="1175.1"/>
      <point x="-16.4048" y="1152"/>
    </contour>
  </outline>
</glyph>
<glyph name="uni030F" format="2">
  <unicode hex="030F"/>
  <anchor x="84" y="1150" name="_top"/>
  <anchor x="495.135" y="1085" name="_topright"/>
  <outline>
    <contour>
      <point x="571.636" y="1085" type="line"/>
      <point x="308.985" y="1085" type="line"/>
      <point x="-137.818" y="1448" type="line"/>
      <point x="152.032" y="1448" type="line"/>
    </contour>
    <contour>
      <point x="-28.3645" y="1085" type="line"/>
      <point x="-291.015" y="1085" type="line"/>
      <point x="-737.818" y="1448" type="line"/>
      <point x="-447.968" y="1448" type="line"/>
    </contour>
  </outline>
</glyph>
<glyph name="uni031B" format="2">
  <unicode hex="031B"/>
  <anchor x="55" y="1000" name="_horn"/>
  <outline>
    <contour>
      <point x="30" y="856" type="line"/>
      <point x="159.375" y="859.75"/>
      <point x="339.719" y="894.656"/>
      <point x="458.031" y="964.594"/>
      <point x="522.5" y="1073.38"/>
      <point x="536" y="1151" type="qcurve" smooth="yes"/>
      <point x="544.301" y="1197.03"/>
      <point x="549.282" y="1314.37"/>
      <point x="544" y="1377" type="qcurve"/>
      <point x="348" y="1342" type="line"/>
      <point x="354.791" y="1293.71"/>
      <point x="354.037" y="1212.96"/>
      <point x="348" y="1179" type="qcurve" smooth="yes"/>
      <point x="331.399" y="1083.17"/>
      <point x="198.374" y="1000"/>
      <point x="55" y="1000" type="qcurve"/>
    </contour>
  </outline>
</glyph>
<glyph name="uni0324" format="2">
  <unicode hex="0324"/>
  <anchor x="348" y="-370" name="_top"/>
  <anchor x="419" y="30" name="_bottom"/>
  <anchor x="408" y="-30" name="top"/>
  <outline>
    <contour>
      <point x="88" y="-370" type="qcurve" smooth="yes"/>
      <point x="148" y="-370" type="line" smooth="yes"/>
      <point x="214.405" y="-370"/>
      <point x="242.681" y="-346.405"/>
      <point x="254" y="-280" type="qcurve" smooth="yes"/>
      <point x="265" y="-218" type="line" smooth="yes"/>
      <point x="276.319" y="-153.104"/>
      <point x="257.405" y="-130"/>
      <point x="191" y="-130" type="qcurve" smooth="yes"/>
      <point x="131" y="-130" type="line" smooth="yes"/>
      <point x="64.5952" y="-130"/>
      <point x="36.319" y="-153.104"/>
      <point x="25" y="-218" type="qcurve" smooth="yes"/>
      <point x="14" y="-280" type="line" smooth="yes"/>
      <point x="2.681" y="-346.405"/>
      <point x="21.5952" y="-370"/>
    </contour>
    <contour>
      <point x="548" y="-370" type="qcurve" smooth="yes"/>
      <point x="608" y="-370" type="line" smooth="yes"/>
      <point x="674.405" y="-370"/>
      <point x="702.681" y="-346.405"/>
      <point x="714" y="-280" type="qcurve" smooth="yes"/>
      <point x="725" y="-218" type="line" smooth="yes"/>
      <point x="736.319" y="-153.104"/>
      <point x="717.405" y="-130"/>
      <point x="651" y="-130" type="qcurve" smooth="yes"/>
      <point x="591" y="-130" type="line" smooth="yes"/>
      <point x="524.595" y="-130"/>
      <point x="496.319" y="-153.104"/>
      <point x="485" y="-218" type="qcurve" smooth="yes"/>
      <point x="474" y="-280" type="line" smooth="yes"/>
      <point x="462.681" y="-346.405"/>
      <point x="481.595" y="-370"/>
    </contour>
  </outline>
</glyph>
<glyph name="uni0331" format="2">
  <unicode hex="0331"/>
  <anchor x="-135" y="-100" name="_bottom"/>
  <anchor x="-171" y="-305" name="_top"/>
  <anchor x="-122" y="-25" name="top"/>
  <outline>
    <contour>
      <point x="-609" y="-285" type="line"/>
      <point x="274" y="-285" type="line"/>
      <point x="302" y="-125" type="line"/>
      <point x="-581" y="-125" type="line"/>
    </contour>
  </outline>
  <guideline angle="0" x="0" y="1"/>
  <guideline angle="0" x="0" y="-119"/>
</glyph>
<glyph name="uni0335" format="2">
  <unicode hex="0335"/>
  <anchor x="0" y="1174" name="_top"/>
  <outline>
    <contour>
      <point x="216" y="712" type="line"/>
      <point x="177" y="488" type="line"/>
      <point x="1340" y="488" type="line"/>
      <point x="1379" y="712" type="line"/>
    </contour>
  </outline>
  <guideline angle="0" x="0" y="600"/>
</glyph>
<glyph name="uni0402" format="2">
  <advance width="3583"/>
  <unicode hex="0402"/>
  <outline>
    <contour>
      <point x="937" y="0" type="line"/>
      <point x="1201" y="0" type="line"/>
      <point x="1311" y="628" type="line"/>
      <point x="2959" y="628" type="line" smooth="yes"/>
      <point x="3011.82" y="628"/>
      <point x="3057.56" y="588.368"/>
      <point x="3047" y="528" type="qcurve" smooth="yes"/>
      <point x="3015" y="344" type="line" smooth="yes"/>
      <point x="3005.94" y="291.178"/>
      <point x="2944.82" y="244"/>
      <point x="2892" y="244" type="qcurve" smooth="yes"/>
      <point x="2304" y="244" type="line"/>
      <point x="2261" y="0" type="line"/>
      <point x="2875" y="0" type="line" smooth="yes"/>
      <point x="2950.75" y="0"/>
      <point x="3080.94" y="21.5"/>
      <point x="3182.56" y="81.5"/>
      <point x="3252" y="188.5"/>
      <point x="3267" y="274" type="qcurve" smooth="yes"/>
      <point x="3326" y="612" type="line" smooth="yes"/>
      <point x="3337.25" y="677.25"/>
      <point x="3311.31" y="774.812"/>
      <point x="3236.69" y="839.688"/>
      <point x="3113.25" y="872"/>
      <point x="3027" y="872" type="qcurve" smooth="yes"/>
      <point x="1353" y="872" type="line"/>
      <point x="1403" y="1156" type="line"/>
      <point x="2447" y="1156" type="line"/>
      <point x="2489" y="1400" type="line"/>
      <point x="137" y="1400" type="line"/>
      <point x="95" y="1156" type="line"/>
      <point x="1139" y="1156" type="line"/>
    </contour>
  </outline>
  <guideline angle="260.1" color="1,0,0,1" x="1138.86" y="1156"/>
</glyph>
<glyph name="uni0403" format="2">
  <advance width="2078"/>
  <unicode hex="0403"/>
  <anchor x="1339" y="1550" name="top"/>
  <anchor x="1084" y="1485" name="topright"/>
  <outline>
    <contour>
      <point x="193" y="0" type="line"/>
      <point x="457" y="0" type="line"/>
      <point x="659" y="1156" type="line"/>
      <point x="2151" y="1156" type="line"/>
      <point x="2193" y="1400" type="line"/>
      <point x="437" y="1400" type="line"/>
    </contour>
    <contour>
      <point x="1030" y="1485" type="line"/>
      <point x="1377" y="1485" type="line"/>
      <point x="2029" y="1800" type="line"/>
      <point x="1620" y="1800" type="line"/>
    </contour>
  </outline>
</glyph>
<glyph name="uni040B" format="2">
  <advance width="3583"/>
  <unicode hex="040B"/>
  <outline>
    <contour>
      <point x="937" y="0" type="line"/>
      <point x="1201" y="0" type="line"/>
      <point x="1311" y="628" type="line"/>
      <point x="2959" y="628" type="line" smooth="yes"/>
      <point x="3011.82" y="628"/>
      <point x="3057.56" y="588.368"/>
      <point x="3047" y="528" type="qcurve" smooth="yes"/>
      <point x="2955" y="0" type="line"/>
      <point x="3219" y="0" type="line"/>
      <point x="3326" y="612" type="line" smooth="yes"/>
      <point x="3337.25" y="677.25"/>
      <point x="3311.31" y="774.812"/>
      <point x="3236.69" y="839.688"/>
      <point x="3113.25" y="872"/>
      <point x="3027" y="872" type="qcurve" smooth="yes"/>
      <point x="1353" y="872" type="line"/>
      <point x="1403" y="1156" type="line"/>
      <point x="2447" y="1156" type="line"/>
      <point x="2489" y="1400" type="line"/>
      <point x="137" y="1400" type="line"/>
      <point x="95" y="1156" type="line"/>
      <point x="1139" y="1156" type="line"/>
    </contour>
  </outline>
</glyph>
<glyph name="uni040C" format="2">
  <advance width="2640"/>
  <unicode hex="040C"/>
  <anchor x="1474" y="1550" name="top"/>
  <anchor x="1327" y="-150" name="bottom"/>
  <anchor x="1219" y="1485" name="topright"/>
  <outline>
    <contour>
      <point x="2516" y="1400" type="line"/>
      <point x="2047" y="1400" type="line"/>
      <point x="443" y="717" type="line"/>
      <point x="589" y="717" type="line"/>
      <point x="701" y="1400" type="line"/>
      <point x="437" y="1400" type="line"/>
      <point x="193" y="0" type="line"/>
      <point x="457" y="0" type="line"/>
      <point x="576" y="685" type="line"/>
      <point x="506" y="685" type="line"/>
      <point x="1990" y="0" type="line"/>
      <point x="2520" y="0" type="line"/>
      <point x="907" y="744" type="line"/>
      <point x="907" y="717" type="line"/>
    </contour>
    <contour>
      <point x="1165" y="1485" type="line"/>
      <point x="1512" y="1485" type="line"/>
      <point x="2164" y="1800" type="line"/>
      <point x="1755" y="1800" type="line"/>
    </contour>
  </outline>
</glyph>
<glyph name="uni040D" format="2">
  <advance width="2931"/>
  <unicode hex="040D"/>
  <anchor x="1328" y="-150" name="bottom"/>
  <anchor x="1625" y="1550" name="top"/>
  <anchor x="1858" y="1485" name="topright"/>
  <outline>
    <contour>
      <point x="193" y="0" type="line"/>
      <point x="437" y="0" type="line"/>
      <point x="2434" y="1128" type="line"/>
      <point x="2237" y="0" type="line"/>
      <point x="2501" y="0" type="line"/>
      <point x="2745" y="1400" type="line"/>
      <point x="2501" y="1400" type="line"/>
      <point x="504" y="269" type="line"/>
      <point x="701" y="1400" type="line"/>
      <point x="437" y="1400" type="line"/>
    </contour>
    <contour>
      <point x="1565" y="1485" type="line"/>
      <point x="1858" y="1485" type="line"/>
      <point x="1379" y="1800" type="line"/>
      <point x="1024" y="1800" type="line"/>
    </contour>
  </outline>
</glyph>
<glyph name="uni0411" format="2">
  <advance width="2819"/>
  <unicode hex="0411"/>
  <outline>
    <contour>
      <point x="193" y="0" type="line"/>
      <point x="2111" y="0" type="line" smooth="yes"/>
      <point x="2262.5" y="0"/>
      <point x="2473" y="103"/>
      <point x="2503" y="274" type="qcurve" smooth="yes"/>
      <point x="2562" y="612" type="line" smooth="yes"/>
      <point x="2573.25" y="677.25"/>
      <point x="2547.31" y="774.812"/>
      <point x="2472.69" y="839.688"/>
      <point x="2349.25" y="872"/>
      <point x="2263" y="872" type="qcurve" smooth="yes"/>
      <point x="609" y="872" type="line"/>
      <point x="659" y="1156" type="line"/>
      <point x="2541" y="1156" type="line"/>
      <point x="2583" y="1400" type="line"/>
      <point x="437" y="1400" type="line"/>
    </contour>
    <contour>
      <point x="500" y="244" type="line"/>
      <point x="567" y="628" type="line"/>
      <point x="2195" y="628" type="line" smooth="yes"/>
      <point x="2247.82" y="628"/>
      <point x="2293.56" y="588.368"/>
      <point x="2283" y="528" type="qcurve" smooth="yes"/>
      <point x="2251" y="344" type="line" smooth="yes"/>
      <point x="2241.94" y="291.178"/>
      <point x="2180.82" y="244"/>
      <point x="2128" y="244" type="qcurve" smooth="yes"/>
    </contour>
  </outline>
</glyph>
<glyph name="uni0412" format="2">
  <advance width="2839"/>
  <unicode hex="0412"/>
  <anchor x="1419.5" y="1550" name="top"/>
  <anchor x="1419.5" y="-150" name="bottom"/>
  <outline>
    <contour>
      <point x="193" y="0" type="line"/>
      <point x="2131" y="0" type="line" smooth="yes"/>
      <point x="2206.75" y="0"/>
      <point x="2337.44" y="23.875"/>
      <point x="2440.56" y="92.125"/>
      <point x="2512.75" y="215"/>
      <point x="2530" y="314" type="qcurve" smooth="yes"/>
      <point x="2548" y="420" type="line" smooth="yes"/>
      <point x="2569.88" y="546.018"/>
      <point x="2498.13" y="699.098"/>
      <point x="2394" y="724" type="qcurve"/>
      <point x="2495.87" y="752.675"/>
      <point x="2614.14" y="889.092"/>
      <point x="2633" y="997" type="qcurve" smooth="yes"/>
      <point x="2650" y="1094" type="line" smooth="yes"/>
      <point x="2666.88" y="1190.38"/>
      <point x="2636.97" y="1310.09"/>
      <point x="2557.28" y="1376.66"/>
      <point x="2434.75" y="1400"/>
      <point x="2359" y="1400" type="qcurve" smooth="yes"/>
      <point x="437" y="1400" type="line"/>
    </contour>
    <contour>
      <point x="500" y="244" type="line"/>
      <point x="561" y="598" type="line"/>
      <point x="2209" y="598" type="line" smooth="yes"/>
      <point x="2261.82" y="598"/>
      <point x="2308.56" y="556.859"/>
      <point x="2298" y="498" type="qcurve" smooth="yes"/>
      <point x="2271" y="343" type="line" smooth="yes"/>
      <point x="2261.94" y="291.687"/>
      <point x="2200.82" y="244"/>
      <point x="2148" y="244" type="qcurve" smooth="yes"/>
    </contour>
    <contour>
      <point x="603" y="835" type="line"/>
      <point x="659" y="1156" type="line"/>
      <point x="2291" y="1156" type="line" smooth="yes"/>
      <point x="2343.82" y="1156"/>
      <point x="2388.06" y="1108.31"/>
      <point x="2379" y="1057" type="qcurve" smooth="yes"/>
      <point x="2358" y="935" type="line" smooth="yes"/>
      <point x="2348.19" y="876.141"/>
      <point x="2287.82" y="835"/>
      <point x="2235" y="835" type="qcurve" smooth="yes"/>
    </contour>
  </outline>
</glyph>
<glyph name="uni0416" format="2">
  <advance width="3590"/>
  <unicode hex="0416"/>
  <anchor x="1946" y="1550" name="top"/>
  <anchor x="1649" y="-150" name="bottom"/>
  <outline>
    <contour>
      <point x="-120" y="0" type="line"/>
      <point x="375" y="0" type="line"/>
      <point x="1656" y="646" type="line"/>
      <point x="1543" y="0" type="line"/>
      <point x="1807" y="0" type="line"/>
      <point x="1920" y="646" type="line"/>
      <point x="2998" y="0" type="line"/>
      <point x="3470" y="0" type="line"/>
      <point x="2248" y="722" type="line"/>
      <point x="3512" y="1400" type="line"/>
      <point x="3087" y="1400" type="line"/>
      <point x="1943" y="780" type="line"/>
      <point x="2051" y="1400" type="line"/>
      <point x="1787" y="1400" type="line"/>
      <point x="1679" y="780" type="line"/>
      <point x="721" y="1400" type="line"/>
      <point x="326" y="1400" type="line"/>
      <point x="1351" y="738" type="line"/>
    </contour>
  </outline>
</glyph>
<glyph name="uni041B" format="2">
  <advance width="2696"/>
  <unicode hex="041B"/>
  <anchor x="1495" y="1550" name="top"/>
  <anchor x="1202" y="-150" name="bottom"/>
  <anchor x="2466" y="0" name="ogonek"/>
  <outline>
    <contour>
      <point x="-120" y="0" type="line"/>
      <point x="224" y="0" type="line"/>
      <point x="1428" y="1131" type="line"/>
      <point x="2242" y="0" type="line"/>
      <point x="2576" y="0" type="line"/>
      <point x="1565" y="1400" type="line"/>
      <point x="1371" y="1400" type="line"/>
    </contour>
  </outline>
</glyph>
<glyph name="uni041C" format="2">
  <advance width="3195"/>
  <unicode hex="041C"/>
  <anchor x="1722" y="1550" name="top"/>
  <anchor x="1450" y="-150" name="bottom"/>
  <outline>
    <contour>
      <point x="193" y="0" type="line"/>
      <point x="429" y="0" type="line"/>
      <point x="612" y="1048" type="line"/>
      <point x="1509" y="150" type="line"/>
      <point x="2689" y="1080" type="line"/>
      <point x="2501" y="0" type="line"/>
      <point x="2765" y="0" type="line"/>
      <point x="3009" y="1400" type="line"/>
      <point x="2741" y="1400" type="line"/>
      <point x="1566" y="473" type="line"/>
      <point x="637" y="1400" type="line"/>
      <point x="437" y="1400" type="line"/>
    </contour>
  </outline>
</glyph>
<glyph name="uni0420" format="2">
  <advance width="2769"/>
  <unicode hex="0420"/>
  <outline>
    <contour>
      <point x="193" y="0" type="line"/>
      <point x="457" y="0" type="line"/>
      <point x="549" y="528" type="line"/>
      <point x="2223" y="528" type="line" smooth="yes"/>
      <point x="2309.25" y="528"/>
      <point x="2443.97" y="560.312"/>
      <point x="2541.28" y="625.188"/>
      <point x="2601.38" y="722.75"/>
      <point x="2613" y="788" type="qcurve" smooth="yes"/>
      <point x="2672" y="1126" type="line" smooth="yes"/>
      <point x="2701.25" y="1297"/>
      <point x="2526.5" y="1400"/>
      <point x="2375" y="1400" type="qcurve" smooth="yes"/>
      <point x="437" y="1400" type="line"/>
    </contour>
    <contour>
      <point x="592" y="772" type="line"/>
      <point x="659" y="1156" type="line"/>
      <point x="2307" y="1156" type="line" smooth="yes"/>
      <point x="2359.82" y="1156"/>
      <point x="2404.81" y="1108.82"/>
      <point x="2395" y="1056" type="qcurve" smooth="yes"/>
      <point x="2363" y="872" type="line" smooth="yes"/>
      <point x="2352.44" y="811.632"/>
      <point x="2292.82" y="772"/>
      <point x="2240" y="772" type="qcurve" smooth="yes"/>
    </contour>
  </outline>
  <guideline angle="90" color="0.4,0.4,0.4,1" name="halfwidth" x="1384.5" y="0"/>
</glyph>
<glyph name="uni0421" format="2">
  <advance width="2725"/>
  <unicode hex="0421"/>
  <anchor x="1505" y="1550" name="top"/>
  <anchor x="1259" y="-150" name="bottom"/>
  <outline>
    <contour>
      <point x="376" y="1140" type="qcurve" smooth="yes"/>
      <point x="224" y="272" type="line" smooth="yes"/>
      <point x="196.834" y="116.552"/>
      <point x="328.859" y="-14"/>
      <point x="516" y="-14" type="qcurve" smooth="yes"/>
      <point x="2008" y="-14" type="line" smooth="yes"/>
      <point x="2195.14" y="-14"/>
      <point x="2374.83" y="116.552"/>
      <point x="2402" y="272" type="qcurve" smooth="yes"/>
      <point x="2438" y="478" type="line"/>
      <point x="2183" y="530" type="line"/>
      <point x="2131" y="230" type="line"/>
      <point x="2131" y="230"/>
      <point x="2131" y="230"/>
      <point x="2131" y="230" type="qcurve"/>
      <point x="481" y="230" type="line"/>
      <point x="481" y="230"/>
      <point x="481" y="230"/>
      <point x="481" y="230" type="qcurve"/>
      <point x="645" y="1170" type="line"/>
      <point x="645" y="1170"/>
      <point x="645" y="1170"/>
      <point x="645" y="1170" type="qcurve"/>
      <point x="2287" y="1170" type="line"/>
      <point x="2287" y="1170"/>
      <point x="2287" y="1170"/>
      <point x="2287" y="1170" type="qcurve"/>
      <point x="2239" y="896" type="line"/>
      <point x="2512" y="944" type="line"/>
      <point x="2546" y="1140" type="line" smooth="yes"/>
      <point x="2571.5" y="1287"/>
      <point x="2434.5" y="1414"/>
      <point x="2250" y="1414" type="qcurve" smooth="yes"/>
      <point x="766" y="1414" type="line" smooth="yes"/>
      <point x="583" y="1414"/>
      <point x="401.5" y="1287"/>
    </contour>
  </outline>
</glyph>
<glyph name="uni0428" format="2">
  <advance width="3839"/>
  <unicode hex="0428"/>
  <outline>
    <contour>
      <point x="193" y="0" type="line"/>
      <point x="3409" y="0" type="line"/>
      <point x="3653" y="1400" type="line"/>
      <point x="3389" y="1400" type="line"/>
      <point x="3188" y="244" type="line"/>
      <point x="1976" y="244" type="line"/>
      <point x="2177" y="1400" type="line"/>
      <point x="1913" y="1400" type="line"/>
      <point x="1712" y="244" type="line"/>
      <point x="500" y="244" type="line"/>
      <point x="701" y="1400" type="line"/>
      <point x="437" y="1400" type="line"/>
    </contour>
  </outline>
</glyph>
<glyph name="uni042A" format="2">
  <advance width="3120"/>
  <unicode hex="042A"/>
  <outline>
    <contour>
      <point x="543" y="0" type="line"/>
      <point x="2412" y="0" type="line" smooth="yes"/>
      <point x="2487.75" y="0"/>
      <point x="2617.94" y="21.5"/>
      <point x="2719.56" y="81.5"/>
      <point x="2789" y="188.5"/>
      <point x="2804" y="274" type="qcurve" smooth="yes"/>
      <point x="2868" y="642" type="line" smooth="yes"/>
      <point x="2879.25" y="707.25"/>
      <point x="2853.31" y="804.812"/>
      <point x="2778.69" y="869.688"/>
      <point x="2655.25" y="902"/>
      <point x="2569" y="902" type="qcurve" smooth="yes"/>
      <point x="964" y="902" type="line"/>
      <point x="1051" y="1400" type="line"/>
      <point x="137" y="1400" type="line"/>
      <point x="95" y="1156" type="line"/>
      <point x="745" y="1156" type="line"/>
    </contour>
    <contour>
      <point x="850" y="244" type="line"/>
      <point x="922" y="658" type="line"/>
      <point x="2501" y="658" type="line" smooth="yes"/>
      <point x="2553.82" y="658"/>
      <point x="2599.56" y="618.368"/>
      <point x="2589" y="558" type="qcurve" smooth="yes"/>
      <point x="2552" y="344" type="line" smooth="yes"/>
      <point x="2542.94" y="291.178"/>
      <point x="2481.82" y="244"/>
      <point x="2429" y="244" type="qcurve" smooth="yes"/>
    </contour>
  </outline>
</glyph>
<glyph name="uni042E" format="2">
  <advance width="4008"/>
  <unicode hex="042E"/>
  <outline>
    <contour>
      <point x="193" y="0" type="line"/>
      <point x="457" y="0" type="line"/>
      <point x="563" y="608" type="line"/>
      <point x="1453" y="608" type="line"/>
      <point x="1394" y="272" type="line" smooth="yes"/>
      <point x="1363.82" y="95.4236"/>
      <point x="1515.52" y="-14"/>
      <point x="1677" y="-14" type="qcurve" smooth="yes"/>
      <point x="3248" y="-14" type="line" smooth="yes"/>
      <point x="3409.48" y="-14"/>
      <point x="3610.06" y="93.9144"/>
      <point x="3641" y="272" type="qcurve" smooth="yes"/>
      <point x="3793" y="1140" type="line" smooth="yes"/>
      <point x="3823" y="1311"/>
      <point x="3648.5" y="1414"/>
      <point x="3497" y="1414" type="qcurve" smooth="yes"/>
      <point x="1926" y="1414" type="line" smooth="yes"/>
      <point x="1774.5" y="1414"/>
      <point x="1576" y="1311"/>
      <point x="1546" y="1140" type="qcurve" smooth="yes"/>
      <point x="1496" y="852" type="line"/>
      <point x="606" y="852" type="line"/>
      <point x="701" y="1400" type="line"/>
      <point x="437" y="1400" type="line"/>
    </contour>
    <contour>
      <point x="1641" y="230" type="line"/>
      <point x="1641" y="230"/>
      <point x="1641" y="230"/>
      <point x="1641" y="230" type="qcurve"/>
      <point x="1805" y="1170" type="line"/>
      <point x="1805" y="1170"/>
      <point x="1805" y="1170"/>
      <point x="1805" y="1170" type="qcurve"/>
      <point x="3534" y="1170" type="line"/>
      <point x="3534" y="1170"/>
      <point x="3534" y="1170"/>
      <point x="3534" y="1170" type="qcurve"/>
      <point x="3370" y="230" type="line"/>
      <point x="3370" y="230"/>
      <point x="3370" y="230"/>
      <point x="3370" y="230" type="qcurve"/>
    </contour>
  </outline>
</glyph>
<glyph name="uni0431" format="2">
  <advance width="2228"/>
  <unicode hex="0431"/>
  <outline>
    <contour>
      <point x="1826" y="1303" type="line"/>
      <point x="1817" y="1248" type="line"/>
      <point x="1817" y="1248"/>
      <point x="1817" y="1248"/>
      <point x="1817" y="1248" type="qcurve"/>
      <point x="725" y="1206" type="line" smooth="yes"/>
      <point x="564.27" y="1199.96"/>
      <point x="323.429" y="1052.79"/>
      <point x="294" y="883" type="qcurve" smooth="yes"/>
      <point x="173" y="190" type="line" smooth="yes"/>
      <point x="154.135" y="81.3376"/>
      <point x="255.154" y="-10"/>
      <point x="394" y="-10" type="qcurve" smooth="yes"/>
      <point x="1591" y="-10" type="line" smooth="yes"/>
      <point x="1731.36" y="-10"/>
      <point x="1864.63" y="87.7916"/>
      <point x="1885" y="204" type="qcurve" smooth="yes"/>
      <point x="1962" y="646" type="line" smooth="yes"/>
      <point x="1980.87" y="754.662"/>
      <point x="1878.34" y="850"/>
      <point x="1741" y="850" type="qcurve" smooth="yes"/>
      <point x="738" y="850" type="line" smooth="yes"/>
      <point x="638.393" y="850"/>
      <point x="509.939" y="795.84"/>
      <point x="479" y="740" type="qcurve"/>
      <point x="497" y="840" type="line" smooth="yes"/>
      <point x="509.074" y="909.423"/>
      <point x="624.331" y="977.982"/>
      <point x="693" y="981" type="qcurve" smooth="yes"/>
      <point x="1762" y="1025" type="line" smooth="yes"/>
      <point x="1824.62" y="1027.62"/>
      <point x="1915.25" y="1054.03"/>
      <point x="1978.25" y="1108.22"/>
      <point x="2017.12" y="1193.5"/>
      <point x="2028" y="1255" type="qcurve" smooth="yes"/>
      <point x="2036" y="1303" type="line"/>
    </contour>
    <contour>
      <point x="425" y="214" type="line"/>
      <point x="425" y="214"/>
      <point x="425" y="214"/>
      <point x="425" y="214" type="qcurve"/>
      <point x="497" y="626" type="line"/>
      <point x="497" y="626"/>
      <point x="497" y="626"/>
      <point x="497" y="626" type="qcurve"/>
      <point x="1710" y="626" type="line"/>
      <point x="1710" y="626"/>
      <point x="1710" y="626"/>
      <point x="1710" y="626" type="qcurve"/>
      <point x="1638" y="214" type="line"/>
      <point x="1638" y="214"/>
      <point x="1638" y="214"/>
      <point x="1638" y="214" type="qcurve"/>
    </contour>
  </outline>
</glyph>
<glyph name="uni0438" format="2">
  <advance width="2169"/>
  <unicode hex="0438"/>
  <anchor x="1168" y="1150" name="top"/>
  <outline>
    <contour>
      <point x="144" y="0" type="line"/>
      <point x="371" y="0" type="line"/>
      <point x="1669" y="743" type="line"/>
      <point x="1539" y="0" type="line"/>
      <point x="1787" y="0" type="line"/>
      <point x="1962" y="1000" type="line"/>
      <point x="1735" y="1000" type="line"/>
      <point x="437" y="255" type="line"/>
      <point x="567" y="1000" type="line"/>
      <point x="319" y="1000" type="line"/>
    </contour>
  </outline>
</glyph>
<glyph name="uni0439" format="2">
  <advance width="2169"/>
  <unicode hex="0439"/>
  <anchor x="1233" y="1517" name="top"/>
  <outline>
    <contour>
      <point x="144" y="0" type="line"/>
      <point x="371" y="0" type="line"/>
      <point x="1669" y="743" type="line"/>
      <point x="1539" y="0" type="line"/>
      <point x="1787" y="0" type="line"/>
      <point x="1962" y="1000" type="line"/>
      <point x="1735" y="1000" type="line"/>
      <point x="437" y="255" type="line"/>
      <point x="567" y="1000" type="line"/>
      <point x="319" y="1000" type="line"/>
    </contour>
    <contour>
      <point x="1180" y="1110" type="qcurve" smooth="yes"/>
      <point x="1280.12" y="1110"/>
      <point x="1422.47" y="1135.62"/>
      <point x="1519.78" y="1203.88"/>
      <point x="1578.5" y="1323.25"/>
      <point x="1595" y="1417" type="qcurve"/>
      <point x="1437" y="1417" type="line"/>
      <point x="1428.75" y="1370.5"/>
      <point x="1392.38" y="1311.38"/>
      <point x="1331.62" y="1277.62"/>
      <point x="1244.25" y="1265"/>
      <point x="1185" y="1265" type="qcurve" smooth="yes"/>
      <point x="1124.62" y="1265"/>
      <point x="1043.97" y="1277.62"/>
      <point x="998.781" y="1311.38"/>
      <point x="986.75" y="1370.5"/>
      <point x="995" y="1417" type="qcurve"/>
      <point x="837" y="1417" type="line"/>
      <point x="820.5" y="1323.25"/>
      <point x="848.188" y="1203.88"/>
      <point x="934.812" y="1135.62"/>
      <point x="1079.5" y="1110"/>
    </contour>
  </outline>
</glyph>
<glyph name="uni043B" format="2">
  <advance width="1877"/>
  <unicode hex="043B"/>
  <outline>
    <contour>
      <point x="-93" y="0" type="line"/>
      <point x="200" y="0" type="line"/>
      <point x="938" y="808" type="line"/>
      <point x="1412" y="0" type="line"/>
      <point x="1730" y="0" type="line"/>
      <point x="1133" y="1000" type="line"/>
      <point x="835" y="1000" type="line"/>
    </contour>
  </outline>
</glyph>
<glyph name="uni043D" format="2">
  <advance width="2094"/>
  <unicode hex="043D"/>
  <outline>
    <contour>
      <point x="144" y="0" type="line"/>
      <point x="392" y="0" type="line"/>
      <point x="463" y="408" type="line"/>
      <point x="1535" y="408" type="line"/>
      <point x="1464" y="0" type="line"/>
      <point x="1712" y="0" type="line"/>
      <point x="1887" y="1000" type="line"/>
      <point x="1639" y="1000" type="line"/>
      <point x="1574" y="632" type="line"/>
      <point x="502" y="632" type="line"/>
      <point x="567" y="1000" type="line"/>
      <point x="319" y="1000" type="line"/>
    </contour>
  </outline>
</glyph>
<glyph name="uni043F" format="2">
  <advance width="2063"/>
  <unicode hex="043F"/>
  <outline>
    <contour>
      <point x="144" y="0" type="line"/>
      <point x="392" y="0" type="line"/>
      <point x="527" y="776" type="line"/>
      <point x="1568" y="776" type="line"/>
      <point x="1433" y="0" type="line"/>
      <point x="1681" y="0" type="line"/>
      <point x="1856" y="1000" type="line"/>
      <point x="319" y="1000" type="line"/>
    </contour>
  </outline>
  <guideline angle="0" color="1,0,0,1" x="0" y="520"/>
</glyph>
<glyph name="uni0442" format="2">
  <advance width="1723"/>
  <unicode hex="0442"/>
  <outline>
    <contour>
      <point x="619" y="0" type="line"/>
      <point x="867" y="0" type="line"/>
      <point x="1002" y="776" type="line"/>
      <point x="1662" y="776" type="line"/>
      <point x="1702" y="1000" type="line"/>
      <point x="134" y="1000" type="line"/>
      <point x="94" y="776" type="line"/>
      <point x="754" y="776" type="line"/>
    </contour>
  </outline>
</glyph>
<glyph name="uni0443" format="2">
  <advance width="1852"/>
  <unicode hex="0443"/>
  <anchor x="1009" y="1150" name="top"/>
  <anchor x="1276" y="-180" name="bottom"/>
  <outline>
    <contour>
      <point x="-102" y="-428" type="line"/>
      <point x="341" y="-428" type="line" smooth="yes"/>
      <point x="396.875" y="-428"/>
      <point x="474" y="-414.062"/>
      <point x="540" y="-378.438"/>
      <point x="606.625" y="-317.25"/>
      <point x="652" y="-270" type="qcurve" smooth="yes"/>
      <point x="1881" y="1000" type="line"/>
      <point x="1576" y="1000" type="line"/>
      <point x="858" y="244" type="line"/>
      <point x="393" y="1000" type="line"/>
      <point x="84" y="1000" type="line"/>
      <point x="681" y="58" type="line"/>
      <point x="431" y="-204" type="line"/>
      <point x="431" y="-204"/>
      <point x="431" y="-204"/>
      <point x="431" y="-204" type="qcurve"/>
      <point x="-109" y="-204" type="line"/>
    </contour>
  </outline>
</glyph>
<glyph name="uni044B" format="2">
  <advance width="2987"/>
  <unicode hex="044B"/>
  <anchor x="1577" y="1150" name="top"/>
  <outline>
    <contour>
      <point x="144" y="-1" type="line"/>
      <point x="1580" y="-1" type="line" smooth="yes"/>
      <point x="1717.34" y="-1"/>
      <point x="1849.64" y="84.6566"/>
      <point x="1867" y="182" type="qcurve" smooth="yes"/>
      <point x="1932" y="557" type="line" smooth="yes"/>
      <point x="1949.36" y="654.343"/>
      <point x="1846.34" y="740"/>
      <point x="1709" y="740" type="qcurve" smooth="yes"/>
      <point x="760" y="740" type="line" smooth="yes"/>
      <point x="661.147" y="740"/>
      <point x="533.429" y="690.313"/>
      <point x="504" y="639" type="qcurve"/>
      <point x="567" y="1000" type="line"/>
      <point x="319" y="1000" type="line"/>
    </contour>
    <contour>
      <point x="431" y="223" type="line"/>
      <point x="482" y="516" type="line"/>
      <point x="1677" y="516" type="line"/>
      <point x="1677" y="516"/>
      <point x="1677" y="516"/>
      <point x="1677" y="516" type="qcurve"/>
      <point x="1626" y="223" type="line"/>
      <point x="1626" y="223"/>
      <point x="1626" y="223"/>
      <point x="1626" y="223" type="qcurve"/>
    </contour>
    <contour>
      <point x="2361" y="0" type="line"/>
      <point x="2605" y="0" type="line"/>
      <point x="2780" y="1000" type="line"/>
      <point x="2536" y="1000" type="line"/>
    </contour>
  </outline>
  <guideline angle="260.1" color="1,0,0,1" x="1933" y="557"/>
</glyph>
<glyph name="uni0453" format="2">
  <advance width="1675"/>
  <unicode hex="0453"/>
  <anchor x="1015" y="1150" name="top"/>
  <outline>
    <contour>
      <point x="144" y="0" type="line"/>
      <point x="392" y="0" type="line"/>
      <point x="527" y="776" type="line"/>
      <point x="1615" y="776" type="line"/>
      <point x="1655" y="1000" type="line"/>
      <point x="319" y="1000" type="line"/>
    </contour>
    <contour>
      <point x="704" y="1085" type="line"/>
      <point x="1013" y="1085" type="line"/>
      <point x="1678" y="1448" type="line"/>
      <point x="1337" y="1448" type="line"/>
    </contour>
  </outline>
</glyph>
<glyph name="uni0457" format="2">
  <advance width="783"/>
  <unicode hex="0457"/>
  <anchor x="245" y="-150" name="bottom"/>
  <anchor x="532" y="1490" name="top"/>
  <anchor x="364" y="0" name="ogonek"/>
  <outline>
    <contour>
      <point x="152" y="0" type="line"/>
      <point x="396" y="0" type="line"/>
      <point x="571" y="1000" type="line"/>
      <point x="327" y="1000" type="line"/>
    </contour>
    <contour>
      <point x="212" y="1150" type="qcurve" smooth="yes"/>
      <point x="272" y="1150" type="line" smooth="yes"/>
      <point x="338.405" y="1150"/>
      <point x="366.681" y="1173.6"/>
      <point x="378" y="1240" type="qcurve" smooth="yes"/>
      <point x="389" y="1302" type="line" smooth="yes"/>
      <point x="400.319" y="1366.9"/>
      <point x="381.405" y="1390"/>
      <point x="315" y="1390" type="qcurve" smooth="yes"/>
      <point x="255" y="1390" type="line" smooth="yes"/>
      <point x="188.595" y="1390"/>
      <point x="160.319" y="1366.9"/>
      <point x="149" y="1302" type="qcurve" smooth="yes"/>
      <point x="138" y="1240" type="line" smooth="yes"/>
      <point x="126.681" y="1173.6"/>
      <point x="145.595" y="1150"/>
    </contour>
    <contour>
      <point x="672" y="1150" type="qcurve" smooth="yes"/>
      <point x="732" y="1150" type="line" smooth="yes"/>
      <point x="798.405" y="1150"/>
      <point x="826.681" y="1173.6"/>
      <point x="838" y="1240" type="qcurve" smooth="yes"/>
      <point x="849" y="1302" type="line" smooth="yes"/>
      <point x="860.319" y="1366.9"/>
      <point x="841.405" y="1390"/>
      <point x="775" y="1390" type="qcurve" smooth="yes"/>
      <point x="715" y="1390" type="line" smooth="yes"/>
      <point x="648.595" y="1390"/>
      <point x="620.319" y="1366.9"/>
      <point x="609" y="1302" type="qcurve" smooth="yes"/>
      <point x="598" y="1240" type="line" smooth="yes"/>
      <point x="586.681" y="1173.6"/>
      <point x="605.595" y="1150"/>
    </contour>
  </outline>
</glyph>
<glyph name="uni0490" format="2">
  <advance width="2078"/>
  <unicode hex="0490"/>
  <outline>
    <contour>
      <point x="193" y="0" type="line"/>
      <point x="457" y="0" type="line"/>
      <point x="659" y="1156" type="line"/>
      <point x="2151" y="1156" type="line"/>
      <point x="2225" y="1582" type="line"/>
      <point x="1995" y="1582" type="line"/>
      <point x="1951" y="1400" type="line"/>
      <point x="437" y="1400" type="line"/>
    </contour>
  </outline>
  <guideline angle="0" color="1,0,0,1" x="0" y="1156"/>
</glyph>
<glyph name="uni04CC" format="2">
  <advance width="2040"/>
  <unicode hex="04CC"/>
  <outline>
    <contour>
      <point x="1458" y="0" type="line"/>
      <point x="1658" y="0" type="line" name="ATT"/>
      <point x="1833" y="1000" type="line"/>
      <point x="1585" y="1000" type="line"/>
      <point x="1508" y="563" type="line"/>
      <point x="478" y="563" type="line"/>
      <point x="478" y="563"/>
      <point x="478" y="563"/>
      <point x="478" y="563" type="qcurve"/>
      <point x="555" y="1000" type="line"/>
      <point x="307" y="1000" type="line"/>
      <point x="236" y="598" type="line" smooth="yes"/>
      <point x="222.125" y="518.5"/>
      <point x="247.094" y="417.688"/>
      <point x="316.656" y="360.312"/>
      <point x="426.75" y="339"/>
      <point x="498" y="339" type="qcurve" smooth="yes"/>
      <point x="1469" y="339" type="line"/>
      <point x="1449" y="224" type="line"/>
      <point x="1265" y="224" type="line"/>
      <point x="1184" y="-240" type="line"/>
      <point x="1404" y="-240" type="line"/>
    </contour>
  </outline>
</glyph>
<glyph name="uni04D1" format="2">
  <advance width="2092"/>
  <unicode hex="04D1"/>
  <anchor x="1192" y="1517" name="top"/>
  <anchor x="894" y="-150" name="bottom"/>
  <anchor x="1677" y="0" name="ogonek"/>
  <outline>
    <contour>
      <point x="374" y="-10" type="qcurve" smooth="yes"/>
      <point x="1198" y="-10" type="line" smooth="yes"/>
      <point x="1288.55" y="-10"/>
      <point x="1445.74" y="57.9388"/>
      <point x="1488" y="150" type="qcurve"/>
      <point x="1462" y="0" type="line"/>
      <point x="1710" y="0" type="line"/>
      <point x="1852" y="814" type="line" smooth="yes"/>
      <point x="1873.13" y="937.754"/>
      <point x="1750.17" y="1010"/>
      <point x="1640" y="1010" type="qcurve" smooth="yes"/>
      <point x="566" y="1010" type="line" smooth="yes"/>
      <point x="455.828" y="1010"/>
      <point x="307.129" y="937.754"/>
      <point x="286" y="814" type="qcurve" smooth="yes"/>
      <point x="275" y="754" type="line"/>
      <point x="515" y="708" type="line"/>
      <point x="532" y="806" type="line"/>
      <point x="532" y="806"/>
      <point x="532" y="806"/>
      <point x="532" y="806" type="qcurve"/>
      <point x="1602" y="806" type="line"/>
      <point x="1602" y="806"/>
      <point x="1602" y="806"/>
      <point x="1602" y="806" type="qcurve"/>
      <point x="1566" y="598" type="line"/>
      <point x="520" y="598" type="line" smooth="yes"/>
      <point x="410.5" y="598"/>
      <point x="221.75" y="527"/>
      <point x="200" y="404" type="qcurve" smooth="yes"/>
      <point x="163" y="194" type="line" smooth="yes"/>
      <point x="141.117" y="67.2272"/>
      <point x="257.792" y="-10"/>
    </contour>
    <contour>
      <point x="411" y="194" type="qcurve"/>
      <point x="446" y="394" type="line"/>
      <point x="446" y="394"/>
      <point x="446" y="394"/>
      <point x="446" y="394" type="qcurve"/>
      <point x="1530" y="394" type="line"/>
      <point x="1495" y="194" type="line"/>
      <point x="411" y="194" type="line"/>
      <point x="411" y="194"/>
      <point x="411" y="194"/>
    </contour>
    <contour>
      <point x="1139" y="1110" type="qcurve" smooth="yes"/>
      <point x="1239.12" y="1110"/>
      <point x="1381.47" y="1135.62"/>
      <point x="1478.78" y="1203.88"/>
      <point x="1537.5" y="1323.25"/>
      <point x="1554" y="1417" type="qcurve"/>
      <point x="1396" y="1417" type="line"/>
      <point x="1387.75" y="1370.5"/>
      <point x="1351.38" y="1311.38"/>
      <point x="1290.62" y="1277.62"/>
      <point x="1203.25" y="1265"/>
      <point x="1144" y="1265" type="qcurve" smooth="yes"/>
      <point x="1083.62" y="1265"/>
      <point x="1002.97" y="1277.62"/>
      <point x="957.781" y="1311.38"/>
      <point x="945.75" y="1370.5"/>
      <point x="954" y="1417" type="qcurve"/>
      <point x="796" y="1417" type="line"/>
      <point x="779.5" y="1323.25"/>
      <point x="807.188" y="1203.88"/>
      <point x="893.812" y="1135.62"/>
      <point x="1038.5" y="1110"/>
    </contour>
  </outline>
  <guideline angle="260.1" color="1,0,0,1" x="1462" y="-0"/>
</glyph>
